<svg width="44" height="22" viewBox="0 0 44 22" fill="none" xmlns="http://www.w3.org/2000/svg"><path d="M3.707 9.11c1.826 0 2.838-1.166 2.838-2.398 0-1.749-1.408-2.112-2.673-2.376-1.045-.22-1.991-.374-1.991-1.188 0-.693.451-1.199 1.529-1.199 1.045 0 1.595.429 2.068 1.067l.99-.781C5.687 1.355 4.785.86 3.41.86 1.793.86.649 1.905.649 3.159c0 1.606 1.32 1.936 2.563 2.189 1.078.231 2.101.418 2.101 1.375 0 .726-.561 1.254-1.639 1.254-1.012 0-1.826-.44-2.409-1.386L.22 7.416C.979 8.45 2.035 9.11 3.707 9.11zm7.212.011c1.54 0 2.97-1.232 2.97-3.091 0-1.87-1.397-3.091-2.97-3.091-.814 0-1.595.385-2.046 1.001v-.88H7.718v8.316h1.155V8.208c.44.594 1.21.913 2.046.913zm-.165-1.089c-1.122 0-1.958-.902-1.958-2.013 0-1.1.836-2.002 1.958-2.002 1.1 0 1.947.88 1.947 2.002 0 1.122-.847 2.013-1.947 2.013zm7.217 1.089c1.287 0 2.145-.572 2.717-1.43l-.98-.583c-.351.572-.901.957-1.737.957-1.09 0-1.837-.638-2.013-1.595h4.994v-.495c0-1.76-1.298-3.036-3.047-3.036-1.75 0-3.091 1.364-3.091 3.113 0 1.727 1.265 3.069 3.157 3.069zm-.066-5.137c.979 0 1.672.539 1.848 1.474h-3.751c.23-.858.957-1.474 1.903-1.474zm7.09 5.137c1.375 0 2.365-.77 2.838-1.87L26.755 6.8c-.286.682-.902 1.21-1.75 1.21-1.11 0-1.957-.891-1.957-1.98 0-1.1.825-1.98 1.936-1.98.803 0 1.44.44 1.749 1.166l1.067-.462c-.451-1.067-1.507-1.815-2.816-1.815-1.738 0-3.102 1.342-3.102 3.091 0 1.716 1.342 3.091 3.113 3.091zM28.89 9h1.199V3.06h-1.199V9zm-.242-7.722c0 .484.341.847.836.847a.82.82 0 00.847-.847.82.82 0 00-.847-.847c-.484 0-.836.363-.836.847zm4.647 7.843c.99 0 1.859-.462 2.332-1.166V9h1.144V5.326c0-1.441-.968-2.387-2.673-2.387-1.276 0-2.19.572-2.772 1.353l1.056.616c.34-.583.924-.957 1.705-.957 1.056 0 1.54.55 1.54 1.342v.099h-1.76c-1.661 0-2.673.748-2.673 1.969 0 1.001.726 1.76 2.1 1.76zm.253-1.034c-.792 0-1.144-.308-1.144-.825 0-.583.44-.924 1.54-.924h1.683v.495c-.385.781-1.232 1.254-2.08 1.254zm4.57.913h1.199V.332h-1.2V9zM.813 21h1.188v-2.651h2.156L5.61 21h1.364l-1.705-2.97c.99-.418 1.551-1.375 1.551-2.376 0-1.551-1.133-2.684-2.882-2.684H.814V21zm3.025-6.919c1.177 0 1.782.627 1.782 1.54 0 .847-.561 1.628-1.782 1.628H2.002v-3.168h1.837zm5.889 7.04c.99 0 1.858-.462 2.332-1.166V21h1.143v-3.674c0-1.441-.967-2.387-2.672-2.387-1.276 0-2.19.572-2.772 1.353l1.056.616c.34-.583.924-.957 1.705-.957 1.056 0 1.54.55 1.54 1.342v.099H10.3c-1.661 0-2.673.748-2.673 1.969 0 1.001.726 1.76 2.1 1.76zm.253-1.034c-.792 0-1.144-.308-1.144-.825 0-.583.44-.924 1.54-.924h1.682v.495c-.384.781-1.231 1.254-2.078 1.254zm3.957-3.96h1.177v2.937c0 1.463.682 2.046 1.86 2.046.494 0 .912-.132 1.253-.363l-.56-.99a.855.855 0 01-.606.231c-.462 0-.78-.286-.78-.935v-2.926h1.66V15.06h-1.66v-2.046l-1.167.759v1.287h-1.177v1.067zm7.696 4.994c1.287 0 2.145-.572 2.717-1.43l-.98-.583c-.351.572-.901.957-1.737.957-1.09 0-1.837-.638-2.013-1.595h4.994v-.495c0-1.76-1.298-3.036-3.047-3.036-1.75 0-3.091 1.364-3.091 3.113 0 1.727 1.265 3.069 3.157 3.069zm-.066-5.137c.979 0 1.672.539 1.848 1.474h-3.751c.23-.858.957-1.474 1.903-1.474zm10.866 5.126c1.639 0 2.97-.913 3.663-2.255l-1.078-.572c-.462.968-1.353 1.65-2.596 1.65-1.661 0-2.915-1.32-2.915-2.948 0-1.65 1.254-2.97 2.926-2.97 1.133 0 2.013.594 2.508 1.518l1.045-.649a4.117 4.117 0 00-3.553-2.024c-2.3 0-4.125 1.782-4.125 4.125 0 2.277 1.749 4.125 4.125 4.125zm4.871-.11h2.376c2.41 0 4.17-1.727 4.17-4.015 0-2.277-1.607-4.015-4.214-4.015h-2.332V21zm2.211-6.93c2.013 0 3.124 1.232 3.124 2.915 0 1.65-1.232 2.904-3.08 2.904h-1.056V14.07h1.012z" fill="#193526"/></svg>