<svg width="66" height="16" viewBox="0 0 66 16" fill="none" xmlns="http://www.w3.org/2000/svg"><path d="M5.6 15.2c3.3 0 5.3-1.94 5.3-4.48 0-1.56-.8-2.66-2.08-3.32 1.06-.7 1.72-1.78 1.72-3.12C10.54 1.84 8.64.2 5.5.2c-2.24 0-4 .98-5.06 2.6l2.34 1.4c.56-1.02 1.42-1.6 2.74-1.6 1.5 0 2.22.8 2.22 1.76 0 1.08-.8 1.9-2.34 1.9H3.9V8.8h1.62c1.52 0 2.54.7 2.54 1.86 0 1.22-1.02 1.98-2.46 1.98-1.34 0-2.36-.5-3.08-1.68L.16 12.7c1.26 1.68 2.86 2.5 5.44 2.5zm6.997-1.68c0 1.02.7 1.76 1.74 1.76 1.02 0 1.74-.74 1.74-1.76s-.72-1.76-1.74-1.76-1.74.74-1.74 1.76zM18.995 15h3.02l5.3-12.14V.4h-9.6v2.64h6.66L18.995 15zm14.854.2c3.06 0 5.16-2.04 5.16-4.92 0-3.24-2.08-5.02-4.82-5.02-1.06 0-1.92.36-2.52.84l.5-3.08h5.88V.4h-8.06l-1.18 7.82 2.62 1.06c.46-.82 1.22-1.46 2.36-1.46 1.4 0 2.36.98 2.36 2.4 0 1.36-1 2.36-2.3 2.36-1.24 0-2.06-.72-2.46-1.64l-2.74 1.54c1 1.62 2.74 2.72 5.2 2.72zm9.236-11.42c0-.72.58-1.28 1.26-1.28.7 0 1.26.56 1.26 1.28 0 .7-.56 1.26-1.26 1.26-.68 0-1.26-.56-1.26-1.26zm6.18 7.84c0 2 1.6 3.6 3.58 3.6s3.58-1.6 3.58-3.6c0-1.96-1.6-3.58-3.58-3.58a3.59 3.59 0 00-3.58 3.58zm-8.7 3.38h3.52L56.625.4h-3.52L40.565 15zm11.04-3.38c0-.7.56-1.26 1.24-1.26.7 0 1.26.56 1.26 1.26 0 .72-.56 1.28-1.26 1.28-.68 0-1.24-.56-1.24-1.28zm-10.84-7.84c0 1.96 1.6 3.56 3.58 3.56s3.58-1.6 3.58-3.56c0-2-1.6-3.58-3.58-3.58s-3.58 1.58-3.58 3.58zm23.76 2.54l.76-1.28-2.7-1.12 2.7-1.12-.72-1.28-2.32 1.74.36-2.88h-1.48l.36 2.88-2.32-1.76-.74 1.26 2.68 1.16-2.68 1.12.72 1.28 2.34-1.76-.36 2.9h1.48l-.36-2.9 2.28 1.76z" fill="#193526"/></svg>