<svg width="217" height="50" viewBox="0 0 217 50" fill="none" xmlns="http://www.w3.org/2000/svg"><path fill="#193526" d="M0 0h217v50H0z"/><circle cx="91" cy="25" r="25" fill="#D9D9D9"/><path fill="#D9D9D9" d="M66 0h50v24.444H66z"/><path fill="#D9D9D9" d="M91 0h126v50H91z"/><rect x="147" y="31" width="63" height="13" rx="6.5" fill="#ED4536"/><path d="M158.703 40h3.353v-.959h-2.359V34.89h-.994V40zm5.757.077c.833 0 1.365-.343 1.743-.875l-.791-.462c-.189.308-.49.504-.938.504-.56 0-.959-.308-1.085-.798h3.003v-.364c0-1.12-.819-1.939-1.953-1.939a1.951 1.951 0 00-1.981 1.974c0 1.099.784 1.96 2.002 1.96zm-.021-3.115c.504 0 .868.259.994.728h-2.016a1.05 1.05 0 011.022-.728zm3.703 3.115c.595 0 1.113-.266 1.386-.658V40h.931v-2.324c0-.952-.637-1.533-1.75-1.533-.847 0-1.4.357-1.785.861l.889.441c.175-.315.462-.497.889-.497.546 0 .819.28.819.686v.049h-.994c-1.05 0-1.701.483-1.701 1.267 0 .665.49 1.127 1.316 1.127zm.28-.798c-.399 0-.588-.14-.588-.413 0-.294.231-.476.805-.476h.889v.203c-.189.406-.644.686-1.106.686zm2.782.721h.959v-1.995c0-.637.322-.889.819-.889.217 0 .399.056.504.133l.35-.952a1.403 1.403 0 00-.637-.147c-.483 0-.861.203-1.043.651v-.581h-.952V40zm3.131 0h.973v-2.086c0-.588.35-.924.805-.924.511 0 .77.336.77.875V40h.987v-2.282c0-.987-.567-1.575-1.463-1.575-.469 0-.861.21-1.106.553v-.476h-.966V40zm5.99 0h.98v-3.549l1.491 2.023 1.533-2.058V40h.966v-5.11h-.917l-1.575 2.107-1.519-2.107h-.959V40zm7.61.077c1.141 0 2.002-.882 2.002-1.967 0-1.092-.875-1.967-2.002-1.967-1.134 0-1.995.875-1.995 1.967 0 1.085.861 1.967 1.995 1.967zm.007-.917a1.038 1.038 0 01-1.036-1.057c0-.588.455-1.057 1.036-1.057.574 0 1.036.469 1.036 1.057s-.462 1.057-1.036 1.057zm2.629.84h.959v-1.995c0-.637.322-.889.819-.889.217 0 .399.056.504.133l.35-.952a1.403 1.403 0 00-.637-.147c-.483 0-.861.203-1.043.651v-.581h-.952V40zm4.699.077c.833 0 1.365-.343 1.743-.875l-.791-.462c-.189.308-.49.504-.938.504-.56 0-.959-.308-1.085-.798h3.003v-.364c0-1.12-.819-1.939-1.953-1.939a1.951 1.951 0 00-1.981 1.974c0 1.099.784 1.96 2.002 1.96zm-.021-3.115c.504 0 .868.259.994.728h-2.016a1.05 1.05 0 011.022-.728z" fill="#fff"/><path d="M152.6 25.2c3.3 0 5.3-1.94 5.3-4.48 0-1.56-.8-2.66-2.08-3.32 1.06-.7 1.72-1.78 1.72-3.12 0-2.44-1.9-4.08-5.04-4.08-2.24 0-4 .98-5.06 2.6l2.34 1.4c.56-1.02 1.42-1.6 2.74-1.6 1.5 0 2.22.8 2.22 1.76 0 1.08-.8 1.9-2.34 1.9h-1.5v2.54h1.62c1.52 0 2.54.7 2.54 1.86 0 1.22-1.02 1.98-2.46 1.98-1.34 0-2.36-.5-3.08-1.68l-2.36 1.74c1.26 1.68 2.86 2.5 5.44 2.5zm6.997-1.68c0 1.02.7 1.76 1.74 1.76 1.02 0 1.74-.74 1.74-1.76s-.72-1.76-1.74-1.76-1.74.74-1.74 1.76zm6.398 1.48h3.02l5.3-12.14V10.4h-9.6v2.64h6.66L165.995 25zm14.854.2c3.06 0 5.16-2.04 5.16-4.92 0-3.24-2.08-5.02-4.82-5.02-1.06 0-1.92.36-2.52.84l.5-3.08h5.88V10.4h-8.06l-1.18 7.82 2.62 1.06c.46-.82 1.22-1.46 2.36-1.46 1.4 0 2.36.98 2.36 2.4 0 1.36-1 2.36-2.3 2.36-1.24 0-2.06-.72-2.46-1.64l-2.74 1.54c1 1.62 2.74 2.72 5.2 2.72zm9.236-11.42c0-.72.58-1.28 1.26-1.28.7 0 1.26.56 1.26 1.28 0 .7-.56 1.26-1.26 1.26-.68 0-1.26-.56-1.26-1.26zm6.18 7.84c0 2 1.6 3.6 3.58 3.6s3.58-1.6 3.58-3.6c0-1.96-1.6-3.58-3.58-3.58a3.59 3.59 0 00-3.58 3.58zm-8.7 3.38h3.52l12.54-14.6h-3.52L187.565 25zm11.04-3.38c0-.7.56-1.26 1.24-1.26.7 0 1.26.56 1.26 1.26 0 .72-.56 1.28-1.26 1.28-.68 0-1.24-.56-1.24-1.28zm-10.84-7.84c0 1.96 1.6 3.56 3.58 3.56s3.58-1.6 3.58-3.56c0-2-1.6-3.58-3.58-3.58s-3.58 1.58-3.58 3.58zm23.759 2.54l.76-1.28-2.7-1.12 2.7-1.12-.72-1.28-2.32 1.74.36-2.88h-1.48l.36 2.88-2.32-1.76-.74 1.26 2.68 1.16-2.68 1.12.72 1.28 2.34-1.76-.36 2.9h1.48l-.36-2.9 2.28 1.76zM205.11 24h.57l.29-.78h1.65l.295.78h.565l-1.41-3.65h-.55L205.11 24zm1.685-2.97l.63 1.67h-1.26l.63-1.67zm2.164 2.97h.545v-1.07h.865c.79 0 1.34-.57 1.34-1.29 0-.725-.55-1.29-1.33-1.29h-1.42V24zm1.375-3.15c.51 0 .83.34.83.79 0 .445-.32.785-.83.785h-.83V20.85h.83zm2.838 3.15h.54v-1.535l1.295-2.115h-.6l-.96 1.595-.955-1.595h-.61l1.29 2.11V24zM91.707 22.11c1.826 0 2.838-1.166 2.838-2.398 0-1.749-1.408-2.112-2.673-2.376-1.045-.22-1.991-.374-1.991-1.188 0-.693.451-1.199 1.529-1.199 1.045 0 1.595.429 2.068 1.067l.99-.781c-.781-.88-1.683-1.375-3.058-1.375-1.617 0-2.761 1.045-2.761 2.299 0 1.606 1.32 1.936 2.563 2.189 1.078.231 2.101.418 2.101 1.375 0 .726-.561 1.254-1.639 1.254-1.012 0-1.826-.44-2.409-1.386l-1.045.825c.759 1.034 1.815 1.694 3.487 1.694zm7.212.011c1.54 0 2.97-1.232 2.97-3.091 0-1.87-1.397-3.091-2.97-3.091-.814 0-1.595.385-2.046 1.001v-.88h-1.155v8.316h1.155v-3.168c.44.594 1.21.913 2.046.913zm-.165-1.089c-1.122 0-1.958-.902-1.958-2.013 0-1.1.836-2.002 1.958-2.002 1.1 0 1.947.88 1.947 2.002 0 1.122-.847 2.013-1.947 2.013zm7.217 1.089c1.287 0 2.145-.572 2.717-1.43l-.979-.583c-.352.572-.902.957-1.738.957-1.089 0-1.837-.638-2.013-1.595h4.994v-.495c0-1.76-1.298-3.036-3.047-3.036s-3.091 1.364-3.091 3.113c0 1.727 1.265 3.069 3.157 3.069zm-.066-5.137c.979 0 1.672.539 1.848 1.474h-3.751c.231-.858.957-1.474 1.903-1.474zm7.09 5.137c1.375 0 2.365-.77 2.838-1.87l-1.078-.451c-.286.682-.902 1.21-1.749 1.21-1.111 0-1.958-.891-1.958-1.98 0-1.1.825-1.98 1.936-1.98.803 0 1.441.44 1.749 1.166l1.067-.462c-.451-1.067-1.507-1.815-2.816-1.815-1.738 0-3.102 1.342-3.102 3.091 0 1.716 1.342 3.091 3.113 3.091zm3.896-.121h1.199v-5.94h-1.199V22zm-.242-7.722c0 .484.341.847.836.847a.82.82 0 00.847-.847.82.82 0 00-.847-.847c-.484 0-.836.363-.836.847zm4.647 7.843c.99 0 1.859-.462 2.332-1.166V22h1.144v-3.674c0-1.441-.968-2.387-2.673-2.387-1.276 0-2.189.572-2.772 1.353l1.056.616c.341-.583.924-.957 1.705-.957 1.056 0 1.54.55 1.54 1.342v.099h-1.76c-1.661 0-2.673.748-2.673 1.969 0 1.001.726 1.76 2.101 1.76zm.253-1.034c-.792 0-1.144-.308-1.144-.825 0-.583.44-.924 1.54-.924h1.683v.495c-.385.781-1.232 1.254-2.079 1.254zm4.57.913h1.199v-8.668h-1.199V22zM88.814 34h1.188v-2.651h2.156L93.61 34h1.364l-1.705-2.97c.99-.418 1.551-1.375 1.551-2.376 0-1.551-1.133-2.684-2.882-2.684h-3.124V34zm3.025-6.919c1.177 0 1.782.627 1.782 1.54 0 .847-.561 1.628-1.782 1.628h-1.837v-3.168h1.837zm5.889 7.04c.99 0 1.859-.462 2.332-1.166V34h1.144v-3.674c0-1.441-.968-2.387-2.673-2.387-1.277 0-2.19.572-2.773 1.353l1.056.616c.342-.583.925-.957 1.706-.957 1.056 0 1.54.55 1.54 1.342v.099H98.3c-1.662 0-2.674.748-2.674 1.969 0 1.001.727 1.76 2.102 1.76zm.253-1.034c-.792 0-1.144-.308-1.144-.825 0-.583.44-.924 1.54-.924h1.683v.495c-.386.781-1.233 1.254-2.08 1.254zm3.957-3.96h1.177v2.937c0 1.463.682 2.046 1.859 2.046.495 0 .913-.132 1.254-.363l-.561-.99a.855.855 0 01-.605.231c-.462 0-.781-.286-.781-.935v-2.926h1.661V28.06h-1.661v-2.046l-1.166.759v1.287h-1.177v1.067zm7.696 4.994c1.287 0 2.145-.572 2.717-1.43l-.979-.583c-.352.572-.902.957-1.738.957-1.089 0-1.837-.638-2.013-1.595h4.994v-.495c0-1.76-1.298-3.036-3.047-3.036s-3.091 1.364-3.091 3.113c0 1.727 1.265 3.069 3.157 3.069zm-.066-5.137c.979 0 1.672.539 1.848 1.474h-3.751c.231-.858.957-1.474 1.903-1.474zm10.866 5.126c1.639 0 2.97-.913 3.663-2.255l-1.078-.572c-.462.968-1.353 1.65-2.596 1.65-1.661 0-2.915-1.32-2.915-2.948 0-1.65 1.254-2.97 2.926-2.97 1.133 0 2.013.594 2.508 1.518l1.045-.649a4.117 4.117 0 00-3.553-2.024c-2.299 0-4.125 1.782-4.125 4.125 0 2.277 1.749 4.125 4.125 4.125zm4.871-.11h2.376c2.409 0 4.169-1.727 4.169-4.015 0-2.277-1.606-4.015-4.213-4.015h-2.332V34zm2.211-6.93c2.013 0 3.124 1.232 3.124 2.915 0 1.65-1.232 2.904-3.08 2.904h-1.056V27.07h1.012z" fill="#193526"/><path d="M10.393 42.195c2.197 0 3.718-1.196 3.718-2.912 0-2.912-4.433-2.444-4.433-4.654 0-.845.611-1.43 1.547-1.43.13 0 .286.013.429.065l1.937 1.469h.065v-1.534c-.39-.286-1.482-.494-2.431-.494-1.885 0-3.224 1.079-3.224 2.613 0 2.912 4.433 2.431 4.433 4.654 0 1.04-.819 1.716-1.781 1.716-.234 0-.494-.052-.598-.091l-2.262-1.703h-.065v1.703c.533.325 1.638.598 2.665.598zm7.121 0c.806 0 1.56-.39 2.275-1.183h.078l.156 1.183 2.171-.533v-.065l-.663-.611v-5.811h-.13l-2.288.624v.065l.715.65v4.03c-.494.416-.949.624-1.404.624-.663 0-1.053-.416-1.053-1.105v-4.901h-.13l-2.288.624v.065l.715.65v3.939c0 1.027.741 1.755 1.846 1.755zm7.154-8.372c.585 0 .975-.351.975-.923 0-.572-.39-.91-.975-.91-.598 0-.988.338-.988.91 0 .572.39.923.988.923zM26.124 42v-.052l-.611-.598v-6.175h-.13l-2.288.624v.052l.715.65v4.849l-.598.598V42h2.912zm3.245.195c.897 0 1.69-.494 2.067-1.3l-.052-.039c-.299.26-.663.403-1.014.403-.546 0-.923-.312-.923-1.001V36.02h1.69l.091-.65h-1.78v-1.326h-.222l-2.379 1.911v.065h.897v5.018c.182.806.871 1.157 1.625 1.157zm10.932-.26l-.676-.728v-3.679l2.444-3.757.637-.806V32.9h-2.34v.065l.884.91-1.924 3.094-2.002-3.276.676-.728V32.9h-3.51v.065l.598.728 2.665 4.082v3.432l-.69.728V42h3.238v-.065zm4.656.26c2.002 0 3.38-1.482 3.38-3.588 0-2.054-1.313-3.432-3.25-3.432-2.002 0-3.367 1.482-3.367 3.588 0 2.054 1.3 3.432 3.237 3.432zm.22-.494c-1.026 0-1.702-1.313-1.702-3.367 0-1.742.507-2.678 1.39-2.678 1.028 0 1.717 1.313 1.717 3.367 0 1.742-.52 2.678-1.404 2.678zm6.424.494c.806 0 1.56-.39 2.275-1.183h.078l.156 1.183 2.171-.533v-.065l-.663-.611v-5.811h-.13l-2.288.624v.065l.715.65v4.03c-.494.416-.949.624-1.404.624-.663 0-1.053-.416-1.053-1.105v-4.901h-.13l-2.288.624v.065l.715.65v3.939c0 1.027.741 1.755 1.846 1.755zM9.976 28h1.668v-7.2h2.412v-1.56H7.54v1.56h2.436V28zm5.207 0h1.644v-3.576c0-1.008.6-1.584 1.38-1.584.876 0 1.32.576 1.32 1.5V28h1.704v-3.912c0-1.692-.984-2.7-2.52-2.7-.792 0-1.452.348-1.884.924v-3.768h-1.644V28zm9.329.132c1.02 0 1.908-.456 2.376-1.128V28h1.596v-3.984c0-1.632-1.092-2.628-3-2.628-1.452 0-2.4.612-3.06 1.476l1.524.756c.3-.54.792-.852 1.524-.852.936 0 1.404.48 1.404 1.176v.084h-1.704c-1.8 0-2.916.828-2.916 2.172 0 1.14.84 1.932 2.256 1.932zm.48-1.368c-.684 0-1.008-.24-1.008-.708 0-.504.396-.816 1.38-.816h1.524v.348c-.324.696-1.104 1.176-1.896 1.176zm4.187-3.78h1.2v2.724c0 1.764.792 2.412 2.148 2.412.6 0 1.128-.18 1.548-.492l-.756-1.296c-.192.168-.372.24-.6.24-.42 0-.708-.24-.708-.924v-2.664h1.704V21.52H32.01v-2.364l-1.632.96v1.404h-1.2v1.464zM10.96 14.12c1.956 0 3.216-1.248 3.216-2.748 0-1.896-1.548-2.328-2.892-2.616-1.092-.252-1.968-.384-1.968-1.092 0-.576.408-1.044 1.356-1.044 1.008 0 1.596.42 2.052 1.092l1.38-1.08c-.888-.984-1.86-1.524-3.408-1.524-1.824 0-3.108 1.152-3.108 2.592 0 1.776 1.464 2.196 2.772 2.472 1.212.276 2.052.444 2.052 1.26 0 .636-.492 1.092-1.44 1.092-1.044 0-1.824-.468-2.4-1.38L7.096 12.32c.828 1.056 1.98 1.8 3.864 1.8zm6.368.012c1.02 0 1.908-.456 2.376-1.128V14H21.3v-3.984c0-1.632-1.092-2.628-3-2.628-1.452 0-2.4.612-3.06 1.476l1.524.756c.3-.54.792-.852 1.524-.852.936 0 1.404.48 1.404 1.176v.084h-1.704c-1.8 0-2.916.828-2.916 2.172 0 1.14.84 1.932 2.256 1.932zm.48-1.368c-.684 0-1.008-.24-1.008-.708 0-.504.396-.816 1.38-.816h1.524v.348c-.324.696-1.104 1.176-1.896 1.176zM24.148 14h1.644l2.544-6.48H26.62l-1.608 4.368-1.596-4.368h-1.752L24.148 14zm4.98 0h1.692V7.52h-1.692V14zm-.215-8.304c0 .612.431 1.056 1.055 1.056.637 0 1.069-.444 1.069-1.056 0-.624-.432-1.08-1.069-1.08-.611 0-1.055.456-1.055 1.08zM32.14 14h1.668v-3.576c0-1.008.6-1.584 1.38-1.584.876 0 1.32.576 1.32 1.5V14H38.2v-3.912c0-1.692-.972-2.7-2.508-2.7-.804 0-1.476.36-1.896.948V7.52H32.14V14zm10.252.096c.84 0 1.584-.384 2.04-1.02v.492c0 1.02-.744 1.728-1.788 1.728-.852 0-1.332-.312-1.764-.876l-1.368 1.068c.732.852 1.704 1.284 3.18 1.284 1.992 0 3.396-1.368 3.396-3.252v-6h-1.656v.852c-.432-.6-1.152-.984-2.016-.984-1.656 0-3.144 1.308-3.144 3.36 0 2.052 1.524 3.348 3.12 3.348zm.324-1.536c-.996 0-1.8-.804-1.8-1.824 0-1.032.804-1.824 1.8-1.824 1.02 0 1.8.804 1.8 1.824s-.78 1.824-1.8 1.824zm7.25 1.572c1.884.012 2.784-1.128 2.784-2.136 0-1.392-1.272-1.764-2.352-1.98-.948-.204-1.476-.312-1.476-.72 0-.36.312-.624.96-.624.6 0 1.008.252 1.272.684l1.512-.612c-.6-.864-1.416-1.38-2.784-1.38-1.596-.012-2.652.936-2.652 2.028 0 1.368 1.212 1.704 2.304 1.932.828.168 1.524.276 1.524.744 0 .384-.36.708-1.032.708-.684 0-1.2-.3-1.488-.876l-1.596.624c.516 1.032 1.488 1.608 3.024 1.608z" fill="#fff"/></svg>