<svg width="50" height="12" viewBox="0 0 50 12" fill="none" xmlns="http://www.w3.org/2000/svg"><path d="M3.393 11.195c2.197 0 3.718-1.196 3.718-2.912 0-2.912-4.433-2.444-4.433-4.654 0-.845.611-1.43 1.547-1.43.13 0 .286.013.429.065l1.937 1.469h.065V2.199c-.39-.286-1.482-.494-2.431-.494-1.885 0-3.224 1.079-3.224 2.613 0 2.912 4.433 2.431 4.433 4.654 0 1.04-.819 1.716-1.781 1.716-.234 0-.494-.052-.598-.091L.793 8.894H.728v1.703c.533.325 1.638.598 2.665.598zm7.121 0c.806 0 1.56-.39 2.275-1.183h.078l.156 1.183 2.171-.533v-.065l-.663-.611V4.175h-.13l-2.288.624v.065l.715.65v4.03c-.494.416-.949.624-1.404.624-.663 0-1.053-.416-1.053-1.105V4.162h-.13l-2.288.624v.065l.715.65V9.44c0 1.027.741 1.755 1.846 1.755zm7.154-8.372c.585 0 .975-.351.975-.923 0-.572-.39-.91-.975-.91-.598 0-.988.338-.988.91 0 .572.39.923.988.923zM19.124 11v-.052l-.611-.598V4.175h-.13l-2.288.624v.052l.715.65v4.849l-.598.598V11h2.912zm3.245.195c.897 0 1.69-.494 2.067-1.3l-.052-.039c-.299.26-.663.403-1.014.403-.546 0-.923-.312-.923-1.001V5.02h1.69l.091-.65h-1.78V3.044h-.222l-2.379 1.911v.065h.897v5.018c.182.806.871 1.157 1.625 1.157zm10.932-.26l-.676-.728V6.528l2.444-3.757.637-.806V1.9h-2.34v.065l.884.91-1.924 3.094-2.002-3.276.676-.728V1.9h-3.51v.065l.598.728 2.665 4.082v3.432l-.69.728V11h3.238v-.065zm4.656.26c2.002 0 3.38-1.482 3.38-3.588 0-2.054-1.313-3.432-3.25-3.432-2.002 0-3.367 1.482-3.367 3.588 0 2.054 1.3 3.432 3.237 3.432zm.22-.494c-1.026 0-1.702-1.313-1.702-3.367 0-1.742.507-2.678 1.39-2.678 1.028 0 1.717 1.313 1.717 3.367 0 1.742-.52 2.678-1.404 2.678zm6.424.494c.806 0 1.56-.39 2.275-1.183h.078l.156 1.183 2.171-.533v-.065l-.663-.611V4.175h-.13l-2.288.624v.065l.715.65v4.03c-.494.416-.949.624-1.404.624-.663 0-1.053-.416-1.053-1.105V4.162h-.13l-2.288.624v.065l.715.65V9.44c0 1.027.741 1.755 1.846 1.755z" fill="#fff"/></svg>