<svg width="46" height="13" viewBox="0 0 46 13" fill="none" xmlns="http://www.w3.org/2000/svg"><path d="M3.96 10.12c1.956 0 3.216-1.248 3.216-2.748 0-1.896-1.548-2.328-2.892-2.616-1.092-.252-1.968-.384-1.968-1.092 0-.576.408-1.044 1.356-1.044 1.008 0 1.596.42 2.052 1.092l1.38-1.08c-.888-.984-1.86-1.524-3.408-1.524C1.872 1.108.588 2.26.588 3.7c0 1.776 1.464 2.196 2.772 2.472 1.212.276 2.052.444 2.052 1.26 0 .636-.492 1.092-1.44 1.092-1.044 0-1.824-.468-2.4-1.38L.096 8.32c.828 1.056 1.98 1.8 3.864 1.8zm6.368.012c1.02 0 1.908-.456 2.376-1.128V10H14.3V6.016c0-1.632-1.092-2.628-3-2.628-1.452 0-2.4.612-3.06 1.476l1.524.756c.3-.54.792-.852 1.524-.852.936 0 1.404.48 1.404 1.176v.084h-1.704c-1.8 0-2.916.828-2.916 2.172 0 1.14.84 1.932 2.256 1.932zm.48-1.368c-.684 0-1.008-.24-1.008-.708 0-.504.396-.816 1.38-.816h1.524v.348c-.324.696-1.104 1.176-1.896 1.176zM17.148 10h1.644l2.544-6.48H19.62l-1.608 4.368-1.596-4.368h-1.752L17.148 10zm4.98 0h1.692V3.52h-1.692V10zm-.215-8.304c0 .612.431 1.056 1.055 1.056.637 0 1.069-.444 1.069-1.056 0-.624-.432-1.08-1.069-1.08-.611 0-1.055.456-1.055 1.08zM25.14 10h1.668V6.424c0-1.008.6-1.584 1.38-1.584.876 0 1.32.576 1.32 1.5V10H31.2V6.088c0-1.692-.972-2.7-2.508-2.7-.804 0-1.476.36-1.896.948V3.52H25.14V10zm10.252.096c.84 0 1.584-.384 2.04-1.02v.492c0 1.02-.744 1.728-1.788 1.728-.852 0-1.332-.312-1.764-.876l-1.368 1.068c.732.852 1.704 1.284 3.18 1.284 1.992 0 3.396-1.368 3.396-3.252v-6h-1.656v.852c-.432-.6-1.152-.984-2.016-.984-1.656 0-3.144 1.308-3.144 3.36 0 2.052 1.524 3.348 3.12 3.348zm.324-1.536c-.996 0-1.8-.804-1.8-1.824 0-1.032.804-1.824 1.8-1.824 1.02 0 1.8.804 1.8 1.824s-.78 1.824-1.8 1.824zm7.25 1.572c1.884.012 2.784-1.128 2.784-2.136 0-1.392-1.272-1.764-2.352-1.98-.948-.204-1.476-.312-1.476-.72 0-.36.312-.624.96-.624.6 0 1.008.252 1.272.684l1.512-.612c-.6-.864-1.416-1.38-2.784-1.38-1.596-.012-2.652.936-2.652 2.028 0 1.368 1.212 1.704 2.304 1.932.828.168 1.524.276 1.524.744 0 .384-.36.708-1.032.708-.684 0-1.2-.3-1.488-.876l-1.596.624c.516 1.032 1.488 1.608 3.024 1.608z" fill="#fff"/></svg>