<svg width="217" height="50" viewBox="0 0 217 50" fill="none" xmlns="http://www.w3.org/2000/svg"><path fill="#193526" d="M0 0h217v50H0z"/><circle cx="91" cy="25" r="25" fill="#D9D9D9"/><path fill="#D9D9D9" d="M66 0h50v24.444H66z"/><path fill="#D9D9D9" d="M91 0h126v50H91z"/><rect x="147" y="31" width="63" height="13" rx="6.5" fill="#ED4536"/><path d="M158.703 40h3.353v-.959h-2.359V34.89h-.994V40zm5.757.077c.833 0 1.365-.343 1.743-.875l-.791-.462c-.189.308-.49.504-.938.504-.56 0-.959-.308-1.085-.798h3.003v-.364c0-1.12-.819-1.939-1.953-1.939a1.951 1.951 0 00-1.981 1.974c0 1.099.784 1.96 2.002 1.96zm-.021-3.115c.504 0 .868.259.994.728h-2.016a1.05 1.05 0 011.022-.728zm3.703 3.115c.595 0 1.113-.266 1.386-.658V40h.931v-2.324c0-.952-.637-1.533-1.75-1.533-.847 0-1.4.357-1.785.861l.889.441c.175-.315.462-.497.889-.497.546 0 .819.28.819.686v.049h-.994c-1.05 0-1.701.483-1.701 1.267 0 .665.49 1.127 1.316 1.127zm.28-.798c-.399 0-.588-.14-.588-.413 0-.294.231-.476.805-.476h.889v.203c-.189.406-.644.686-1.106.686zm2.782.721h.959v-1.995c0-.637.322-.889.819-.889.217 0 .399.056.504.133l.35-.952a1.403 1.403 0 00-.637-.147c-.483 0-.861.203-1.043.651v-.581h-.952V40zm3.131 0h.973v-2.086c0-.588.35-.924.805-.924.511 0 .77.336.77.875V40h.987v-2.282c0-.987-.567-1.575-1.463-1.575-.469 0-.861.21-1.106.553v-.476h-.966V40zm5.99 0h.98v-3.549l1.491 2.023 1.533-2.058V40h.966v-5.11h-.917l-1.575 2.107-1.519-2.107h-.959V40zm7.61.077c1.141 0 2.002-.882 2.002-1.967 0-1.092-.875-1.967-2.002-1.967-1.134 0-1.995.875-1.995 1.967 0 1.085.861 1.967 1.995 1.967zm.007-.917a1.038 1.038 0 01-1.036-1.057c0-.588.455-1.057 1.036-1.057.574 0 1.036.469 1.036 1.057s-.462 1.057-1.036 1.057zm2.629.84h.959v-1.995c0-.637.322-.889.819-.889.217 0 .399.056.504.133l.35-.952a1.403 1.403 0 00-.637-.147c-.483 0-.861.203-1.043.651v-.581h-.952V40zm4.699.077c.833 0 1.365-.343 1.743-.875l-.791-.462c-.189.308-.49.504-.938.504-.56 0-.959-.308-1.085-.798h3.003v-.364c0-1.12-.819-1.939-1.953-1.939a1.951 1.951 0 00-1.981 1.974c0 1.099.784 1.96 2.002 1.96zm-.021-3.115c.504 0 .868.259.994.728h-2.016a1.05 1.05 0 011.022-.728zM10.393 42.195c2.197 0 3.718-1.196 3.718-2.912 0-2.912-4.433-2.444-4.433-4.654 0-.845.611-1.43 1.547-1.43.13 0 .286.013.429.065l1.937 1.469h.065v-1.534c-.39-.286-1.482-.494-2.431-.494-1.885 0-3.224 1.079-3.224 2.613 0 2.912 4.433 2.431 4.433 4.654 0 1.04-.819 1.716-1.781 1.716-.234 0-.494-.052-.598-.091l-2.262-1.703h-.065v1.703c.533.325 1.638.598 2.665.598zm7.121 0c.806 0 1.56-.39 2.275-1.183h.078l.156 1.183 2.171-.533v-.065l-.663-.611v-5.811h-.13l-2.288.624v.065l.715.65v4.03c-.494.416-.949.624-1.404.624-.663 0-1.053-.416-1.053-1.105v-4.901h-.13l-2.288.624v.065l.715.65v3.939c0 1.027.741 1.755 1.846 1.755zm7.154-8.372c.585 0 .975-.351.975-.923 0-.572-.39-.91-.975-.91-.598 0-.988.338-.988.91 0 .572.39.923.988.923zM26.124 42v-.052l-.611-.598v-6.175h-.13l-2.288.624v.052l.715.65v4.849l-.598.598V42h2.912zm3.245.195c.897 0 1.69-.494 2.067-1.3l-.052-.039c-.299.26-.663.403-1.014.403-.546 0-.923-.312-.923-1.001V36.02h1.69l.091-.65h-1.78v-1.326h-.222l-2.379 1.911v.065h.897v5.018c.182.806.871 1.157 1.625 1.157zm10.932-.26l-.676-.728v-3.679l2.444-3.757.637-.806V32.9h-2.34v.065l.884.91-1.924 3.094-2.002-3.276.676-.728V32.9h-3.51v.065l.598.728 2.665 4.082v3.432l-.69.728V42h3.238v-.065zm4.656.26c2.002 0 3.38-1.482 3.38-3.588 0-2.054-1.313-3.432-3.25-3.432-2.002 0-3.367 1.482-3.367 3.588 0 2.054 1.3 3.432 3.237 3.432zm.22-.494c-1.026 0-1.702-1.313-1.702-3.367 0-1.742.507-2.678 1.39-2.678 1.028 0 1.717 1.313 1.717 3.367 0 1.742-.52 2.678-1.404 2.678zm6.424.494c.806 0 1.56-.39 2.275-1.183h.078l.156 1.183 2.171-.533v-.065l-.663-.611v-5.811h-.13l-2.288.624v.065l.715.65v4.03c-.494.416-.949.624-1.404.624-.663 0-1.053-.416-1.053-1.105v-4.901h-.13l-2.288.624v.065l.715.65v3.939c0 1.027.741 1.755 1.846 1.755zM9.976 28h1.668v-7.2h2.412v-1.56H7.54v1.56h2.436V28zm5.207 0h1.644v-3.576c0-1.008.6-1.584 1.38-1.584.876 0 1.32.576 1.32 1.5V28h1.704v-3.912c0-1.692-.984-2.7-2.52-2.7-.792 0-1.452.348-1.884.924v-3.768h-1.644V28zm9.329.132c1.02 0 1.908-.456 2.376-1.128V28h1.596v-3.984c0-1.632-1.092-2.628-3-2.628-1.452 0-2.4.612-3.06 1.476l1.524.756c.3-.54.792-.852 1.524-.852.936 0 1.404.48 1.404 1.176v.084h-1.704c-1.8 0-2.916.828-2.916 2.172 0 1.14.84 1.932 2.256 1.932zm.48-1.368c-.684 0-1.008-.24-1.008-.708 0-.504.396-.816 1.38-.816h1.524v.348c-.324.696-1.104 1.176-1.896 1.176zm4.187-3.78h1.2v2.724c0 1.764.792 2.412 2.148 2.412.6 0 1.128-.18 1.548-.492l-.756-1.296c-.192.168-.372.24-.6.24-.42 0-.708-.24-.708-.924v-2.664h1.704V21.52H32.01v-2.364l-1.632.96v1.404h-1.2v1.464zM10.96 14.12c1.956 0 3.216-1.248 3.216-2.748 0-1.896-1.548-2.328-2.892-2.616-1.092-.252-1.968-.384-1.968-1.092 0-.576.408-1.044 1.356-1.044 1.008 0 1.596.42 2.052 1.092l1.38-1.08c-.888-.984-1.86-1.524-3.408-1.524-1.824 0-3.108 1.152-3.108 2.592 0 1.776 1.464 2.196 2.772 2.472 1.212.276 2.052.444 2.052 1.26 0 .636-.492 1.092-1.44 1.092-1.044 0-1.824-.468-2.4-1.38L7.096 12.32c.828 1.056 1.98 1.8 3.864 1.8zm6.368.012c1.02 0 1.908-.456 2.376-1.128V14H21.3v-3.984c0-1.632-1.092-2.628-3-2.628-1.452 0-2.4.612-3.06 1.476l1.524.756c.3-.54.792-.852 1.524-.852.936 0 1.404.48 1.404 1.176v.084h-1.704c-1.8 0-2.916.828-2.916 2.172 0 1.14.84 1.932 2.256 1.932zm.48-1.368c-.684 0-1.008-.24-1.008-.708 0-.504.396-.816 1.38-.816h1.524v.348c-.324.696-1.104 1.176-1.896 1.176zM24.148 14h1.644l2.544-6.48H26.62l-1.608 4.368-1.596-4.368h-1.752L24.148 14zm4.98 0h1.692V7.52h-1.692V14zm-.215-8.304c0 .612.431 1.056 1.055 1.056.637 0 1.069-.444 1.069-1.056 0-.624-.432-1.08-1.069-1.08-.611 0-1.055.456-1.055 1.08zM32.14 14h1.668v-3.576c0-1.008.6-1.584 1.38-1.584.876 0 1.32.576 1.32 1.5V14H38.2v-3.912c0-1.692-.972-2.7-2.508-2.7-.804 0-1.476.36-1.896.948V7.52H32.14V14zm10.252.096c.84 0 1.584-.384 2.04-1.02v.492c0 1.02-.744 1.728-1.788 1.728-.852 0-1.332-.312-1.764-.876l-1.368 1.068c.732.852 1.704 1.284 3.18 1.284 1.992 0 3.396-1.368 3.396-3.252v-6h-1.656v.852c-.432-.6-1.152-.984-2.016-.984-1.656 0-3.144 1.308-3.144 3.36 0 2.052 1.524 3.348 3.12 3.348zm.324-1.536c-.996 0-1.8-.804-1.8-1.824 0-1.032.804-1.824 1.8-1.824 1.02 0 1.8.804 1.8 1.824s-.78 1.824-1.8 1.824zm7.25 1.572c1.884.012 2.784-1.128 2.784-2.136 0-1.392-1.272-1.764-2.352-1.98-.948-.204-1.476-.312-1.476-.72 0-.36.312-.624.96-.624.6 0 1.008.252 1.272.684l1.512-.612c-.6-.864-1.416-1.38-2.784-1.38-1.596-.012-2.652.936-2.652 2.028 0 1.368 1.212 1.704 2.304 1.932.828.168 1.524.276 1.524.744 0 .384-.36.708-1.032.708-.684 0-1.2-.3-1.488-.876l-1.596.624c.516 1.032 1.488 1.608 3.024 1.608z" fill="#fff"/><path d="M147.98 25h9.88v-2.68h-6.94c.08-1.34 1.56-2.2 3.16-3.18 1.86-1.12 3.84-2.38 3.84-4.74 0-2.36-1.8-4.2-4.88-4.2-2.48 0-4.34 1.3-5.32 3.28l2.5 1.22c.48-1.18 1.44-2.06 2.78-2.06 1.34 0 2.08.72 2.08 1.74 0 1.18-1.38 1.98-3 2.98-1.94 1.18-4.1 2.64-4.1 5.28V25zm11.135-1.48c0 1.02.7 1.76 1.74 1.76 1.02 0 1.74-.74 1.74-1.76s-.72-1.76-1.74-1.76-1.74.74-1.74 1.76zm10.397-1.02c-1.78 0-2.88-.98-2.88-4.58v-.6c0-3.44 1.16-4.44 2.9-4.44 1.7 0 2.86.9 2.86 4.44v.6c0 3.56-1.1 4.58-2.88 4.58zm0 2.7c3.34 0 5.72-1.88 5.72-7.24v-.68c0-5-2.46-7.08-5.72-7.08-3.2 0-5.7 2.02-5.7 7.08v.68c0 5.3 2.32 7.24 5.7 7.24zm12.857-2.7c-1.78 0-2.88-.98-2.88-4.58v-.6c0-3.44 1.16-4.44 2.9-4.44 1.7 0 2.86.9 2.86 4.44v.6c0 3.56-1.1 4.58-2.88 4.58zm0 2.7c3.34 0 5.72-1.88 5.72-7.24v-.68c0-5-2.46-7.08-5.72-7.08-3.2 0-5.7 2.02-5.7 7.08v.68c0 5.3 2.32 7.24 5.7 7.24zm9.417-11.42c0-.72.58-1.28 1.26-1.28.7 0 1.26.56 1.26 1.28 0 .7-.56 1.26-1.26 1.26-.68 0-1.26-.56-1.26-1.26zm6.18 7.84c0 2 1.6 3.6 3.58 3.6s3.58-1.6 3.58-3.6c0-1.96-1.6-3.58-3.58-3.58a3.59 3.59 0 00-3.58 3.58zm-8.7 3.38h3.52l12.54-14.6h-3.52L189.266 25zm11.04-3.38c0-.7.56-1.26 1.24-1.26.7 0 1.26.56 1.26 1.26 0 .72-.56 1.28-1.26 1.28-.68 0-1.24-.56-1.24-1.28zm-10.84-7.84c0 1.96 1.6 3.56 3.58 3.56s3.58-1.6 3.58-3.56c0-2-1.6-3.58-3.58-3.58s-3.58 1.58-3.58 3.58zm23.16 2.54l.76-1.28-2.7-1.12 2.7-1.12-.72-1.28-2.32 1.74.36-2.88h-1.48l.36 2.88-2.32-1.76-.74 1.26 2.68 1.16-2.68 1.12.72 1.28 2.34-1.76-.36 2.9h1.48l-.36-2.9 2.28 1.76zM81.852 16.09c1.341 0 2.43-.747 2.997-1.845l-.882-.468c-.378.792-1.107 1.35-2.124 1.35-1.359 0-2.385-1.08-2.385-2.412 0-1.35 1.026-2.43 2.394-2.43.927 0 1.647.486 2.052 1.242l.855-.531a3.369 3.369 0 00-2.907-1.656c-1.881 0-3.375 1.458-3.375 3.375 0 1.863 1.431 3.375 3.375 3.375zm6.2.009a2.52 2.52 0 002.53-2.529 2.52 2.52 0 00-2.53-2.529 2.52 2.52 0 00-2.529 2.529 2.52 2.52 0 002.53 2.529zm0-.909c-.882 0-1.556-.72-1.556-1.62 0-.9.675-1.62 1.556-1.62.873 0 1.566.72 1.566 1.62 0 .9-.683 1.62-1.566 1.62zm3.47.81h.972v-2.682c0-.873.567-1.422 1.305-1.422.81 0 1.242.531 1.242 1.359V16h.98v-2.817c0-1.332-.764-2.142-1.997-2.142-.675 0-1.215.306-1.548.774v-.675h-.954V16zm7.353.099c1.342.009 1.981-.828 1.981-1.539 0-1.008-.918-1.287-1.728-1.458-.739-.162-1.18-.252-1.18-.639 0-.342.289-.621.883-.621.522 0 .873.216 1.115.576l.838-.477c-.423-.576-1.044-.909-1.954-.909-1.142-.009-1.871.693-1.871 1.449 0 .99.873 1.26 1.691 1.431.64.135 1.233.234 1.233.657 0 .369-.332.684-.962.684-.604 0-1.018-.261-1.315-.72l-.872.495c.413.702 1.116 1.071 2.142 1.071zm4.752 0a1.83 1.83 0 001.521-.765V16h.954v-4.86h-.972v2.682c0 .864-.558 1.413-1.287 1.413-.819 0-1.233-.531-1.233-1.35V11.14h-.99v2.808c0 1.341.72 2.151 2.007 2.151zm3.601-.099h.972v-2.718c0-.918.441-1.386 1.161-1.386.738 0 1.071.45 1.071 1.188V16h.981v-2.763c0-.891.45-1.341 1.143-1.341.765 0 1.098.495 1.098 1.251V16h.999v-2.907c0-1.251-.621-2.052-1.953-2.052-.72 0-1.278.342-1.584.855-.261-.531-.774-.855-1.548-.855-.621 0-1.08.252-1.377.657v-.558h-.963V16zm10.928.099c1.053 0 1.755-.468 2.223-1.17l-.801-.477c-.288.468-.738.783-1.422.783-.891 0-1.503-.522-1.647-1.305h4.086v-.405c0-1.44-1.062-2.484-2.493-2.484-1.431 0-2.529 1.116-2.529 2.547 0 1.413 1.035 2.511 2.583 2.511zm-.054-4.203c.801 0 1.368.441 1.512 1.206h-3.069c.189-.702.783-1.206 1.557-1.206zM121.528 16h.972v-2.736c0-.873.441-1.215 1.134-1.215.279 0 .477.054.612.144l.378-.936c-.189-.117-.486-.189-.819-.189-.621 0-1.116.306-1.323.918v-.846h-.954V16zM78.666 26h.972v-4.968l2.124 2.889 2.196-2.952V26h.963v-6.57h-.927L81.78 22.4l-2.142-2.97h-.972V26zm9.712.099a2.52 2.52 0 002.529-2.529 2.52 2.52 0 00-2.53-2.529 2.52 2.52 0 00-2.528 2.529 2.52 2.52 0 002.529 2.529zm0-.909c-.882 0-1.557-.72-1.557-1.62 0-.9.675-1.62 1.557-1.62.873 0 1.566.72 1.566 1.62 0 .9-.684 1.62-1.566 1.62zm3.47.81h.971v-2.682c0-.873.567-1.422 1.305-1.422.81 0 1.242.531 1.242 1.359V26h.981v-2.817c0-1.332-.765-2.142-1.998-2.142-.675 0-1.215.306-1.548.774v-.675h-.954V26zm8 .099c1.054 0 1.756-.468 2.224-1.17l-.801-.477c-.288.468-.738.783-1.422.783-.891 0-1.503-.522-1.647-1.305h4.086v-.405c0-1.44-1.062-2.484-2.493-2.484-1.431 0-2.53 1.116-2.53 2.547 0 1.413 1.036 2.511 2.584 2.511zm-.053-4.203c.801 0 1.368.441 1.512 1.206h-3.07c.19-.702.784-1.206 1.558-1.206zm3.611 5.904c.936 0 1.44-.405 1.926-1.557l2.169-5.103h-1.035l-1.395 3.483-1.458-3.483h-1.044l1.998 4.626-.09.207c-.315.693-.576.9-1.08.9a.867.867 0 01-.648-.279l-.576.819c.315.234.774.387 1.233.387zM110.5 26h.972v-4.968l2.124 2.889 2.196-2.952V26h.963v-6.57h-.927l-2.214 2.97-2.142-2.97h-.972V26zm8.892.099c.81 0 1.521-.378 1.908-.954V26h.936v-3.006c0-1.179-.792-1.953-2.187-1.953-1.044 0-1.791.468-2.268 1.107l.864.504c.279-.477.756-.783 1.395-.783.864 0 1.26.45 1.26 1.098v.081h-1.44c-1.359 0-2.187.612-2.187 1.611 0 .819.594 1.44 1.719 1.44zm.207-.846c-.648 0-.936-.252-.936-.675 0-.477.36-.756 1.26-.756h1.377v.405c-.315.639-1.008 1.026-1.701 1.026zm3.73.747h.972v-2.736c0-.873.441-1.215 1.134-1.215.279 0 .477.054.612.144l.378-.936c-.189-.117-.486-.189-.819-.189-.621 0-1.116.306-1.323.918v-.846h-.954V26zm7.243 0h1.143l-1.989-2.817 1.881-2.043h-1.188l-2.268 2.484v-4.716h-.963V26h.963v-1.26l.873-.945L130.572 26zm3.712.099c1.053 0 1.755-.468 2.223-1.17l-.801-.477c-.288.468-.738.783-1.422.783-.891 0-1.503-.522-1.647-1.305h4.086v-.405c0-1.44-1.062-2.484-2.493-2.484-1.431 0-2.529 1.116-2.529 2.547 0 1.413 1.035 2.511 2.583 2.511zm-.054-4.203c.801 0 1.368.441 1.512 1.206h-3.069c.189-.702.783-1.206 1.557-1.206zm2.881.117h.963v2.403c0 1.197.558 1.674 1.521 1.674.405 0 .747-.108 1.026-.297l-.459-.81a.7.7 0 01-.495.189c-.378 0-.639-.234-.639-.765v-2.394h1.359v-.873h-1.359v-1.674l-.954.621v1.053h-.963v.873zM78.198 36h1.026l.522-1.404h2.97L83.247 36h1.017l-2.538-6.57h-.99L78.198 36zm3.033-5.346l1.134 3.006h-2.268l1.134-3.006zm5.89 5.445c1.125 0 1.935-.63 2.322-1.53l-.882-.369c-.234.558-.738.99-1.43.99-.91 0-1.603-.729-1.603-1.62 0-.9.675-1.62 1.584-1.62.657 0 1.18.36 1.431.954l.873-.378c-.369-.873-1.233-1.485-2.304-1.485-1.422 0-2.538 1.098-2.538 2.529 0 1.404 1.098 2.529 2.547 2.529zm5.476 0c1.125 0 1.935-.63 2.322-1.53l-.882-.369c-.234.558-.738.99-1.431.99-.91 0-1.602-.729-1.602-1.62 0-.9.675-1.62 1.584-1.62.657 0 1.179.36 1.43.954l.874-.378c-.37-.873-1.233-1.485-2.304-1.485-1.422 0-2.538 1.098-2.538 2.529 0 1.404 1.098 2.529 2.547 2.529zm5.458 0a2.52 2.52 0 002.528-2.529 2.52 2.52 0 00-2.528-2.529 2.52 2.52 0 00-2.53 2.529 2.52 2.52 0 002.53 2.529zm0-.909c-.883 0-1.558-.72-1.558-1.62 0-.9.675-1.62 1.558-1.62.872 0 1.566.72 1.566 1.62 0 .9-.684 1.62-1.566 1.62zm5.449.909a1.83 1.83 0 001.521-.765V36h.954v-4.86h-.972v2.682c0 .864-.558 1.413-1.287 1.413-.819 0-1.233-.531-1.233-1.35V31.14h-.99v2.808c0 1.341.72 2.151 2.007 2.151zm3.601-.099h.972v-2.682c0-.873.567-1.422 1.305-1.422.81 0 1.242.531 1.242 1.359V36h.981v-2.817c0-1.332-.765-2.142-1.998-2.142-.675 0-1.215.306-1.548.774v-.675h-.954V36zm5.08-3.987h.963v2.403c0 1.197.558 1.674 1.521 1.674.405 0 .747-.108 1.026-.297l-.459-.81a.7.7 0 01-.495.189c-.378 0-.639-.234-.639-.765v-2.394h1.359v-.873h-1.359v-1.674l-.954.621v1.053h-.963v.873zM206.11 25h.57l.29-.78h1.65l.295.78h.565l-1.41-3.65h-.55L206.11 25zm1.685-2.97l.63 1.67h-1.26l.63-1.67zm2.164 2.97h.545v-1.07h.865c.79 0 1.34-.57 1.34-1.29 0-.725-.55-1.29-1.33-1.29h-1.42V25zm1.375-3.15c.51 0 .83.34.83.79 0 .445-.32.785-.83.785h-.83V21.85h.83zm2.838 3.15h.54v-1.535l1.295-2.115h-.6l-.96 1.595-.955-1.595h-.61l1.29 2.11V25z" fill="#193526"/></svg>