<svg width="28" height="11" viewBox="0 0 28 11" fill="none" xmlns="http://www.w3.org/2000/svg"><path d="M2.976 10h1.668V2.8h2.412V1.24H.54V2.8h2.436V10zm5.207 0h1.644V6.424c0-1.008.6-1.584 1.38-1.584.876 0 1.32.576 1.32 1.5V10h1.704V6.088c0-1.692-.984-2.7-2.52-2.7-.792 0-1.452.348-1.884.924V.544H8.183V10zm9.329.132c1.02 0 1.908-.456 2.376-1.128V10h1.596V6.016c0-1.632-1.092-2.628-3-2.628-1.452 0-2.4.612-3.06 1.476l1.524.756c.3-.54.792-.852 1.524-.852.936 0 1.404.48 1.404 1.176v.084h-1.704c-1.8 0-2.916.828-2.916 2.172 0 1.14.84 1.932 2.256 1.932zm.48-1.368c-.684 0-1.008-.24-1.008-.708 0-.504.396-.816 1.38-.816h1.524v.348c-.324.696-1.104 1.176-1.896 1.176zm4.187-3.78h1.2v2.724c0 1.764.792 2.412 2.148 2.412.6 0 1.128-.18 1.548-.492l-.756-1.296c-.192.168-.372.24-.6.24-.42 0-.708-.24-.708-.924V4.984h1.704V3.52H25.01V1.156l-1.632.96V3.52h-1.2v1.464z" fill="#fff"/></svg>