<svg width="43" height="6" viewBox="0 0 43 6" fill="none" xmlns="http://www.w3.org/2000/svg"><path d="M.715 5h.336V1.196L2.737 3.5 4.49 1.154V5h.336V.62h-.33L2.743 2.954 1.057.62H.715V5zm6.71.066c.713 0 1.175-.294 1.53-.864l-.307-.168c-.252.474-.648.72-1.23.72-.768 0-1.314-.522-1.368-1.236h3.006v-.174c0-.966-.696-1.65-1.632-1.65-.99 0-1.704.744-1.704 1.704 0 .954.654 1.668 1.704 1.668zm0-3.06c.725 0 1.217.486 1.277 1.194h-2.64a1.351 1.351 0 011.362-1.194zM9.906 5h.336V3.164c0-.696.48-1.158 1.122-1.158.654 0 1.068.414 1.068 1.038V5h.336V3.11c0-.678.498-1.104 1.116-1.104.678 0 1.116.462 1.116 1.092V5h.336V3.122c0-.852-.54-1.428-1.446-1.428-.606 0-1.08.324-1.266.786-.168-.474-.594-.786-1.236-.786-.546 0-.954.27-1.158.666v-.6h-.324V5zm8.054.066c.99 0 1.68-.714 1.68-1.686 0-.954-.726-1.686-1.668-1.686-.504 0-1.056.27-1.32.75V.272h-.33V5h.324v-.69c.264.486.816.756 1.314.756zm0-.324a1.34 1.34 0 01-1.35-1.362c0-.75.582-1.368 1.35-1.368.756 0 1.326.594 1.326 1.368 0 .798-.57 1.362-1.326 1.362zm4.106.324c.714 0 1.176-.294 1.53-.864l-.306-.168c-.252.474-.648.72-1.23.72-.768 0-1.314-.522-1.368-1.236h3.006v-.174c0-.966-.696-1.65-1.632-1.65-.99 0-1.704.744-1.704 1.704 0 .954.654 1.668 1.704 1.668zm0-3.06c.726 0 1.218.486 1.278 1.194h-2.64a1.351 1.351 0 011.362-1.194zM24.55 5h.33V3.272c0-.84.324-1.242.942-1.242a.68.68 0 01.384.108l.162-.312a1.12 1.12 0 00-.534-.114c-.51 0-.834.246-.972.696V1.76h-.312V5zm4.08 0h.347V3.092h2.424v-.33h-2.424V.95h2.424V.62H28.63V5zm3.662 0h1.301c1.272 0 2.256-.942 2.256-2.19 0-1.242-.947-2.19-2.267-2.19h-1.29V5zM33.556.938c1.146 0 1.938.81 1.938 1.872s-.828 1.866-1.925 1.866h-.93V.938h.917zM36.892 5h.342V.62h-.342V5zm3.635.06c.882 0 1.608-.474 1.992-1.182l-.306-.156a1.856 1.856 0 01-1.686 1.008c-1.068 0-1.896-.864-1.896-1.92S39.459.884 40.527.884c.708 0 1.308.39 1.632.954l.3-.174A2.25 2.25 0 0040.527.56a2.25 2.25 0 000 4.5z" fill="#193526"/></svg>