<svg width="63" height="28" viewBox="0 0 63 28" fill="none" xmlns="http://www.w3.org/2000/svg"><path d="M3.852 7.09c1.341 0 2.43-.747 2.997-1.845l-.882-.468c-.378.792-1.107 1.35-2.124 1.35-1.359 0-2.385-1.08-2.385-2.412 0-1.35 1.026-2.43 2.394-2.43.927 0 1.647.486 2.052 1.242l.855-.531A3.369 3.369 0 003.852.34C1.971.34.477 1.798.477 3.715c0 1.863 1.431 3.375 3.375 3.375zm6.2.009a2.52 2.52 0 002.53-2.529 2.52 2.52 0 00-2.53-2.529A2.52 2.52 0 007.524 4.57a2.52 2.52 0 002.529 2.529zm0-.909c-.881 0-1.556-.72-1.556-1.62 0-.9.675-1.62 1.556-1.62.873 0 1.566.72 1.566 1.62 0 .9-.684 1.62-1.566 1.62zm3.47.81h.972V4.318c0-.873.567-1.422 1.305-1.422.81 0 1.242.531 1.242 1.359V7h.98V4.183c0-1.332-.764-2.142-1.997-2.142-.675 0-1.215.306-1.548.774V2.14h-.954V7zm7.353.099c1.341.009 1.98-.828 1.98-1.539 0-1.008-.918-1.287-1.727-1.458-.738-.162-1.18-.252-1.18-.639 0-.342.288-.621.883-.621.521 0 .872.216 1.116.576l.837-.477c-.424-.576-1.044-.909-1.953-.909-1.143-.009-1.872.693-1.872 1.449 0 .99.872 1.26 1.692 1.431.639.135 1.233.234 1.233.657 0 .369-.334.684-.963.684-.604 0-1.017-.261-1.314-.72l-.873.495c.413.702 1.115 1.071 2.141 1.071zm4.752 0a1.83 1.83 0 001.521-.765V7h.954V2.14h-.972v2.682c0 .864-.558 1.413-1.287 1.413-.819 0-1.233-.531-1.233-1.35V2.14h-.99v2.808c0 1.341.72 2.151 2.007 2.151zm3.6-.099h.973V4.282c0-.918.44-1.386 1.16-1.386.739 0 1.072.45 1.072 1.188V7h.98V4.237c0-.891.45-1.341 1.144-1.341.765 0 1.098.495 1.098 1.251V7h.999V4.093c0-1.251-.621-2.052-1.953-2.052-.72 0-1.278.342-1.584.855-.261-.531-.774-.855-1.548-.855-.621 0-1.08.252-1.377.657V2.14h-.963V7zm10.93.099c1.052 0 1.754-.468 2.222-1.17l-.8-.477c-.289.468-.739.783-1.423.783-.89 0-1.503-.522-1.647-1.305h4.086v-.405c0-1.44-1.062-2.484-2.493-2.484-1.43 0-2.529 1.116-2.529 2.547 0 1.413 1.035 2.511 2.583 2.511zm-.055-4.203c.801 0 1.368.441 1.512 1.206h-3.069c.19-.702.783-1.206 1.557-1.206zM43.528 7h.971V4.264c0-.873.441-1.215 1.134-1.215.28 0 .477.054.612.144l.379-.936c-.19-.117-.486-.189-.82-.189-.62 0-1.116.306-1.323.918V2.14h-.953V7zM.666 17h.972v-4.968l2.124 2.889 2.196-2.952V17h.963v-6.57h-.927L3.78 13.4l-2.142-2.97H.666V17zm9.712.099a2.52 2.52 0 002.529-2.529 2.52 2.52 0 00-2.53-2.529A2.52 2.52 0 007.85 14.57a2.52 2.52 0 002.529 2.529zm0-.909c-.882 0-1.557-.72-1.557-1.62 0-.9.675-1.62 1.557-1.62.873 0 1.566.72 1.566 1.62 0 .9-.684 1.62-1.566 1.62zm3.47.81h.971v-2.682c0-.873.567-1.422 1.305-1.422.81 0 1.242.531 1.242 1.359V17h.981v-2.817c0-1.332-.765-2.142-1.998-2.142-.675 0-1.215.306-1.548.774v-.675h-.954V17zm8 .099c1.054 0 1.756-.468 2.224-1.17l-.801-.477c-.288.468-.738.783-1.422.783-.891 0-1.503-.522-1.647-1.305h4.086v-.405c0-1.44-1.062-2.484-2.493-2.484-1.431 0-2.53 1.116-2.53 2.547 0 1.413 1.036 2.511 2.584 2.511zm-.053-4.203c.8 0 1.368.441 1.512 1.206h-3.07c.19-.702.784-1.206 1.558-1.206zm3.611 5.904c.936 0 1.44-.405 1.926-1.557l2.17-5.103h-1.036l-1.395 3.483-1.458-3.483H24.57l1.998 4.626-.09.207c-.315.693-.576.9-1.08.9a.867.867 0 01-.648-.279l-.576.819c.315.234.774.387 1.233.387zM32.5 17h.972v-4.968l2.124 2.889 2.196-2.952V17h.963v-6.57h-.927l-2.214 2.97-2.142-2.97H32.5V17zm8.892.099c.81 0 1.521-.378 1.908-.954V17h.937v-3.006c0-1.179-.793-1.953-2.188-1.953-1.044 0-1.79.468-2.267 1.107l.864.504c.279-.477.755-.783 1.395-.783.864 0 1.26.45 1.26 1.098v.081h-1.44c-1.36 0-2.188.612-2.188 1.611 0 .819.594 1.44 1.72 1.44zm.207-.846c-.647 0-.935-.252-.935-.675 0-.477.36-.756 1.26-.756H43.3v.405c-.316.639-1.009 1.026-1.702 1.026zm3.73.747h.972v-2.736c0-.873.441-1.215 1.134-1.215.28 0 .477.054.612.144l.378-.936c-.189-.117-.486-.189-.819-.189-.62 0-1.116.306-1.323.918v-.846h-.954V17zm7.243 0h1.143l-1.99-2.817 1.882-2.043h-1.188l-2.268 2.484V9.908h-.963V17h.963v-1.26l.873-.945L52.572 17zm3.712.099c1.053 0 1.755-.468 2.223-1.17l-.8-.477c-.289.468-.739.783-1.423.783-.89 0-1.503-.522-1.647-1.305h4.086v-.405c0-1.44-1.062-2.484-2.493-2.484-1.43 0-2.529 1.116-2.529 2.547 0 1.413 1.035 2.511 2.583 2.511zm-.054-4.203c.801 0 1.368.441 1.512 1.206h-3.069c.19-.702.783-1.206 1.557-1.206zm2.881.117h.963v2.403c0 1.197.558 1.674 1.521 1.674.405 0 .747-.108 1.026-.297l-.459-.81a.7.7 0 01-.495.189c-.378 0-.639-.234-.639-.765v-2.394h1.36v-.873h-1.36v-1.674l-.954.621v1.053h-.963v.873zM.198 27h1.026l.522-1.404h2.97L5.247 27h1.017l-2.538-6.57h-.99L.198 27zm3.033-5.346l1.134 3.006H2.097l1.134-3.006zm5.89 5.445c1.125 0 1.935-.63 2.322-1.53l-.882-.369c-.234.558-.738.99-1.43.99-.91 0-1.603-.729-1.603-1.62 0-.9.675-1.62 1.584-1.62.657 0 1.18.36 1.431.954l.873-.378c-.369-.873-1.233-1.485-2.304-1.485-1.422 0-2.538 1.098-2.538 2.529 0 1.404 1.098 2.529 2.547 2.529zm5.476 0c1.125 0 1.935-.63 2.322-1.53l-.882-.369c-.234.558-.738.99-1.431.99-.91 0-1.602-.729-1.602-1.62 0-.9.675-1.62 1.584-1.62.657 0 1.179.36 1.43.954l.874-.378c-.37-.873-1.233-1.485-2.304-1.485-1.422 0-2.538 1.098-2.538 2.529 0 1.404 1.098 2.529 2.547 2.529zm5.458 0a2.52 2.52 0 002.529-2.529 2.52 2.52 0 00-2.53-2.529 2.52 2.52 0 00-2.528 2.529 2.52 2.52 0 002.529 2.529zm0-.909c-.883 0-1.558-.72-1.558-1.62 0-.9.675-1.62 1.558-1.62.872 0 1.566.72 1.566 1.62 0 .9-.684 1.62-1.566 1.62zm5.45.909a1.83 1.83 0 001.52-.765V27h.954v-4.86h-.972v2.682c0 .864-.558 1.413-1.287 1.413-.819 0-1.233-.531-1.233-1.35V22.14h-.99v2.808c0 1.341.72 2.151 2.007 2.151zm3.6-.099h.972v-2.682c0-.873.567-1.422 1.305-1.422.81 0 1.242.531 1.242 1.359V27h.98v-2.817c0-1.332-.764-2.142-1.997-2.142-.675 0-1.215.306-1.548.774v-.675h-.954V27zm5.08-3.987h.963v2.403c0 1.197.558 1.674 1.521 1.674.405 0 .747-.108 1.026-.297l-.459-.81a.7.7 0 01-.495.189c-.378 0-.639-.234-.639-.765v-2.394h1.36v-.873h-1.36v-1.674l-.954.621v1.053h-.963v.873z" fill="#193526"/></svg>