<svg width="68" height="19" viewBox="0 0 68 19" fill="none" xmlns="http://www.w3.org/2000/svg"><rect x="3.013" width="63.266" height="13" rx="6.5" fill="#ED4536"/><path d="M14.846 9h3.353v-.959h-2.36V3.89h-.993V9zm5.757.077c.833 0 1.365-.343 1.743-.875l-.79-.462c-.19.308-.49.504-.939.504-.56 0-.959-.308-1.085-.798h3.003v-.364c0-1.12-.819-1.939-1.953-1.939a1.951 1.951 0 00-1.98 1.974c0 1.099.783 1.96 2.001 1.96zm-.02-3.115c.503 0 .867.259.993.728H19.56a1.05 1.05 0 011.022-.728zm3.702 3.115c.595 0 1.113-.266 1.386-.658V9h.931V6.676c0-.952-.637-1.533-1.75-1.533-.847 0-1.4.357-1.785.861l.89.441c.174-.315.461-.497.888-.497.546 0 .82.28.82.686v.049h-.995c-1.05 0-1.7.483-1.7 1.267 0 .665.49 1.127 1.315 1.127zm.28-.798c-.399 0-.588-.14-.588-.413 0-.294.231-.476.805-.476h.89v.203c-.19.406-.645.686-1.107.686zM27.347 9h.96V7.005c0-.637.321-.889.818-.889.217 0 .4.056.504.133l.35-.952a1.403 1.403 0 00-.637-.147c-.483 0-.86.203-1.043.651V5.22h-.952V9zm3.131 0h.973V6.914c0-.588.35-.924.805-.924.511 0 .77.336.77.875V9h.987V6.718c0-.987-.567-1.575-1.463-1.575-.469 0-.86.21-1.106.553V5.22h-.966V9zm5.99 0h.98V5.451l1.491 2.023 1.533-2.058V9h.966V3.89h-.917l-1.575 2.107-1.519-2.107h-.959V9zm7.61.077c1.14 0 2.002-.882 2.002-1.967 0-1.092-.875-1.967-2.002-1.967-1.134 0-1.995.875-1.995 1.967 0 1.085.86 1.967 1.995 1.967zm.007-.917a1.038 1.038 0 01-1.036-1.057c0-.588.455-1.057 1.036-1.057.574 0 1.036.469 1.036 1.057s-.462 1.057-1.036 1.057zm2.628.84h.96V7.005c0-.637.321-.889.818-.889.217 0 .4.056.504.133l.35-.952a1.403 1.403 0 00-.637-.147c-.483 0-.86.203-1.043.651V5.22h-.952V9zm4.7.077c.833 0 1.365-.343 1.743-.875l-.791-.462c-.19.308-.49.504-.938.504-.56 0-.96-.308-1.085-.798h3.003v-.364c0-1.12-.82-1.939-1.953-1.939a1.951 1.951 0 00-1.981 1.974c0 1.099.784 1.96 2.002 1.96zm-.021-3.115c.504 0 .868.259.994.728H50.37a1.05 1.05 0 011.022-.728z" fill="#fff"/></svg>