<svg width="70" height="27" viewBox="0 0 70 27" fill="none" xmlns="http://www.w3.org/2000/svg"><path d="M.98 20h9.88v-2.68H3.92c.08-1.34 1.56-2.2 3.16-3.18 1.86-1.12 3.84-2.38 3.84-4.74 0-2.36-1.8-4.2-4.88-4.2C3.56 5.2 1.7 6.5.72 8.48l2.5 1.22C3.7 8.52 4.66 7.64 6 7.64c1.34 0 2.08.72 2.08 1.74 0 1.18-1.38 1.98-3 2.98C3.14 13.54.98 15 .98 17.64V20zm11.134-1.48c0 1.02.7 1.76 1.74 1.76 1.02 0 1.74-.74 1.74-1.76s-.72-1.76-1.74-1.76-1.74.74-1.74 1.76zm10.398-1.02c-1.78 0-2.88-.98-2.88-4.58v-.6c0-3.44 1.16-4.44 2.9-4.44 1.7 0 2.86.9 2.86 4.44v.6c0 3.56-1.1 4.58-2.88 4.58zm0 2.7c3.34 0 5.72-1.88 5.72-7.24v-.68c0-5-2.46-7.08-5.72-7.08-3.2 0-5.7 2.02-5.7 7.08v.68c0 5.3 2.32 7.24 5.7 7.24zm12.857-2.7c-1.78 0-2.88-.98-2.88-4.58v-.6c0-3.44 1.16-4.44 2.9-4.44 1.7 0 2.86.9 2.86 4.44v.6c0 3.56-1.1 4.58-2.88 4.58zm0 2.7c3.34 0 5.72-1.88 5.72-7.24v-.68c0-5-2.46-7.08-5.72-7.08-3.2 0-5.7 2.02-5.7 7.08v.68c0 5.3 2.32 7.24 5.7 7.24zm9.417-11.42c0-.72.58-1.28 1.26-1.28.7 0 1.26.56 1.26 1.28 0 .7-.56 1.26-1.26 1.26-.68 0-1.26-.56-1.26-1.26zm6.18 7.84c0 2 1.6 3.6 3.58 3.6s3.58-1.6 3.58-3.6c0-1.96-1.6-3.58-3.58-3.58a3.59 3.59 0 00-3.58 3.58zm-8.7 3.38h3.52l12.54-14.6h-3.52L42.266 20zm11.04-3.38c0-.7.56-1.26 1.24-1.26.7 0 1.26.56 1.26 1.26 0 .72-.56 1.28-1.26 1.28-.68 0-1.24-.56-1.24-1.28zm-10.84-7.84c0 1.96 1.6 3.56 3.58 3.56s3.58-1.6 3.58-3.56c0-2-1.6-3.58-3.58-3.58s-3.58 1.58-3.58 3.58zm23.16 2.54l.76-1.28-2.7-1.12 2.7-1.12-.72-1.28-2.32 1.74.36-2.88h-1.48l.36 2.88-2.32-1.76-.74 1.26 2.68 1.16-2.68 1.12.72 1.28 2.34-1.76-.36 2.9h1.48l-.36-2.9 2.28 1.76zM59.11 20h.57l.29-.78h1.65l.295.78h.565l-1.41-3.65h-.55L59.11 20zm1.685-2.97l.63 1.67h-1.26l.63-1.67zM62.959 20h.545v-1.07h.865c.79 0 1.34-.57 1.34-1.29 0-.725-.55-1.29-1.33-1.29h-1.42V20zm1.375-3.15c.51 0 .83.34.83.79 0 .445-.32.785-.83.785h-.83V16.85h.83zM67.172 20h.54v-1.535l1.295-2.115h-.6l-.96 1.595-.955-1.595h-.61l1.29 2.11V20z" fill="#193526"/></svg>