<svg width="164" height="38" viewBox="0 0 164 38" fill="none" xmlns="http://www.w3.org/2000/svg"><path d="M14 37.5c8.25 0 13.25-4.85 13.25-11.2 0-3.9-2-6.65-5.2-8.3 2.65-1.75 4.3-4.45 4.3-7.8C26.35 4.1 21.6 0 13.75 0c-5.6 0-10 2.45-12.65 6.5L6.95 10c1.4-2.55 3.55-4 6.85-4 3.75 0 5.55 2 5.55 4.4 0 2.7-2 4.75-5.85 4.75H9.75v6.35h4.05c3.8 0 6.35 1.75 6.35 4.65 0 3.05-2.55 4.95-6.15 4.95-3.35 0-5.9-1.25-7.7-4.2L.4 31.25c3.15 4.2 7.15 6.25 13.6 6.25zm17.493-4.2c0 2.55 1.75 4.4 4.35 4.4 2.55 0 4.35-1.85 4.35-4.4 0-2.55-1.8-4.4-4.35-4.4s-4.35 1.85-4.35 4.4zM47.487 37h7.55l13.25-30.35V.5h-24v6.6h16.65L47.487 37zm37.136.5c7.65 0 12.9-5.1 12.9-12.3 0-8.1-5.2-12.55-12.05-12.55-2.65 0-4.8.9-6.3 2.1l1.25-7.7h14.7V.5h-20.15l-2.95 19.55 6.55 2.65c1.15-2.05 3.05-3.65 5.9-3.65 3.5 0 5.9 2.45 5.9 6 0 3.4-2.5 5.9-5.75 5.9-3.1 0-5.15-1.8-6.15-4.1l-6.85 3.85c2.5 4.05 6.85 6.8 13 6.8zm23.089-28.55c0-1.8 1.45-3.2 3.15-3.2 1.75 0 3.15 1.4 3.15 3.2 0 1.75-1.4 3.15-3.15 3.15-1.7 0-3.15-1.4-3.15-3.15zm15.45 19.6c0 5 4 9 8.95 9 4.95 0 8.95-4 8.95-9 0-4.9-4-8.95-8.95-8.95-4.95 0-8.95 4.05-8.95 8.95zM101.412 37h8.8L141.562.5h-8.8L101.412 37zm27.6-8.45c0-1.75 1.4-3.15 3.1-3.15 1.75 0 3.15 1.4 3.15 3.15 0 1.8-1.4 3.2-3.15 3.2-1.7 0-3.1-1.4-3.1-3.2zm-27.1-19.6c0 4.9 4 8.9 8.95 8.9 4.95 0 8.95-4 8.95-8.9 0-5-4-8.95-8.95-8.95a8.91 8.91 0 00-8.95 8.95zm59.399 6.35l1.9-3.2-6.75-2.8 6.75-2.8-1.8-3.2-5.8 4.35.9-7.2h-3.7l.9 7.2-5.8-4.4-1.85 3.15 6.7 2.9-6.7 2.8 1.8 3.2 5.85-4.4-.9 7.25h3.7l-.9-7.25 5.7 4.4z" fill="#193526"/></svg>