<svg width="80" height="41" viewBox="0 0 80 41" fill="none" xmlns="http://www.w3.org/2000/svg"><path d="M6.74 16.2c3.32 0 5.16-2.12 5.16-4.36 0-3.18-2.56-3.84-4.86-4.32-1.9-.4-3.62-.68-3.62-2.16 0-1.26.82-2.18 2.78-2.18 1.9 0 2.9.78 3.76 1.94l1.8-1.42C10.34 2.1 8.7 1.2 6.2 1.2c-2.94 0-5.02 1.9-5.02 4.18 0 2.92 2.4 3.52 4.66 3.98 1.96.42 3.82.76 3.82 2.5 0 1.32-1.02 2.28-2.98 2.28-1.84 0-3.32-.8-4.38-2.52l-1.9 1.5C1.78 15 3.7 16.2 6.74 16.2zm13.113.02c2.8 0 5.4-2.24 5.4-5.62 0-3.4-2.54-5.62-5.4-5.62-1.48 0-2.9.7-3.72 1.82V5.2h-2.1v15.12h2.1v-5.76c.8 1.08 2.2 1.66 3.72 1.66zm-.3-1.98c-2.04 0-3.56-1.64-3.56-3.66 0-2 1.52-3.64 3.56-3.64 2 0 3.54 1.6 3.54 3.64s-1.54 3.66-3.54 3.66zm13.12 1.98c2.34 0 3.9-1.04 4.94-2.6l-1.78-1.06c-.64 1.04-1.64 1.74-3.16 1.74-1.98 0-3.34-1.16-3.66-2.9h9.08v-.9c0-3.2-2.36-5.52-5.54-5.52s-5.62 2.48-5.62 5.66c0 3.14 2.3 5.58 5.74 5.58zm-.12-9.34c1.78 0 3.04.98 3.36 2.68h-6.82c.42-1.56 1.74-2.68 3.46-2.68zm12.892 9.34c2.5 0 4.3-1.4 5.16-3.4l-1.96-.82c-.52 1.24-1.64 2.2-3.18 2.2-2.02 0-3.56-1.62-3.56-3.6 0-2 1.5-3.6 3.52-3.6 1.46 0 2.62.8 3.18 2.12l1.94-.84c-.82-1.94-2.74-3.3-5.12-3.3-3.16 0-5.64 2.44-5.64 5.62 0 3.12 2.44 5.62 5.66 5.62zM52.53 16h2.18V5.2h-2.18V16zm-.44-14.04c0 .88.62 1.54 1.52 1.54s1.54-.66 1.54-1.54S54.51.42 53.61.42c-.88 0-1.52.66-1.52 1.54zm8.449 14.26c1.8 0 3.38-.84 4.24-2.12V16h2.08V9.32c0-2.62-1.76-4.34-4.86-4.34-2.32 0-3.98 1.04-5.04 2.46l1.92 1.12c.62-1.06 1.68-1.74 3.1-1.74 1.92 0 2.8 1 2.8 2.44v.18h-3.2c-3.02 0-4.86 1.36-4.86 3.58 0 1.82 1.32 3.2 3.82 3.2zm.46-1.88c-1.44 0-2.08-.56-2.08-1.5 0-1.06.8-1.68 2.8-1.68h3.06v.9c-.7 1.42-2.24 2.28-3.78 2.28zM69.306 16h2.18V.24h-2.18V16zM1.48 40h2.16v-4.82h3.92L10.2 40h2.48l-3.1-5.4c1.8-.76 2.82-2.5 2.82-4.32 0-2.82-2.06-4.88-5.24-4.88H1.48V40zm5.5-12.58c2.14 0 3.24 1.14 3.24 2.8 0 1.54-1.02 2.96-3.24 2.96H3.64v-5.76h3.34zm10.706 12.8c1.8 0 3.38-.84 4.24-2.12V40h2.08v-6.68c0-2.62-1.76-4.34-4.86-4.34-2.32 0-3.98 1.04-5.04 2.46l1.92 1.12c.62-1.06 1.68-1.74 3.1-1.74 1.92 0 2.8 1 2.8 2.44v.18h-3.2c-3.02 0-4.86 1.36-4.86 3.58 0 1.82 1.32 3.2 3.82 3.2zm.46-1.88c-1.44 0-2.08-.56-2.08-1.5 0-1.06.8-1.68 2.8-1.68h3.06v.9c-.7 1.42-2.24 2.28-3.78 2.28zm7.196-7.2h2.14v5.34c0 2.66 1.24 3.72 3.38 3.72.9 0 1.66-.24 2.28-.66l-1.02-1.8c-.34.3-.68.42-1.1.42-.84 0-1.42-.52-1.42-1.7v-5.32h3.02V29.2h-3.02v-3.72l-2.12 1.38v2.34h-2.14v1.94zm13.992 9.08c2.34 0 3.9-1.04 4.94-2.6l-1.78-1.06c-.64 1.04-1.64 1.74-3.16 1.74-1.98 0-3.34-1.16-3.66-2.9h9.08v-.9c0-3.2-2.36-5.52-5.54-5.52s-5.62 2.48-5.62 5.66c0 3.14 2.3 5.58 5.74 5.58zm-.12-9.34c1.78 0 3.04.98 3.36 2.68h-6.82c.42-1.56 1.74-2.68 3.46-2.68zM58.97 40.2c2.98 0 5.4-1.66 6.66-4.1l-1.96-1.04c-.84 1.76-2.46 3-4.72 3-3.02 0-5.3-2.4-5.3-5.36 0-3 2.28-5.4 5.32-5.4 2.06 0 3.66 1.08 4.56 2.76l1.9-1.18c-1.3-2.2-3.7-3.68-6.46-3.68-4.18 0-7.5 3.24-7.5 7.5 0 4.14 3.18 7.5 7.5 7.5zm8.858-.2h4.32c4.38 0 7.58-3.14 7.58-7.3 0-4.14-2.92-7.3-7.66-7.3h-4.24V40zm4.02-12.6c3.66 0 5.68 2.24 5.68 5.3 0 3-2.24 5.28-5.6 5.28h-1.92V27.4h1.84z" fill="#193526"/></svg>