<svg width="509" height="90" viewBox="0 0 509 90" fill="none" xmlns="http://www.w3.org/2000/svg"><path fill="#193526" d="M0 0h486v90H0z"/><circle cx="256" cy="45" r="45" fill="#D9D9D9"/><path fill="#D9D9D9" d="M211 0h90v44h-90z"/><path fill="#D9D9D9" d="M256 0h245v90H256z"/><path d="M32.58 39.26c4.238 0 6.968-2.704 6.968-5.954 0-4.108-3.354-5.044-6.266-5.668-2.366-.546-4.264-.832-4.264-2.366 0-1.248.884-2.262 2.938-2.262 2.184 0 3.458.91 4.446 2.366l2.99-2.34c-1.924-2.132-4.03-3.302-7.384-3.302-3.952 0-6.734 2.496-6.734 5.616 0 3.848 3.172 4.758 6.006 5.356 2.626.598 4.446.962 4.446 2.73 0 1.378-1.066 2.366-3.12 2.366-2.262 0-3.952-1.014-5.2-2.99l-3.198 2.548c1.794 2.288 4.29 3.9 8.372 3.9zm13.798.026c2.21 0 4.134-.988 5.148-2.444V39h3.458v-8.632c0-3.536-2.366-5.694-6.5-5.694-3.146 0-5.2 1.326-6.63 3.198l3.302 1.638c.65-1.17 1.716-1.846 3.302-1.846 2.028 0 3.042 1.04 3.042 2.548v.182h-3.692c-3.9 0-6.318 1.794-6.318 4.706 0 2.47 1.82 4.186 4.888 4.186zm1.04-2.964c-1.482 0-2.184-.52-2.184-1.534 0-1.092.858-1.768 2.99-1.768h3.302v.754c-.702 1.508-2.392 2.548-4.108 2.548zM61.154 39h3.562l5.512-14.04H66.51l-3.484 9.464-3.458-9.464h-3.796L61.154 39zm10.791 0h3.666V24.96h-3.666V39zm-.468-17.992c0 1.326.936 2.288 2.288 2.288 1.378 0 2.314-.962 2.314-2.288 0-1.352-.936-2.34-2.314-2.34-1.326 0-2.288.988-2.288 2.34zM78.47 39h3.614v-7.748c0-2.184 1.3-3.432 2.99-3.432 1.898 0 2.86 1.248 2.86 3.25V39H91.6v-8.476c0-3.666-2.106-5.85-5.434-5.85-1.742 0-3.198.78-4.108 2.054V24.96H78.47V39zm22.213.208c1.82 0 3.432-.832 4.42-2.21v1.066c0 2.21-1.612 3.744-3.874 3.744-1.846 0-2.886-.676-3.822-1.898l-2.964 2.314c1.586 1.846 3.692 2.782 6.89 2.782 4.316 0 7.358-2.964 7.358-7.046v-13h-3.588v1.846c-.936-1.3-2.496-2.132-4.368-2.132-3.588 0-6.812 2.834-6.812 7.28s3.302 7.254 6.76 7.254zm.702-3.328c-2.158 0-3.9-1.742-3.9-3.952 0-2.236 1.742-3.952 3.9-3.952 2.21 0 3.9 1.742 3.9 3.952s-1.69 3.952-3.9 3.952zm15.709 3.406c4.082.026 6.032-2.444 6.032-4.628 0-3.016-2.756-3.822-5.096-4.29-2.054-.442-3.198-.676-3.198-1.56 0-.78.676-1.352 2.08-1.352 1.3 0 2.184.546 2.756 1.482l3.276-1.326c-1.3-1.872-3.068-2.99-6.032-2.99-3.458-.026-5.746 2.028-5.746 4.394 0 2.964 2.626 3.692 4.992 4.186 1.794.364 3.302.598 3.302 1.612 0 .832-.78 1.534-2.236 1.534-1.482 0-2.6-.65-3.224-1.898l-3.458 1.352c1.118 2.236 3.224 3.484 6.552 3.484zM136.505 39h3.614V23.4h5.226v-3.38h-14.118v3.38h5.278V39zm11.282 0h3.562v-7.748c0-2.184 1.3-3.432 2.99-3.432 1.898 0 2.86 1.248 2.86 3.25V39h3.692v-8.476c0-3.666-2.132-5.85-5.46-5.85-1.716 0-3.146.754-4.082 2.002v-8.164h-3.562V39zm20.212.286c2.21 0 4.134-.988 5.148-2.444V39h3.458v-8.632c0-3.536-2.366-5.694-6.5-5.694-3.146 0-5.2 1.326-6.63 3.198l3.302 1.638c.65-1.17 1.716-1.846 3.302-1.846 2.028 0 3.042 1.04 3.042 2.548v.182h-3.692c-3.9 0-6.318 1.794-6.318 4.706 0 2.47 1.82 4.186 4.888 4.186zm1.04-2.964c-1.482 0-2.184-.52-2.184-1.534 0-1.092.858-1.768 2.99-1.768h3.302v.754c-.702 1.508-2.392 2.548-4.108 2.548zm9.071-8.19h2.6v5.902c0 3.822 1.716 5.226 4.654 5.226 1.3 0 2.444-.39 3.354-1.066l-1.638-2.808c-.416.364-.806.52-1.3.52-.91 0-1.534-.52-1.534-2.002v-5.772h3.692V24.96h-3.692v-5.122l-3.536 2.08v3.042h-2.6v3.172zM30.786 66.39c4.394 0 7.436-2.392 7.436-5.824 0-5.824-8.866-4.888-8.866-9.308 0-1.69 1.222-2.86 3.094-2.86.26 0 .572.026.858.13l3.874 2.938h.13v-3.068c-.78-.572-2.964-.988-4.862-.988-3.77 0-6.448 2.158-6.448 5.226 0 5.824 8.866 4.862 8.866 9.308 0 2.08-1.638 3.432-3.562 3.432-.468 0-.988-.104-1.196-.182l-4.524-3.406h-.13v3.406c1.066.65 3.276 1.196 5.33 1.196zm14.243 0c1.612 0 3.12-.78 4.55-2.366h.156l.312 2.366 4.342-1.066v-.13l-1.326-1.222V52.35h-.26l-4.576 1.248v.13l1.43 1.3v8.06c-.988.832-1.898 1.248-2.808 1.248-1.326 0-2.106-.832-2.106-2.21v-9.802h-.26l-4.576 1.248v.13l1.43 1.3v7.878c0 2.054 1.482 3.51 3.692 3.51zm14.307-16.744c1.17 0 1.95-.702 1.95-1.846 0-1.144-.78-1.82-1.95-1.82-1.196 0-1.976.676-1.976 1.82 0 1.144.78 1.846 1.976 1.846zM62.248 66v-.104L61.026 64.7V52.35h-.26l-4.576 1.248v.104l1.43 1.3V64.7l-1.196 1.196V66h5.824zm6.49.39c1.795 0 3.38-.988 4.135-2.6l-.104-.078c-.598.52-1.326.806-2.028.806-1.092 0-1.846-.624-1.846-2.002V54.04h3.38l.182-1.3h-3.562v-2.652h-.442l-4.758 3.822v.13h1.794v10.036c.364 1.612 1.742 2.314 3.25 2.314zm21.863-.52l-1.352-1.456v-7.358l4.888-7.514 1.274-1.612v-.13h-4.68v.13l1.768 1.82-3.848 6.188-4.004-6.552L86 47.93v-.13h-7.02v.13l1.196 1.456 5.33 8.164v6.864l-1.378 1.456V66h6.474v-.13zm9.312.52c4.004 0 6.76-2.964 6.76-7.176 0-4.108-2.626-6.864-6.5-6.864-4.004 0-6.734 2.964-6.734 7.176 0 4.108 2.6 6.864 6.474 6.864zm.442-.988c-2.054 0-3.406-2.626-3.406-6.734 0-3.484 1.014-5.356 2.782-5.356 2.054 0 3.432 2.626 3.432 6.734 0 3.484-1.04 5.356-2.808 5.356zm12.848.988c1.612 0 3.12-.78 4.55-2.366h.156l.312 2.366 4.342-1.066v-.13l-1.326-1.222V52.35h-.26l-4.576 1.248v.13l1.43 1.3v8.06c-.988.832-1.898 1.248-2.808 1.248-1.326 0-2.106-.832-2.106-2.21v-9.802h-.26l-4.576 1.248v.13l1.43 1.3v7.878c0 2.054 1.482 3.51 3.692 3.51z" fill="#fff"/><path d="M258.74 30.2c3.32 0 5.16-2.12 5.16-4.36 0-3.18-2.56-3.84-4.86-4.32-1.9-.4-3.62-.68-3.62-2.16 0-1.26.82-2.18 2.78-2.18 1.9 0 2.9.78 3.76 1.94l1.8-1.42c-1.42-1.6-3.06-2.5-5.56-2.5-2.94 0-5.02 1.9-5.02 4.18 0 2.92 2.4 3.52 4.66 3.98 1.96.42 3.82.76 3.82 2.5 0 1.32-1.02 2.28-2.98 2.28-1.84 0-3.32-.8-4.38-2.52l-1.9 1.5c1.38 1.88 3.3 3.08 6.34 3.08zm13.113.02c2.8 0 5.4-2.24 5.4-5.62 0-3.4-2.54-5.62-5.4-5.62-1.48 0-2.9.7-3.72 1.82v-1.6h-2.1v15.12h2.1v-5.76c.8 1.08 2.2 1.66 3.72 1.66zm-.3-1.98c-2.04 0-3.56-1.64-3.56-3.66 0-2 1.52-3.64 3.56-3.64 2 0 3.54 1.6 3.54 3.64s-1.54 3.66-3.54 3.66zm13.121 1.98c2.34 0 3.9-1.04 4.94-2.6l-1.78-1.06c-.64 1.04-1.64 1.74-3.16 1.74-1.98 0-3.34-1.16-3.66-2.9h9.08v-.9c0-3.2-2.36-5.52-5.54-5.52s-5.62 2.48-5.62 5.66c0 3.14 2.3 5.58 5.74 5.58zm-.12-9.34c1.78 0 3.04.98 3.36 2.68h-6.82c.42-1.56 1.74-2.68 3.46-2.68zm12.891 9.34c2.5 0 4.3-1.4 5.16-3.4l-1.96-.82c-.52 1.24-1.64 2.2-3.18 2.2-2.02 0-3.56-1.62-3.56-3.6 0-2 1.5-3.6 3.52-3.6 1.46 0 2.62.8 3.18 2.12l1.94-.84c-.82-1.94-2.74-3.3-5.12-3.3-3.16 0-5.64 2.44-5.64 5.62 0 3.12 2.44 5.62 5.66 5.62zm7.084-.22h2.18V19.2h-2.18V30zm-.44-14.04c0 .88.62 1.54 1.52 1.54s1.54-.66 1.54-1.54-.64-1.54-1.54-1.54c-.88 0-1.52.66-1.52 1.54zm8.449 14.26c1.8 0 3.38-.84 4.24-2.12V30h2.08v-6.68c0-2.62-1.76-4.34-4.86-4.34-2.32 0-3.98 1.04-5.04 2.46l1.92 1.12c.62-1.06 1.68-1.74 3.1-1.74 1.92 0 2.8 1 2.8 2.44v.18h-3.2c-3.02 0-4.86 1.36-4.86 3.58 0 1.82 1.32 3.2 3.82 3.2zm.46-1.88c-1.44 0-2.08-.56-2.08-1.5 0-1.06.8-1.68 2.8-1.68h3.06v.9c-.7 1.42-2.24 2.28-3.78 2.28zm8.308 1.66h2.18V14.24h-2.18V30zM253.48 54h2.16v-4.82h3.92L262.2 54h2.48l-3.1-5.4c1.8-.76 2.82-2.5 2.82-4.32 0-2.82-2.06-4.88-5.24-4.88h-5.68V54zm5.5-12.58c2.14 0 3.24 1.14 3.24 2.8 0 1.54-1.02 2.96-3.24 2.96h-3.34v-5.76h3.34zm10.706 12.8c1.8 0 3.38-.84 4.24-2.12V54h2.08v-6.68c0-2.62-1.76-4.34-4.86-4.34-2.32 0-3.98 1.04-5.04 2.46l1.92 1.12c.62-1.06 1.68-1.74 3.1-1.74 1.92 0 2.8 1 2.8 2.44v.18h-3.2c-3.02 0-4.86 1.36-4.86 3.58 0 1.82 1.32 3.2 3.82 3.2zm.46-1.88c-1.44 0-2.08-.56-2.08-1.5 0-1.06.8-1.68 2.8-1.68h3.06v.9c-.7 1.42-2.24 2.28-3.78 2.28zm7.196-7.2h2.14v5.34c0 2.66 1.24 3.72 3.38 3.72.9 0 1.66-.24 2.28-.66l-1.02-1.8c-.34.3-.68.42-1.1.42-.84 0-1.42-.52-1.42-1.7v-5.32h3.02V43.2h-3.02v-3.72l-2.12 1.38v2.34h-2.14v1.94zm13.992 9.08c2.34 0 3.9-1.04 4.94-2.6l-1.78-1.06c-.64 1.04-1.64 1.74-3.16 1.74-1.98 0-3.34-1.16-3.66-2.9h9.08v-.9c0-3.2-2.36-5.52-5.54-5.52s-5.62 2.48-5.62 5.66c0 3.14 2.3 5.58 5.74 5.58zm-.12-9.34c1.78 0 3.04.98 3.36 2.68h-6.82c.42-1.56 1.74-2.68 3.46-2.68zm19.756 9.32c2.98 0 5.4-1.66 6.66-4.1l-1.96-1.04c-.84 1.76-2.46 3-4.72 3-3.02 0-5.3-2.4-5.3-5.36 0-3 2.28-5.4 5.32-5.4 2.06 0 3.66 1.08 4.56 2.76l1.9-1.18c-1.3-2.2-3.7-3.68-6.46-3.68-4.18 0-7.5 3.24-7.5 7.5 0 4.14 3.18 7.5 7.5 7.5zm8.858-.2h4.32c4.38 0 7.58-3.14 7.58-7.3 0-4.14-2.92-7.3-7.66-7.3h-4.24V54zm4.02-12.6c3.66 0 5.68 2.24 5.68 5.3 0 3-2.24 5.28-5.6 5.28h-1.92V41.4h1.84zM252.408 73h1.056l.84-2.196h4.176l.852 2.196h1.044l-3.468-8.76h-1.032L252.408 73zm3.972-7.572l1.728 4.428h-3.432l1.704-4.428zM261.618 73h.984v-3.6c0-1.248.888-2.124 2.04-2.124 1.26 0 1.956.816 1.956 2.076V73h.996v-3.696c0-1.812-1.068-2.916-2.76-2.916-1.008 0-1.812.492-2.256 1.212v-1.08h-.96V73zm7.676 0h.984v-3.6c0-1.248.888-2.124 2.04-2.124 1.26 0 1.956.816 1.956 2.076V73h.996v-3.696c0-1.812-1.068-2.916-2.76-2.916-1.008 0-1.812.492-2.256 1.212v-1.08h-.96V73zm10.188.132c.984 0 1.752-.48 2.184-1.2V73h.96v-6.48h-.984v3.588c0 1.248-.852 2.124-1.992 2.124-1.248 0-1.896-.816-1.896-2.076V66.52h-.996v3.684c0 1.824.96 2.928 2.724 2.928zm6.827 0c1.116 0 2.112-.48 2.688-1.272V73h.96v-4.128c0-1.464-.996-2.484-2.844-2.484-1.344 0-2.28.552-2.928 1.392l.852.54c.444-.684 1.092-1.092 2.064-1.092 1.26 0 1.896.66 1.896 1.644v.252h-2.052c-1.812 0-2.94.768-2.94 2.1 0 1.044.756 1.908 2.304 1.908zm.18-.864c-1.02 0-1.476-.48-1.476-1.116 0-.804.636-1.236 1.98-1.236h2.004v.888c-.516.96-1.536 1.464-2.508 1.464zm5.188.732h.984v-9.456h-.984V73zm5.815 0h1.008v-2.628h2.292c1.908 0 3.216-1.344 3.216-3.072s-1.296-3.06-3.216-3.06h-3.3V73zm3.228-7.848c1.416 0 2.28.924 2.28 2.148 0 1.212-.852 2.148-2.268 2.148H298.5v-4.296h2.22zm7.742 7.98c1.416 0 2.352-.612 3.012-1.644l-.84-.492c-.444.792-1.14 1.248-2.172 1.248-1.368 0-2.316-.876-2.46-2.112h5.724v-.444c0-1.92-1.404-3.3-3.3-3.3-1.944 0-3.384 1.488-3.384 3.396 0 1.896 1.344 3.348 3.42 3.348zm-.036-5.868c1.26 0 2.136.78 2.292 2.004h-4.692c.216-1.152 1.164-2.004 2.4-2.004zM313.204 73h.972v-3.552c0-1.428.624-2.052 1.704-2.052.348 0 .612.084.792.204l.408-.936c-.252-.156-.636-.24-1.08-.24-.924 0-1.572.456-1.848 1.32V66.52h-.948V73zm7.62.132c1.488 0 2.58-.84 3.084-2.04l-.912-.384c-.36.852-1.116 1.5-2.16 1.5-1.368 0-2.424-1.104-2.424-2.448 0-1.356 1.032-2.448 2.388-2.448 1.008 0 1.788.552 2.172 1.44l.9-.396c-.492-1.164-1.644-1.968-3.06-1.968-1.896 0-3.384 1.452-3.384 3.372 0 1.872 1.464 3.372 3.396 3.372zm7.56 0c1.416 0 2.352-.612 3.012-1.644l-.84-.492c-.444.792-1.14 1.248-2.172 1.248-1.368 0-2.316-.876-2.46-2.112h5.724v-.444c0-1.92-1.404-3.3-3.3-3.3-1.944 0-3.384 1.488-3.384 3.396 0 1.896 1.344 3.348 3.42 3.348zm-.036-5.868c1.26 0 2.136.78 2.292 2.004h-4.692c.216-1.152 1.164-2.004 2.4-2.004zM333.126 73h.984v-3.6c0-1.248.888-2.124 2.04-2.124 1.26 0 1.956.816 1.956 2.076V73h.996v-3.696c0-1.812-1.068-2.916-2.76-2.916-1.008 0-1.812.492-2.256 1.212v-1.08h-.96V73zm6.865-5.604h1.26v3.648c0 1.428.648 2.052 1.836 2.052.54 0 .96-.168 1.332-.456l-.516-.78a1.045 1.045 0 01-.744.312c-.552 0-.936-.324-.936-1.152v-3.624h1.896v-.876h-1.896v-2.052l-.972.624v1.428h-1.26v.876zm7.478 5.736c1.116 0 2.112-.48 2.688-1.272V73h.96v-4.128c0-1.464-.996-2.484-2.844-2.484-1.344 0-2.28.552-2.928 1.392l.852.54c.444-.684 1.092-1.092 2.064-1.092 1.26 0 1.896.66 1.896 1.644v.252h-2.052c-1.812 0-2.94.768-2.94 2.1 0 1.044.756 1.908 2.304 1.908zm.18-.864c-1.02 0-1.476-.48-1.476-1.116 0-.804.636-1.236 1.98-1.236h2.004v.888c-.516.96-1.536 1.464-2.508 1.464zm8.201.864c.948 0 1.932-.492 2.448-1.32v.636c0 1.464-.924 2.388-2.352 2.388-1.128 0-1.752-.372-2.268-1.104l-.816.648c.659.852 1.584 1.356 3.096 1.356 1.944 0 3.312-1.296 3.312-3.324V66.52h-.984v1.164c-.516-.816-1.488-1.296-2.424-1.296-1.824 0-3.312 1.392-3.312 3.372s1.464 3.372 3.3 3.372zm.084-.924c-1.356 0-2.388-1.044-2.388-2.46 0-1.38 1.032-2.46 2.388-2.46 1.38 0 2.412 1.116 2.412 2.46 0 1.368-1.032 2.46-2.412 2.46zm8.227.924c1.416 0 2.352-.612 3.012-1.644l-.84-.492c-.444.792-1.14 1.248-2.172 1.248-1.368 0-2.316-.876-2.46-2.112h5.724v-.444c0-1.92-1.404-3.3-3.3-3.3-1.944 0-3.384 1.488-3.384 3.396 0 1.896 1.344 3.348 3.42 3.348zm-.036-5.868c1.26 0 2.136.78 2.292 2.004h-4.692c.216-1.152 1.164-2.004 2.4-2.004zM374.424 73h.996v-3.612l3.144-5.148h-1.116l-2.52 4.2-2.484-4.2h-1.128l3.108 5.16V73zm5.307 0h.996v-6.48h-.996V73zm-.276-8.472c0 .444.324.78.768.78.456 0 .78-.336.78-.78a.757.757 0 00-.78-.78.761.761 0 00-.768.78zm6.175 8.604c1.416 0 2.352-.612 3.012-1.644l-.84-.492c-.444.792-1.14 1.248-2.172 1.248-1.368 0-2.316-.876-2.46-2.112h5.724v-.444c0-1.92-1.404-3.3-3.3-3.3-1.944 0-3.384 1.488-3.384 3.396 0 1.896 1.344 3.348 3.42 3.348zm-.036-5.868c1.26 0 2.136.78 2.292 2.004h-4.692c.216-1.152 1.164-2.004 2.4-2.004zm4.79 5.736h.984v-9.456h-.984V73zm5.766.132c.936 0 1.908-.48 2.424-1.284V73h.972v-9.468h-.972v4.116c-.516-.792-1.488-1.26-2.424-1.26-1.812 0-3.3 1.392-3.3 3.372s1.464 3.372 3.3 3.372zm.084-.924c-1.356 0-2.388-1.044-2.388-2.46 0-1.38 1.032-2.46 2.388-2.46 1.38 0 2.412 1.116 2.412 2.46 0 1.368-1.032 2.46-2.412 2.46zm8.145.792h1.008v-3.792h4.488v-.96h-4.488v-3.06h4.488v-.948h-5.496V73zm10.183.132c1.908 0 3.372-1.5 3.372-3.372 0-1.896-1.476-3.372-3.372-3.372-1.884 0-3.36 1.476-3.36 3.372 0 1.908 1.452 3.372 3.36 3.372zm0-.936c-1.344 0-2.364-1.044-2.364-2.436 0-1.38 1.02-2.448 2.364-2.448 1.344 0 2.376 1.068 2.376 2.448s-1.02 2.436-2.376 2.436zm4.849.804h.972v-3.552c0-1.428.624-2.052 1.704-2.052.348 0 .612.084.792.204l.408-.936c-.252-.156-.636-.24-1.08-.24-.924 0-1.572.456-1.848 1.32V66.52h-.948V73zm10.847 0v-8.76h-.984c-.012 1.116-.636 1.872-2.052 1.872h-.072v1.008h.132c1.008 0 1.704-.444 1.98-1.116V73h.996zm4.375.12c1.836 0 2.988-1.08 2.988-2.556 0-1.044-.576-1.752-1.476-2.112.78-.384 1.248-1.068 1.248-1.98 0-1.392-1.056-2.352-2.76-2.352-1.272 0-2.208.576-2.772 1.368l.84.528c.372-.624.996-1.02 1.92-1.02 1.116 0 1.8.612 1.8 1.488 0 .9-.708 1.524-1.836 1.524h-.912v.924h.96c1.152 0 2.004.624 2.004 1.62 0 .96-.828 1.656-2.004 1.656-.972 0-1.692-.384-2.184-1.104l-.828.648c.684.9 1.62 1.368 3.012 1.368zm7.656-.12h.984v-7.116l3.108 4.224 3.216-4.32V73h.972v-8.76h-.948l-3.228 4.308-3.108-4.308h-.996V73zm13.16.132c1.908 0 3.372-1.5 3.372-3.372 0-1.896-1.476-3.372-3.372-3.372-1.884 0-3.36 1.476-3.36 3.372 0 1.908 1.452 3.372 3.36 3.372zm0-.936c-1.344 0-2.364-1.044-2.364-2.436 0-1.38 1.02-2.448 2.364-2.448 1.344 0 2.376 1.068 2.376 2.448s-1.02 2.436-2.376 2.436zm4.849.804h.984v-3.6c0-1.248.888-2.124 2.04-2.124 1.26 0 1.956.816 1.956 2.076V73h.996v-3.696c0-1.812-1.068-2.916-2.76-2.916-1.008 0-1.812.492-2.256 1.212v-1.08h-.96V73zm6.865-5.604h1.26v3.648c0 1.428.648 2.052 1.836 2.052.54 0 .96-.168 1.332-.456l-.516-.78a1.045 1.045 0 01-.744.312c-.552 0-.936-.324-.936-1.152v-3.624h1.896v-.876h-1.896v-2.052l-.972.624v1.428h-1.26v.876zM472.696 73h.984v-3.6c0-1.248.888-2.124 2.028-2.124 1.272 0 1.956.816 1.956 2.076V73h1.008v-3.696c0-1.812-1.068-2.916-2.76-2.916-.984 0-1.788.468-2.244 1.176v-4.02h-.972V73zm10.016.132c1.692.012 2.556-.996 2.556-2.016 0-1.332-1.224-1.644-2.34-1.86-1.008-.204-1.788-.336-1.788-1.008 0-.6.408-1.032 1.404-1.032.828 0 1.392.348 1.776.864l.816-.552c-.576-.708-1.392-1.152-2.592-1.152-1.536-.012-2.412.876-2.412 1.884 0 1.296 1.188 1.596 2.304 1.812.948.192 1.836.336 1.836 1.056 0 .648-.528 1.128-1.536 1.128-.984 0-1.644-.42-2.088-1.056l-.852.576c.576.828 1.5 1.356 2.916 1.356zM356 53.5c8.25 0 13.25-4.85 13.25-11.2 0-3.9-2-6.65-5.2-8.3 2.65-1.75 4.3-4.45 4.3-7.8 0-6.1-4.75-10.2-12.6-10.2-5.6 0-10 2.45-12.65 6.5l5.85 3.5c1.4-2.55 3.55-4 6.85-4 3.75 0 5.55 2 5.55 4.4 0 2.7-2 4.75-5.85 4.75h-3.75v6.35h4.05c3.8 0 6.35 1.75 6.35 4.65 0 3.05-2.55 4.95-6.15 4.95-3.35 0-5.9-1.25-7.7-4.2l-5.9 4.35c3.15 4.2 7.15 6.25 13.6 6.25zm17.493-4.2c0 2.55 1.75 4.4 4.35 4.4 2.55 0 4.35-1.85 4.35-4.4 0-2.55-1.8-4.4-4.35-4.4s-4.35 1.85-4.35 4.4zm15.995 3.7h7.549l13.251-30.35V16.5h-24v6.6h16.65L389.488 53zm37.135.5c7.65 0 12.9-5.1 12.9-12.3 0-8.1-5.2-12.55-12.05-12.55-2.65 0-4.8.9-6.3 2.1l1.25-7.7h14.7V16.5h-20.15l-2.95 19.55 6.55 2.65c1.15-2.05 3.05-3.65 5.9-3.65 3.5 0 5.9 2.45 5.9 6 0 3.4-2.5 5.9-5.75 5.9-3.1 0-5.15-1.8-6.15-4.1l-6.85 3.85c2.5 4.05 6.85 6.8 13 6.8zm23.089-28.55c0-1.8 1.45-3.2 3.15-3.2 1.75 0 3.15 1.4 3.15 3.2 0 1.75-1.4 3.15-3.15 3.15-1.7 0-3.15-1.4-3.15-3.15zm15.45 19.6c0 5 4 9 8.95 9 4.95 0 8.95-4 8.95-9 0-4.9-4-8.95-8.95-8.95-4.95 0-8.95 4.05-8.95 8.95zM443.412 53h8.8l31.35-36.5h-8.8L443.412 53zm27.6-8.45c0-1.75 1.4-3.15 3.1-3.15 1.75 0 3.15 1.4 3.15 3.15 0 1.8-1.4 3.2-3.15 3.2-1.7 0-3.1-1.4-3.1-3.2zm-27.1-19.6c0 4.9 4 8.9 8.95 8.9 4.95 0 8.95-4 8.95-8.9 0-5-4-8.95-8.95-8.95a8.91 8.91 0 00-8.95 8.95zm59.399 6.35l1.9-3.2-6.75-2.8 6.75-2.8-1.8-3.2-5.8 4.35.9-7.2h-3.7l.9 7.2-5.8-4.4-1.85 3.15 6.7 2.9-6.7 2.8 1.8 3.2 5.85-4.4-.9 7.25h3.7l-.9-7.25 5.7 4.4z" fill="#193526"/></svg>