<svg width="143" height="33" viewBox="0 0 143 33" fill="none" xmlns="http://www.w3.org/2000/svg"><path d="M59.49 25.062h-1.938v-1.243h5.186v1.243h-1.92v5.732H59.49v-5.732z" fill="#fff"/><path d="M61.916 28.215c0-1.49 1.175-2.685 2.722-2.685s2.732 1.194 2.732 2.685-1.175 2.685-2.732 2.685c-1.557 0-2.722-1.203-2.722-2.685zm4.145-.01c0-.802-.63-1.442-1.414-1.442-.784 0-1.415.64-1.415 1.442 0 .803.621 1.443 1.415 1.443.793 0 1.414-.64 1.414-1.443zM67.98 28.205c0-1.634 1.185-2.675 2.503-2.675.688 0 1.26.306 1.605.783v-.678h1.317v4.776c0 1.5-1.118 2.589-2.702 2.589-1.175 0-1.948-.344-2.531-1.022l1.089-.85c.343.449.725.698 1.404.698.831 0 1.422-.564 1.422-1.376v-.391a1.974 1.974 0 01-1.623.812c-1.27 0-2.483-1.032-2.483-2.666zm4.175-.01c0-.812-.62-1.452-1.433-1.452-.812 0-1.432.63-1.432 1.453 0 .821.64 1.452 1.432 1.452.793 0 1.433-.64 1.433-1.453zM74.083 28.224c0-1.5 1.166-2.694 2.703-2.694s2.665 1.118 2.665 2.646v.496h-4.098c.172.668.717 1.09 1.48 1.09.611 0 1.022-.268 1.28-.689l1.08.63c-.516.727-1.243 1.195-2.38 1.195-1.66 0-2.731-1.176-2.731-2.676l.001.002zm1.308-.583h2.75c-.172-.64-.668-.994-1.357-.994-.688 0-1.184.391-1.394.994h.001zM79.765 25.635h.954v-1.119l1.3-.764v1.882h1.357v1.165h-1.357v2.12c0 .546.23.736.563.736a.68.68 0 00.478-.191l.602 1.031a2.036 2.036 0 01-1.232.392c-1.079 0-1.71-.516-1.71-1.92v-2.17h-.954V25.63l-.001.004zM84.198 23.265h1.308v3c.343-.458.869-.735 1.499-.735 1.223 0 2.005.802 2.005 2.15v3.114h-1.357V27.88c0-.736-.353-1.194-1.05-1.194-.62 0-1.099.458-1.099 1.26v2.848h-1.308v-7.529h.002zM89.67 28.224c0-1.5 1.165-2.694 2.702-2.694s2.665 1.118 2.665 2.646v.496H90.94c.172.668.717 1.09 1.48 1.09.61 0 1.021-.268 1.28-.689l1.079.63c-.516.727-1.242 1.195-2.379 1.195-1.661 0-2.732-1.176-2.732-2.676l.002.002zm1.308-.583h2.75c-.172-.64-.668-.994-1.357-.994s-1.185.391-1.394.994zM95.705 25.635h1.3v.792c.248-.61.764-.889 1.422-.889.344 0 .65.087.87.201l-.478 1.3c-.144-.104-.392-.181-.688-.181-.678 0-1.118.344-1.118 1.213v2.723h-1.308v-5.16zM101.871 30.795v-.05l.49-.43v-4.21h-.746v-.05l.756-.552c.123-1.491.96-2.574 2.011-2.574.205 0 .46.041.593.102v1.093h-.052l-1.297-.572c-.357.06-.653.665-.653 1.318 0 .532.235.766.756.766h1.031l-.072.47h-1.215v4.209l.664.43v.05h-2.267.001zM104.843 28.282c0-1.624 1.052-2.8 2.553-2.8 1.5 0 2.43 1.083 2.43 2.667 0 1.584-1.052 2.8-2.552 2.8-1.501 0-2.431-1.083-2.431-2.667zm3.819.184c0-1.584-.582-2.625-1.45-2.625-.756 0-1.206.766-1.206 2.125 0 1.584.583 2.626 1.451 2.626.755 0 1.205-.766 1.205-2.126zM110.899 26.474l-.583-.48v-.052l1.512-.46h.092l.071 1.032h.052c.469-.735.858-1.032 1.369-1.032.224 0 .429.061.531.133v1.277h-.051l-.909-.613c-.031-.01-.061-.01-.092-.01-.286 0-.725.317-.878.674v3.372l.532.43v.05h-2.135v-.05l.49-.43v-3.841h-.001zM118.478 30.959a5.756 5.756 0 01-1.757-.306V23.93l-.571-.48v-.042l1.593-.48h.102v3.381h.061c.521-.593.94-.828 1.502-.828 1.195 0 2.063 1.052 2.063 2.503 0 1.737-1.246 2.973-2.993 2.973v.002zm.266-4.72c-.399 0-.705.172-.899.45v3.626c.215.153.541.255.91.255.991 0 1.654-.777 1.654-2.054 0-1.277-.684-2.278-1.665-2.278zM122.022 28.324c0-1.625 1.072-2.84 2.471-2.84 1.124 0 1.868.796 2.144 2.298h-3.707c.021 1.41.786 2.33 1.941 2.33.735 0 1.337-.388 1.777-1.156l.051.03c-.235 1.217-1.073 1.963-2.256 1.963-1.43 0-2.421-1.052-2.421-2.625zm.919-.869h2.604c-.236-1.134-.623-1.614-1.288-1.614-.746 0-1.236.602-1.317 1.614h.001zM127.649 30.07v-3.965h-.726v-.05l1.675-1.38h.173v.961h1.471l-.072.47h-1.4v3.39c0 .552.276.808.726.808.296 0 .602-.123.858-.368l.041.03c-.296.613-.889.98-1.542.98-.583 0-1.073-.286-1.206-.877h.002zM131.255 30.07v-3.965h-.726v-.05l1.675-1.38h.173v.961h1.47l-.071.47h-1.4v3.39c0 .552.276.808.725.808.297 0 .603-.123.859-.368l.041.03c-.296.613-.889.98-1.542.98-.583 0-1.073-.286-1.206-.877h.002zM134.299 28.324c0-1.625 1.072-2.84 2.471-2.84 1.124 0 1.868.796 2.144 2.298h-3.707c.02 1.41.786 2.33 1.94 2.33.736 0 1.338-.388 1.778-1.156l.051.03c-.235 1.217-1.073 1.963-2.256 1.963-1.43 0-2.421-1.052-2.421-2.625zm.919-.869h2.604c-.236-1.134-.623-1.614-1.288-1.614-.746 0-1.236.602-1.317 1.614h.001zM139.956 26.474l-.583-.48v-.052l1.512-.46h.091l.072 1.032h.052c.469-.735.858-1.032 1.368-1.032.225 0 .43.061.532.133v1.277h-.051l-.91-.613c-.03-.01-.061-.01-.091-.01-.286 0-.725.317-.878.674v3.372l.532.43v.05h-2.135v-.05l.49-.43v-3.841h-.001zM103.674 8.486c.755-.006 2.045.167 2.043 1.145-.005.984-1.037 1.674-2.045 1.708l.002-2.854v.001zm-.007 3.98c1.306-.07 2.388.444 2.397 1.348-.006.974-1.306 1.613-2.406 1.703l.009-3.05zm-1.525 4.441c4.215-.007 6.451-1.621 6.458-3.187.004-1.255-1.323-1.905-2.328-2.076v-.089c1.545-.655 1.838-1.553 1.84-2.076-.004-.756-.342-1.867-3.396-2.18-.941-.07-1.851-.14-3.472-.135.089.309.092 2.657.087 3.085l-.002 1.542c-.003.262-.005 4.388-.094 5.109l.907.009v-.002zm22.001.113c-.044-.481.044-5.545.044-5.993.18.228 6.324 5.4 7.476 6.156l.088-.03c.035-1.211.178-3.321.261-5.29.141-2.01.237-3.88.329-4.676l-2.319-.094c0 .586-.058 5.388-.058 5.96-.481-.39-6.107-5.163-7.454-6.166l-.097.044c-.093.832-.243 3.073-.374 5.243a104.02 104.02 0 01-.266 4.78l2.369.067.001-.002zm12.605.05c-.047-.271-.091-3.377-.091-4.414l.005-.487.098.003c.893 1.18 4.177 4.713 4.353 4.946l1.886-1.624c-.521-.56-3.225-3.11-3.745-3.635.77-.73 2.912-2.656 3.494-3.228l-1.752-1.539c-.305.373-3.46 3.64-4.244 4.556l-.093-.009v-.46c.003-1.235.059-3.892.1-4.116h-2.585c-.006.307.038 3.052.038 4.233l-.002 1.496c-.008 1.55-.052 3.89-.057 4.276l2.593.003h.002zm-119.68.758l3.152 1.354-.38.917-2.911-.985-2.914 1.51-2.704-1.192-2.784 1.363-3-1.433-2.846 1.167-.468-.872 3.135-1.539 3.467 1.228 2.404-1.294 2.463 1.159 3.39-1.383h-.003zM11.119 2.3l3.723 3.873-3.354-.547 4.474 4.44-4.77-.972 4.573 4.514-5.183-1.104.694 4.242-2.157-.002.57-4.174-3.874 2.175 3.079-5.463-3.38 1.709 4.071-5.827-2.534.67L11.119 2.3V2.3zM1.859 0L.81.07.029 5.659l.194 6.83-.105 6.737L0 23.83l6.172-.067 8.287.174 5.687-.442 2.288-.257-.19-9.902-.732-5.86L21.91.84 7.735.084 1.858 0zm37.266 9.516l.007-2.271-2.458-.005c.042.479.113 1.35.106 2.275v.487c-.003 2.479-.046 3.458-.55 4.2a2.032 2.032 0 01-1.717.874c-.64-.004-1.257-.236-1.646-.822-.526-.72-.647-1.665-.64-3.691l.004-.872c.005-1.204.046-1.922.117-2.245l-2.536.002c0 .293.002 1.349 0 1.934l-.002.707c0 3.237.22 4.207.9 5.185 1.008 1.436 2.644 1.607 3.629 1.611 1.517 0 2.723-.47 3.604-1.45 1.033-1.204 1.177-2.754 1.184-5.305l-.004-.612.002-.002zm2.412 7.539c.203-.56 1.679-4.914 1.931-5.522h.018c.244.534 1.813 3.193 2.79 4.676l.06-.004c.883-1.13 2.943-4.353 3.258-4.731.156.308 1.76 4.524 2.233 5.58l2.125-.904c-.485-.986-3.122-7.158-3.901-8.748l-.063.002c-.561.845-2.913 4.65-3.428 5.377-.411-.64-2.683-4.532-3.371-5.677l-.082.005c-.513 1.143-3.394 8.672-3.658 9.207l2.09.739h-.002zm16.02-8.232c2.045.062 2.383 1.042 2.382 1.718-.003 1.234-1.199 2-2.389 2.243l.005-3.961h.002zm-.013 8.027c-.003-.243-.002-1.75.004-2.015l.005-.556c3.122-.515 4.88-2.264 4.885-4.083 0-1.519-1.243-2.319-2.893-2.649-1.039-.215-2.6-.296-4.477-.296.003.214.082 2.992.077 3.31l-.003 1.487c0 .944-.045 4.25-.085 4.802h2.487zm8.45-4.63c.006-1.716.982-3.333 2.99-3.335 1.348.006 2.624.946 2.618 2.96 0 2.248-1.415 3.356-2.908 3.356-1.408 0-2.7-.972-2.7-2.98m8.589 4.034a74.46 74.46 0 01-3.127-.205l.004-.055c1.784-.92 2.734-2.535 2.735-4.296.007-2.75-1.99-4.515-5.03-4.515-3.579.003-5.77 2.471-5.772 5.138a4.282 4.282 0 001.574 3.38c1.381 1.143 3.333 1.182 3.504 1.183.127.002.498.028 1.075.14 1.534.297 3.264.7 4.74 1.002l.296-1.773zm10.298-6.74c-.002-1.024-.002-1.975-.002-2.27H82.44c.003.475.044 1.35.04 2.273l-.004.482c0 2.482-.005 3.461-.534 4.204a1.98 1.98 0 01-1.672.872c-.687 0-1.26-.237-1.644-.822-.581-.72-.64-1.667-.635-3.688v-.878c.003-1.197.005-1.922.038-2.239h-2.465c0 .288-.031 1.345-.034 1.937v.708c0 3.23.263 4.204.936 5.184.994 1.433 2.662 1.605 3.597 1.611 1.542-.006 2.745-.468 3.596-1.452 1.043-1.204 1.21-2.751 1.215-5.305l.004-.616h.002zm4.205 3.568c.27-.528 1.187-2.385 1.486-2.902.243.423 1.213 2.195 1.551 2.77l-3.039.132h.002zm-1.918 3.908c.343-.529 1.068-2.11 1.198-2.376l4.418-.211c.166.206 1.22 1.98 1.506 2.589l2.156-1.226c-.74-1.014-4.293-6.718-5.763-8.898l-.104.005c-.94 1.416-4.86 8.092-5.424 9.036l2.013 1.081zm26.095-3.91c.27-.528 1.187-2.385 1.486-2.902.243.423 1.213 2.194 1.551 2.77l-3.039.132h.002zm-1.918 3.908c.343-.53 1.068-2.11 1.198-2.377l4.418-.21c.166.206 1.219 1.98 1.506 2.588l2.156-1.225c-.74-1.015-4.293-6.718-5.763-8.898l-.104.004c-.94 1.416-4.859 8.093-5.424 9.036l2.013 1.082z" fill="#fff"/></svg>