<svg width="116" height="27" viewBox="0 0 116 27" fill="none" xmlns="http://www.w3.org/2000/svg"><path d="M.408 10h1.056l.84-2.196H6.48L7.332 10h1.044L4.908 1.24H3.876L.408 10zM4.38 2.428l1.728 4.428H2.676L4.38 2.428zM9.618 10h.984V6.4c0-1.248.888-2.124 2.04-2.124 1.26 0 1.956.816 1.956 2.076V10h.996V6.304c0-1.812-1.068-2.916-2.76-2.916-1.008 0-1.812.492-2.256 1.212V3.52h-.96V10zm7.676 0h.984V6.4c0-1.248.888-2.124 2.04-2.124 1.26 0 1.956.816 1.956 2.076V10h.996V6.304c0-1.812-1.068-2.916-2.76-2.916-1.008 0-1.812.492-2.256 1.212V3.52h-.96V10zm10.188.132c.984 0 1.752-.48 2.184-1.2V10h.96V3.52h-.984v3.588c0 1.248-.852 2.124-1.992 2.124-1.248 0-1.896-.816-1.896-2.076V3.52h-.996v3.684c0 1.824.96 2.928 2.724 2.928zm6.827 0c1.116 0 2.112-.48 2.688-1.272V10h.96V5.872c0-1.464-.996-2.484-2.844-2.484-1.344 0-2.28.552-2.928 1.392l.852.54c.444-.684 1.092-1.092 2.064-1.092 1.26 0 1.896.66 1.896 1.644v.252h-2.052c-1.812 0-2.94.768-2.94 2.1 0 1.044.756 1.908 2.304 1.908zm.18-.864c-1.02 0-1.476-.48-1.476-1.116 0-.804.636-1.236 1.98-1.236h2.004v.888c-.516.96-1.536 1.464-2.508 1.464zm5.188.732h.984V.544h-.984V10zm5.815 0H46.5V7.372h2.292c1.908 0 3.216-1.344 3.216-3.072s-1.296-3.06-3.216-3.06h-3.3V10zm3.228-7.848c1.416 0 2.28.924 2.28 2.148 0 1.212-.852 2.148-2.268 2.148H46.5V2.152h2.22zm7.742 7.98c1.416 0 2.352-.612 3.012-1.644l-.84-.492c-.444.792-1.14 1.248-2.172 1.248-1.368 0-2.316-.876-2.46-2.112h5.724v-.444c0-1.92-1.404-3.3-3.3-3.3-1.944 0-3.384 1.488-3.384 3.396 0 1.896 1.344 3.348 3.42 3.348zm-.036-5.868c1.26 0 2.136.78 2.292 2.004h-4.692c.216-1.152 1.164-2.004 2.4-2.004zM61.204 10h.972V6.448c0-1.428.624-2.052 1.704-2.052.348 0 .612.084.792.204l.408-.936c-.252-.156-.636-.24-1.08-.24-.924 0-1.572.456-1.848 1.32V3.52h-.948V10zm7.62.132c1.488 0 2.58-.84 3.084-2.04l-.912-.384c-.36.852-1.116 1.5-2.16 1.5-1.368 0-2.424-1.104-2.424-2.448 0-1.356 1.032-2.448 2.388-2.448 1.008 0 1.788.552 2.172 1.44l.9-.396c-.492-1.164-1.644-1.968-3.06-1.968-1.896 0-3.384 1.452-3.384 3.372 0 1.872 1.464 3.372 3.396 3.372zm7.56 0c1.416 0 2.352-.612 3.012-1.644l-.84-.492c-.444.792-1.14 1.248-2.172 1.248-1.368 0-2.316-.876-2.46-2.112h5.724v-.444c0-1.92-1.404-3.3-3.3-3.3-1.944 0-3.384 1.488-3.384 3.396 0 1.896 1.344 3.348 3.42 3.348zm-.036-5.868c1.26 0 2.136.78 2.292 2.004h-4.692c.216-1.152 1.164-2.004 2.4-2.004zM81.126 10h.984V6.4c0-1.248.888-2.124 2.04-2.124 1.26 0 1.956.816 1.956 2.076V10h.996V6.304c0-1.812-1.068-2.916-2.76-2.916-1.008 0-1.812.492-2.256 1.212V3.52h-.96V10zm6.865-5.604h1.26v3.648c0 1.428.648 2.052 1.836 2.052.54 0 .96-.168 1.332-.456l-.516-.78a1.045 1.045 0 01-.744.312c-.552 0-.936-.324-.936-1.152V4.396h1.896V3.52h-1.896V1.468l-.972.624V3.52h-1.26v.876zm7.478 5.736c1.116 0 2.112-.48 2.688-1.272V10h.96V5.872c0-1.464-.996-2.484-2.844-2.484-1.344 0-2.28.552-2.928 1.392l.852.54c.444-.684 1.092-1.092 2.064-1.092 1.26 0 1.896.66 1.896 1.644v.252h-2.052c-1.812 0-2.94.768-2.94 2.1 0 1.044.756 1.908 2.304 1.908zm.18-.864c-1.02 0-1.476-.48-1.476-1.116 0-.804.636-1.236 1.98-1.236h2.004v.888c-.516.96-1.536 1.464-2.508 1.464zm8.201.864c.948 0 1.932-.492 2.448-1.32v.636c0 1.464-.924 2.388-2.352 2.388-1.128 0-1.752-.372-2.268-1.104l-.816.648c.659.852 1.584 1.356 3.096 1.356 1.944 0 3.312-1.296 3.312-3.324V3.52h-.984v1.164c-.516-.816-1.488-1.296-2.424-1.296-1.824 0-3.312 1.392-3.312 3.372s1.464 3.372 3.3 3.372zm.084-.924c-1.356 0-2.388-1.044-2.388-2.46 0-1.38 1.032-2.46 2.388-2.46 1.38 0 2.412 1.116 2.412 2.46 0 1.368-1.032 2.46-2.412 2.46zm8.227.924c1.416 0 2.352-.612 3.012-1.644l-.84-.492c-.444.792-1.14 1.248-2.172 1.248-1.368 0-2.316-.876-2.46-2.112h5.724v-.444c0-1.92-1.404-3.3-3.3-3.3-1.944 0-3.384 1.488-3.384 3.396 0 1.896 1.344 3.348 3.42 3.348zm-.036-5.868c1.26 0 2.136.78 2.292 2.004h-4.692c.216-1.152 1.164-2.004 2.4-2.004zM3.432 26h.996v-3.612l3.144-5.148H6.456l-2.52 4.2-2.484-4.2H.324l3.108 5.16V26zm5.307 0h.996v-6.48H8.74V26zm-.276-8.472c0 .444.324.78.768.78.456 0 .78-.336.78-.78a.757.757 0 00-.78-.78.761.761 0 00-.768.78zm6.175 8.604c1.415 0 2.351-.612 3.011-1.644l-.84-.492c-.444.792-1.14 1.248-2.172 1.248-1.367 0-2.316-.876-2.46-2.112h5.724v-.444c0-1.92-1.404-3.3-3.3-3.3-1.944 0-3.384 1.488-3.384 3.396 0 1.896 1.345 3.348 3.42 3.348zm-.037-5.868c1.26 0 2.136.78 2.292 2.004h-4.692c.216-1.152 1.165-2.004 2.4-2.004zM19.392 26h.985v-9.456h-.984V26zm5.767.132c.936 0 1.908-.48 2.424-1.284V26h.972v-9.468h-.972v4.116c-.516-.792-1.488-1.26-2.424-1.26-1.812 0-3.3 1.392-3.3 3.372s1.464 3.372 3.3 3.372zm.084-.924c-1.356 0-2.388-1.044-2.388-2.46 0-1.38 1.032-2.46 2.388-2.46 1.38 0 2.412 1.116 2.412 2.46 0 1.368-1.032 2.46-2.412 2.46zm8.145.792h1.008v-3.792h4.488v-.96h-4.488v-3.06h4.488v-.948h-5.496V26zm10.183.132c1.908 0 3.372-1.5 3.372-3.372 0-1.896-1.476-3.372-3.372-3.372-1.884 0-3.36 1.476-3.36 3.372 0 1.908 1.452 3.372 3.36 3.372zm0-.936c-1.344 0-2.364-1.044-2.364-2.436 0-1.38 1.02-2.448 2.364-2.448 1.344 0 2.376 1.068 2.376 2.448s-1.02 2.436-2.376 2.436zm4.849.804h.972v-3.552c0-1.428.624-2.052 1.704-2.052.348 0 .612.084.792.204l.408-.936c-.252-.156-.636-.24-1.08-.24-.924 0-1.572.456-1.848 1.32V19.52h-.948V26zm10.847 0v-8.76h-.984c-.012 1.116-.636 1.872-2.052 1.872h-.072v1.008h.132c1.008 0 1.704-.444 1.98-1.116V26h.996zm4.375.12c1.836 0 2.988-1.08 2.988-2.556 0-1.044-.576-1.752-1.476-2.112.78-.384 1.248-1.068 1.248-1.98 0-1.392-1.056-2.352-2.76-2.352-1.272 0-2.208.576-2.772 1.368l.84.528c.372-.624.996-1.02 1.92-1.02 1.116 0 1.8.612 1.8 1.488 0 .9-.708 1.524-1.836 1.524h-.912v.924h.96c1.152 0 2.004.624 2.004 1.62 0 .96-.828 1.656-2.004 1.656-.972 0-1.692-.384-2.184-1.104l-.828.648c.684.9 1.62 1.368 3.012 1.368zm7.656-.12h.984v-7.116l3.108 4.224 3.216-4.32V26h.972v-8.76h-.948l-3.228 4.308-3.108-4.308h-.996V26zm13.16.132c1.907 0 3.371-1.5 3.371-3.372 0-1.896-1.476-3.372-3.372-3.372-1.884 0-3.36 1.476-3.36 3.372 0 1.908 1.452 3.372 3.36 3.372zm0-.936c-1.345 0-2.365-1.044-2.365-2.436 0-1.38 1.02-2.448 2.364-2.448 1.344 0 2.376 1.068 2.376 2.448s-1.02 2.436-2.376 2.436zm4.848.804h.984v-3.6c0-1.248.888-2.124 2.04-2.124 1.26 0 1.956.816 1.956 2.076V26h.996v-3.696c0-1.812-1.068-2.916-2.76-2.916-1.008 0-1.812.492-2.256 1.212v-1.08h-.96V26zm6.865-5.604h1.26v3.648c0 1.428.648 2.052 1.836 2.052.54 0 .961-.168 1.333-.456l-.516-.78a1.047 1.047 0 01-.745.312c-.551 0-.935-.324-.935-1.152v-3.624h1.896v-.876h-1.897v-2.052l-.972.624v1.428h-1.26v.876zM101.705 26h.984v-3.6c0-1.248.888-2.124 2.028-2.124 1.272 0 1.956.816 1.956 2.076V26h1.008v-3.696c0-1.812-1.068-2.916-2.76-2.916-.984 0-1.788.468-2.244 1.176v-4.02h-.972V26zm10.016.132c1.692.012 2.556-.996 2.556-2.016 0-1.332-1.224-1.644-2.34-1.86-1.008-.204-1.788-.336-1.788-1.008 0-.6.408-1.032 1.404-1.032.828 0 1.392.348 1.776.864l.816-.552c-.576-.708-1.392-1.152-2.592-1.152-1.536-.012-2.412.876-2.412 1.884 0 1.296 1.188 1.596 2.304 1.812.948.192 1.836.336 1.836 1.056 0 .648-.528 1.128-1.536 1.128-.984 0-1.644-.42-2.088-1.056l-.852.576c.576.828 1.5 1.356 2.916 1.356z" fill="#193526"/></svg>