<svg width="106" height="23" viewBox="0 0 106 23" fill="none" xmlns="http://www.w3.org/2000/svg"><path d="M6.308 22.42c4.732 0 8.008-2.576 8.008-6.272 0-6.272-9.548-5.264-9.548-10.024 0-1.82 1.316-3.08 3.332-3.08.28 0 .616.028.924.14l4.172 3.164h.14V3.044c-.84-.616-3.192-1.064-5.236-1.064-4.06 0-6.944 2.324-6.944 5.628 0 6.272 9.548 5.236 9.548 10.024 0 2.24-1.764 3.696-3.836 3.696-.504 0-1.064-.112-1.288-.196L.708 17.464h-.14v3.668c1.148.7 3.528 1.288 5.74 1.288zm15.338 0c1.736 0 3.36-.84 4.9-2.548h.168l.336 2.548 4.676-1.148v-.14l-1.428-1.316V7.3h-.28L25.09 8.644v.14l1.54 1.4v8.68c-1.064.896-2.044 1.344-3.024 1.344-1.428 0-2.268-.896-2.268-2.38V7.272h-.28L16.13 8.616v.14l1.54 1.4v8.484c0 2.212 1.596 3.78 3.976 3.78zM37.054 4.388c1.26 0 2.1-.756 2.1-1.988s-.84-1.96-2.1-1.96c-1.288 0-2.128.728-2.128 1.96s.84 1.988 2.128 1.988zM40.19 22v-.112L38.874 20.6V7.3h-.28l-4.928 1.344v.112l1.54 1.4V20.6l-1.288 1.288V22h6.272zm6.99.42c1.932 0 3.64-1.064 4.452-2.8l-.112-.084c-.644.56-1.428.868-2.184.868-1.176 0-1.988-.672-1.988-2.156V9.12h3.64l.196-1.4h-3.836V4.864h-.476L41.748 8.98v.14h1.932v10.808c.392 1.736 1.876 2.492 3.5 2.492zm23.544-.56l-1.456-1.568v-7.924l5.264-8.092 1.372-1.736V2.4h-5.04v.14l1.904 1.96-4.144 6.664-4.312-7.056 1.456-1.568V2.4h-7.56v.14l1.288 1.568 5.74 8.792v7.392l-1.484 1.568V22h6.972v-.14zm10.029.56c4.312 0 7.28-3.192 7.28-7.728 0-4.424-2.828-7.392-7-7.392-4.312 0-7.252 3.192-7.252 7.728 0 4.424 2.8 7.392 6.972 7.392zm.476-1.064c-2.212 0-3.668-2.828-3.668-7.252 0-3.752 1.092-5.768 2.996-5.768 2.212 0 3.696 2.828 3.696 7.252 0 3.752-1.12 5.768-3.024 5.768zm13.835 1.064c1.736 0 3.36-.84 4.9-2.548h.168l.336 2.548 4.676-1.148v-.14l-1.428-1.316V7.3h-.28l-4.928 1.344v.14l1.54 1.4v8.68c-1.064.896-2.044 1.344-3.024 1.344-1.428 0-2.268-.896-2.268-2.38V7.272h-.28l-4.928 1.344v.14l1.54 1.4v8.484c0 2.212 1.596 3.78 3.976 3.78z" fill="#fff"/></svg>