<svg width="160" height="446" viewBox="0 0 160 446" fill="none" xmlns="http://www.w3.org/2000/svg"><path fill="#193526" d="M0 0h160v263H0z"/><circle cx="114.5" cy="331.5" r="114.5" fill="#D9D9D9"/><path fill="#D9D9D9" d="M0 135h219v208H0zM113 343h106v103H113z"/><path d="M24.308 99.42c4.732 0 8.008-2.576 8.008-6.272 0-6.272-9.548-5.264-9.548-10.024 0-1.82 1.316-3.08 3.332-3.08.28 0 .616.028.924.14l4.172 3.164h.14v-3.304c-.84-.616-3.192-1.064-5.236-1.064-4.06 0-6.944 2.324-6.944 5.628 0 6.272 9.548 5.236 9.548 10.024 0 2.24-1.764 3.696-3.836 3.696-.504 0-1.064-.112-1.288-.196l-4.872-3.668h-.14v3.668c1.148.7 3.528 1.288 5.74 1.288zm15.338 0c1.736 0 3.36-.84 4.9-2.548h.168l.336 2.548 4.676-1.148v-.14l-1.428-1.316V84.3h-.28l-4.928 1.344v.14l1.54 1.4v8.68c-1.064.896-2.044 1.344-3.024 1.344-1.428 0-2.268-.896-2.268-2.38V84.272h-.28l-4.928 1.344v.14l1.54 1.4v8.484c0 2.212 1.596 3.78 3.976 3.78zm15.408-18.032c1.26 0 2.1-.756 2.1-1.988s-.84-1.96-2.1-1.96c-1.288 0-2.128.728-2.128 1.96s.84 1.988 2.128 1.988zM58.19 99v-.112L56.874 97.6V84.3h-.28l-4.928 1.344v.112l1.54 1.4V97.6l-1.288 1.288V99h6.272zm6.99.42c1.932 0 3.64-1.064 4.452-2.8l-.112-.084c-.644.56-1.428.868-2.184.868-1.176 0-1.988-.672-1.988-2.156V86.12h3.64l.196-1.4h-3.836v-2.856h-.476l-5.124 4.116v.14h1.932v10.808c.392 1.736 1.876 2.492 3.5 2.492zm23.544-.56l-1.456-1.568v-7.924l5.264-8.092 1.372-1.736v-.14h-5.04v.14l1.904 1.96-4.144 6.664-4.312-7.056 1.456-1.568v-.14h-7.56v.14l1.288 1.568 5.74 8.792v7.392l-1.484 1.568V99h6.972v-.14zm10.029.56c4.312 0 7.28-3.192 7.28-7.728 0-4.424-2.828-7.392-7-7.392-4.312 0-7.252 3.192-7.252 7.728 0 4.424 2.8 7.392 6.972 7.392zm.476-1.064c-2.212 0-3.668-2.828-3.668-7.252 0-3.752 1.092-5.768 2.996-5.768 2.212 0 3.696 2.828 3.696 7.252 0 3.752-1.12 5.768-3.024 5.768zm13.835 1.064c1.736 0 3.36-.84 4.9-2.548h.168l.336 2.548 4.676-1.148v-.14l-1.428-1.316V84.3h-.28l-4.928 1.344v.14l1.54 1.4v8.68c-1.064.896-2.044 1.344-3.024 1.344-1.428 0-2.268-.896-2.268-2.38V84.272h-.28l-4.928 1.344v.14l1.54 1.4v8.484c0 2.212 1.596 3.78 3.976 3.78zM23.944 70h3.892V53.2h5.628v-3.64H18.26v3.64h5.684V70zm12.15 0h3.836v-8.344c0-2.352 1.4-3.696 3.22-3.696 2.044 0 3.08 1.344 3.08 3.5V70h3.976v-9.128c0-3.948-2.296-6.3-5.88-6.3-1.848 0-3.388.812-4.396 2.156v-8.792h-3.836V70zm21.767.308c2.38 0 4.452-1.064 5.544-2.632V70h3.724v-9.296c0-3.808-2.548-6.132-7-6.132-3.388 0-5.6 1.428-7.14 3.444l3.556 1.764c.7-1.26 1.848-1.988 3.556-1.988 2.184 0 3.276 1.12 3.276 2.744v.196h-3.976c-4.2 0-6.804 1.932-6.804 5.068 0 2.66 1.96 4.508 5.264 4.508zm1.12-3.192c-1.596 0-2.352-.56-2.352-1.652 0-1.176.924-1.904 3.22-1.904h3.556v.812c-.756 1.624-2.576 2.744-4.424 2.744zm9.77-8.82h2.8v6.356c0 4.116 1.847 5.628 5.011 5.628 1.4 0 2.632-.42 3.612-1.148l-1.764-3.024c-.448.392-.868.56-1.4.56-.98 0-1.652-.56-1.652-2.156v-6.216h3.976V54.88h-3.976v-5.516l-3.808 2.24v3.276h-2.8v3.416zM26.24 41.28c4.564 0 7.504-2.912 7.504-6.412 0-4.424-3.612-5.432-6.748-6.104-2.548-.588-4.592-.896-4.592-2.548 0-1.344.952-2.436 3.164-2.436 2.352 0 3.724.98 4.788 2.548l3.22-2.52c-2.072-2.296-4.34-3.556-7.952-3.556-4.256 0-7.252 2.688-7.252 6.048 0 4.144 3.416 5.124 6.468 5.768 2.828.644 4.788 1.036 4.788 2.94 0 1.484-1.148 2.548-3.36 2.548-2.436 0-4.256-1.092-5.6-3.22l-3.444 2.744c1.932 2.464 4.62 4.2 9.016 4.2zm14.86.028c2.38 0 4.451-1.064 5.544-2.632V41h3.724v-9.296c0-3.808-2.549-6.132-7-6.132-3.389 0-5.6 1.428-7.14 3.444l3.555 1.764c.7-1.26 1.849-1.988 3.556-1.988 2.184 0 3.276 1.12 3.276 2.744v.196H42.64c-4.2 0-6.803 1.932-6.803 5.068 0 2.66 1.96 4.508 5.264 4.508zm1.12-3.192c-1.596 0-2.352-.56-2.352-1.652 0-1.176.923-1.904 3.22-1.904h3.556v.812c-.756 1.624-2.576 2.744-4.425 2.744zM57.011 41h3.836l5.936-15.12H62.78l-3.752 10.192-3.724-10.192h-4.088L57.012 41zm11.621 0h3.948V25.88h-3.948V41zm-.504-19.376c0 1.428 1.008 2.464 2.464 2.464 1.484 0 2.492-1.036 2.492-2.464 0-1.456-1.008-2.52-2.492-2.52-1.428 0-2.464 1.064-2.464 2.52zM75.66 41h3.892v-8.344c0-2.352 1.4-3.696 3.22-3.696 2.044 0 3.08 1.344 3.08 3.5V41H89.8v-9.128c0-3.948-2.268-6.3-5.852-6.3-1.876 0-3.444.84-4.424 2.212V25.88H75.66V41zm23.922.224c1.96 0 3.696-.896 4.76-2.38v1.148c0 2.38-1.736 4.032-4.172 4.032-1.988 0-3.108-.728-4.116-2.044l-3.192 2.492c1.708 1.988 3.976 2.996 7.42 2.996 4.648 0 7.924-3.192 7.924-7.588v-14h-3.864v1.988c-1.008-1.4-2.688-2.296-4.704-2.296-3.864 0-7.336 3.052-7.336 7.84s3.556 7.812 7.28 7.812zm.756-3.584c-2.324 0-4.2-1.876-4.2-4.256 0-2.408 1.876-4.256 4.2-4.256 2.38 0 4.2 1.876 4.2 4.256 0 2.38-1.82 4.256-4.2 4.256zm16.917 3.668c4.396.028 6.496-2.632 6.496-4.984 0-3.248-2.968-4.116-5.488-4.62-2.212-.476-3.444-.728-3.444-1.68 0-.84.728-1.456 2.24-1.456 1.4 0 2.352.588 2.968 1.596l3.528-1.428c-1.4-2.016-3.304-3.22-6.496-3.22-3.724-.028-6.188 2.184-6.188 4.732 0 3.192 2.828 3.976 5.376 4.508 1.932.392 3.556.644 3.556 1.736 0 .896-.84 1.652-2.408 1.652-1.596 0-2.8-.7-3.472-2.044l-3.724 1.456c1.204 2.408 3.472 3.752 7.056 3.752z" fill="#fff"/><path d="M23.74 182.2c3.32 0 5.16-2.12 5.16-4.36 0-3.18-2.56-3.84-4.86-4.32-1.9-.4-3.62-.68-3.62-2.16 0-1.26.82-2.18 2.78-2.18 1.9 0 2.9.78 3.76 1.94l1.8-1.42c-1.42-1.6-3.06-2.5-5.56-2.5-2.94 0-5.02 1.9-5.02 4.18 0 2.92 2.4 3.52 4.66 3.98 1.96.42 3.82.76 3.82 2.5 0 1.32-1.02 2.28-2.98 2.28-1.84 0-3.32-.8-4.38-2.52l-1.9 1.5c1.38 1.88 3.3 3.08 6.34 3.08zm13.113.02c2.8 0 5.4-2.24 5.4-5.62 0-3.4-2.54-5.62-5.4-5.62-1.48 0-2.9.7-3.72 1.82v-1.6h-2.1v15.12h2.1v-5.76c.8 1.08 2.2 1.66 3.72 1.66zm-.3-1.98c-2.04 0-3.56-1.64-3.56-3.66 0-2 1.52-3.64 3.56-3.64 2 0 3.54 1.6 3.54 3.64s-1.54 3.66-3.54 3.66zm13.12 1.98c2.34 0 3.9-1.04 4.94-2.6l-1.78-1.06c-.64 1.04-1.64 1.74-3.16 1.74-1.98 0-3.34-1.16-3.66-2.9h9.08v-.9c0-3.2-2.36-5.52-5.54-5.52s-5.62 2.48-5.62 5.66c0 3.14 2.3 5.58 5.74 5.58zm-.12-9.34c1.78 0 3.04.98 3.36 2.68h-6.82c.42-1.56 1.74-2.68 3.46-2.68zm12.892 9.34c2.5 0 4.3-1.4 5.16-3.4l-1.96-.82c-.52 1.24-1.64 2.2-3.18 2.2-2.02 0-3.56-1.62-3.56-3.6 0-2 1.5-3.6 3.52-3.6 1.46 0 2.62.8 3.18 2.12l1.94-.84c-.82-1.94-2.74-3.3-5.12-3.3-3.16 0-5.64 2.44-5.64 5.62 0 3.12 2.44 5.62 5.66 5.62zm7.084-.22h2.18v-10.8h-2.18V182zm-.44-14.04c0 .88.62 1.54 1.52 1.54s1.54-.66 1.54-1.54-.64-1.54-1.54-1.54c-.88 0-1.52.66-1.52 1.54zm8.449 14.26c1.8 0 3.38-.84 4.24-2.12v1.9h2.08v-6.68c0-2.62-1.76-4.34-4.86-4.34-2.32 0-3.98 1.04-5.04 2.46l1.92 1.12c.62-1.06 1.68-1.74 3.1-1.74 1.92 0 2.8 1 2.8 2.44v.18h-3.2c-3.02 0-4.86 1.36-4.86 3.58 0 1.82 1.32 3.2 3.82 3.2zm.46-1.88c-1.44 0-2.08-.56-2.08-1.5 0-1.06.8-1.68 2.8-1.68h3.06v.9c-.7 1.42-2.24 2.28-3.78 2.28zm8.308 1.66h2.18v-15.76h-2.18V182zM18.48 206h2.16v-4.82h3.92L27.2 206h2.48l-3.1-5.4c1.8-.76 2.82-2.5 2.82-4.32 0-2.82-2.06-4.88-5.24-4.88h-5.68V206zm5.5-12.58c2.14 0 3.24 1.14 3.24 2.8 0 1.54-1.02 2.96-3.24 2.96h-3.34v-5.76h3.34zm10.706 12.8c1.8 0 3.38-.84 4.24-2.12v1.9h2.08v-6.68c0-2.62-1.76-4.34-4.86-4.34-2.32 0-3.98 1.04-5.04 2.46l1.92 1.12c.62-1.06 1.68-1.74 3.1-1.74 1.92 0 2.8 1 2.8 2.44v.18h-3.2c-3.02 0-4.86 1.36-4.86 3.58 0 1.82 1.32 3.2 3.82 3.2zm.46-1.88c-1.44 0-2.08-.56-2.08-1.5 0-1.06.8-1.68 2.8-1.68h3.06v.9c-.7 1.42-2.24 2.28-3.78 2.28zm7.196-7.2h2.14v5.34c0 2.66 1.24 3.72 3.38 3.72.9 0 1.66-.24 2.28-.66l-1.02-1.8c-.34.3-.68.42-1.1.42-.84 0-1.42-.52-1.42-1.7v-5.32h3.02v-1.94h-3.02v-3.72l-2.12 1.38v2.34h-2.14v1.94zm13.992 9.08c2.34 0 3.9-1.04 4.94-2.6l-1.78-1.06c-.64 1.04-1.64 1.74-3.16 1.74-1.98 0-3.34-1.16-3.66-2.9h9.08v-.9c0-3.2-2.36-5.52-5.54-5.52s-5.62 2.48-5.62 5.66c0 3.14 2.3 5.58 5.74 5.58zm-.12-9.34c1.78 0 3.04.98 3.36 2.68h-6.82c.42-1.56 1.74-2.68 3.46-2.68zm19.756 9.32c2.98 0 5.4-1.66 6.66-4.1l-1.96-1.04c-.84 1.76-2.46 3-4.72 3-3.02 0-5.3-2.4-5.3-5.36 0-3 2.28-5.4 5.32-5.4 2.06 0 3.66 1.08 4.56 2.76l1.9-1.18c-1.3-2.2-3.7-3.68-6.46-3.68-4.18 0-7.5 3.24-7.5 7.5 0 4.14 3.18 7.5 7.5 7.5zm8.858-.2h4.32c4.38 0 7.58-3.14 7.58-7.3 0-4.14-2.92-7.3-7.66-7.3h-4.24V206zm4.02-12.6c3.66 0 5.68 2.24 5.68 5.3 0 3-2.24 5.28-5.6 5.28h-1.92V193.4h1.84zM17.408 291h1.056l.84-2.196h4.176l.852 2.196h1.044l-3.468-8.76h-1.032L17.408 291zm3.972-7.572l1.728 4.428h-3.432l1.704-4.428zM26.618 291h.984v-3.6c0-1.248.888-2.124 2.04-2.124 1.26 0 1.956.816 1.956 2.076V291h.996v-3.696c0-1.812-1.068-2.916-2.76-2.916-1.008 0-1.812.492-2.256 1.212v-1.08h-.96V291zm7.676 0h.984v-3.6c0-1.248.888-2.124 2.04-2.124 1.26 0 1.956.816 1.956 2.076V291h.996v-3.696c0-1.812-1.068-2.916-2.76-2.916-1.008 0-1.812.492-2.256 1.212v-1.08h-.96V291zm10.188.132c.984 0 1.752-.48 2.184-1.2V291h.96v-6.48h-.984v3.588c0 1.248-.852 2.124-1.992 2.124-1.248 0-1.896-.816-1.896-2.076v-3.636h-.996v3.684c0 1.824.96 2.928 2.724 2.928zm6.827 0c1.116 0 2.112-.48 2.688-1.272V291h.96v-4.128c0-1.464-.996-2.484-2.844-2.484-1.344 0-2.28.552-2.928 1.392l.852.54c.444-.684 1.092-1.092 2.064-1.092 1.26 0 1.896.66 1.896 1.644v.252h-2.052c-1.812 0-2.94.768-2.94 2.1 0 1.044.756 1.908 2.304 1.908zm.18-.864c-1.02 0-1.476-.48-1.476-1.116 0-.804.636-1.236 1.98-1.236h2.004v.888c-.516.96-1.536 1.464-2.508 1.464zm5.188.732h.984v-9.456h-.984V291zm5.815 0H63.5v-2.628h2.292c1.908 0 3.216-1.344 3.216-3.072s-1.296-3.06-3.216-3.06h-3.3V291zm3.228-7.848c1.416 0 2.28.924 2.28 2.148 0 1.212-.852 2.148-2.268 2.148H63.5v-4.296h2.22zm7.742 7.98c1.416 0 2.352-.612 3.012-1.644l-.84-.492c-.444.792-1.14 1.248-2.172 1.248-1.368 0-2.316-.876-2.46-2.112h5.724v-.444c0-1.92-1.404-3.3-3.3-3.3-1.944 0-3.384 1.488-3.384 3.396 0 1.896 1.344 3.348 3.42 3.348zm-.036-5.868c1.26 0 2.136.78 2.292 2.004h-4.692c.216-1.152 1.164-2.004 2.4-2.004zM78.204 291h.972v-3.552c0-1.428.624-2.052 1.704-2.052.348 0 .612.084.792.204l.408-.936c-.252-.156-.636-.24-1.08-.24-.924 0-1.572.456-1.848 1.32v-1.224h-.948V291zm7.62.132c1.488 0 2.58-.84 3.084-2.04l-.912-.384c-.36.852-1.116 1.5-2.16 1.5-1.368 0-2.424-1.104-2.424-2.448 0-1.356 1.032-2.448 2.388-2.448 1.008 0 1.788.552 2.172 1.44l.9-.396c-.492-1.164-1.644-1.968-3.06-1.968-1.896 0-3.384 1.452-3.384 3.372 0 1.872 1.464 3.372 3.396 3.372zm7.56 0c1.416 0 2.352-.612 3.012-1.644l-.84-.492c-.444.792-1.14 1.248-2.172 1.248-1.368 0-2.316-.876-2.46-2.112h5.724v-.444c0-1.92-1.404-3.3-3.3-3.3-1.944 0-3.384 1.488-3.384 3.396 0 1.896 1.344 3.348 3.42 3.348zm-.036-5.868c1.26 0 2.136.78 2.292 2.004h-4.692c.216-1.152 1.164-2.004 2.4-2.004zM98.126 291h.984v-3.6c0-1.248.888-2.124 2.04-2.124 1.26 0 1.956.816 1.956 2.076V291h.996v-3.696c0-1.812-1.068-2.916-2.76-2.916-1.008 0-1.812.492-2.256 1.212v-1.08h-.96V291zm6.865-5.604h1.26v3.648c0 1.428.648 2.052 1.836 2.052.54 0 .96-.168 1.332-.456l-.516-.78a1.045 1.045 0 01-.744.312c-.552 0-.936-.324-.936-1.152v-3.624h1.896v-.876h-1.896v-2.052l-.972.624v1.428h-1.26v.876zm7.478 5.736c1.116 0 2.112-.48 2.688-1.272V291h.96v-4.128c0-1.464-.996-2.484-2.844-2.484-1.344 0-2.28.552-2.928 1.392l.852.54c.444-.684 1.092-1.092 2.064-1.092 1.26 0 1.896.66 1.896 1.644v.252h-2.052c-1.812 0-2.94.768-2.94 2.1 0 1.044.756 1.908 2.304 1.908zm.18-.864c-1.02 0-1.476-.48-1.476-1.116 0-.804.636-1.236 1.98-1.236h2.004v.888c-.516.96-1.536 1.464-2.508 1.464zm8.201.864c.948 0 1.932-.492 2.448-1.32v.636c0 1.464-.924 2.388-2.352 2.388-1.128 0-1.752-.372-2.268-1.104l-.816.648c.659.852 1.584 1.356 3.096 1.356 1.944 0 3.312-1.296 3.312-3.324v-5.892h-.984v1.164c-.516-.816-1.488-1.296-2.424-1.296-1.824 0-3.312 1.392-3.312 3.372s1.464 3.372 3.3 3.372zm.084-.924c-1.356 0-2.388-1.044-2.388-2.46 0-1.38 1.032-2.46 2.388-2.46 1.38 0 2.412 1.116 2.412 2.46 0 1.368-1.032 2.46-2.412 2.46zm8.227.924c1.416 0 2.352-.612 3.012-1.644l-.84-.492c-.444.792-1.14 1.248-2.172 1.248-1.368 0-2.316-.876-2.46-2.112h5.724v-.444c0-1.92-1.404-3.3-3.3-3.3-1.944 0-3.384 1.488-3.384 3.396 0 1.896 1.344 3.348 3.42 3.348zm-.036-5.868c1.26 0 2.136.78 2.292 2.004h-4.692c.216-1.152 1.164-2.004 2.4-2.004zM20.432 307h.996v-3.612l3.144-5.148h-1.116l-2.52 4.2-2.484-4.2h-1.128l3.108 5.16v3.6zm5.307 0h.996v-6.48h-.996V307zm-.276-8.472c0 .444.324.78.768.78.456 0 .78-.336.78-.78a.757.757 0 00-.78-.78.761.761 0 00-.768.78zm6.174 8.604c1.416 0 2.352-.612 3.013-1.644l-.84-.492c-.445.792-1.14 1.248-2.173 1.248-1.367 0-2.316-.876-2.46-2.112h5.724v-.444c0-1.92-1.404-3.3-3.3-3.3-1.944 0-3.383 1.488-3.383 3.396 0 1.896 1.343 3.348 3.42 3.348zm-.035-5.868c1.26 0 2.135.78 2.292 2.004h-4.692c.215-1.152 1.163-2.004 2.4-2.004zm4.79 5.736h.984v-9.456h-.984V307zm5.766.132c.936 0 1.908-.48 2.424-1.284V307h.972v-9.468h-.972v4.116c-.516-.792-1.488-1.26-2.424-1.26-1.812 0-3.3 1.392-3.3 3.372s1.464 3.372 3.3 3.372zm.084-.924c-1.356 0-2.388-1.044-2.388-2.46 0-1.38 1.032-2.46 2.388-2.46 1.38 0 2.412 1.116 2.412 2.46 0 1.368-1.032 2.46-2.412 2.46zm8.145.792h1.008v-3.792h4.488v-.96h-4.488v-3.06h4.488v-.948h-5.496V307zm10.183.132c1.908 0 3.372-1.5 3.372-3.372 0-1.896-1.476-3.372-3.372-3.372-1.884 0-3.36 1.476-3.36 3.372 0 1.908 1.452 3.372 3.36 3.372zm0-.936c-1.344 0-2.364-1.044-2.364-2.436 0-1.38 1.02-2.448 2.364-2.448 1.344 0 2.376 1.068 2.376 2.448s-1.02 2.436-2.376 2.436zm4.849.804h.972v-3.552c0-1.428.624-2.052 1.704-2.052.348 0 .612.084.792.204l.408-.936c-.252-.156-.636-.24-1.08-.24-.924 0-1.572.456-1.848 1.32v-1.224h-.948V307zm10.847 0v-8.76h-.984c-.012 1.116-.636 1.872-2.052 1.872h-.072v1.008h.132c1.008 0 1.704-.444 1.98-1.116V307h.996zm4.375.12c1.836 0 2.988-1.08 2.988-2.556 0-1.044-.576-1.752-1.476-2.112.78-.384 1.248-1.068 1.248-1.98 0-1.392-1.056-2.352-2.76-2.352-1.272 0-2.208.576-2.772 1.368l.84.528c.372-.624.996-1.02 1.92-1.02 1.116 0 1.8.612 1.8 1.488 0 .9-.708 1.524-1.836 1.524h-.912v.924h.96c1.152 0 2.004.624 2.004 1.62 0 .96-.828 1.656-2.004 1.656-.972 0-1.692-.384-2.184-1.104l-.828.648c.684.9 1.62 1.368 3.012 1.368zm7.656-.12h.984v-7.116l3.108 4.224 3.216-4.32V307h.972v-8.76h-.948l-3.228 4.308-3.108-4.308h-.996V307zm13.159.132c1.908 0 3.372-1.5 3.372-3.372 0-1.896-1.476-3.372-3.372-3.372-1.884 0-3.36 1.476-3.36 3.372 0 1.908 1.452 3.372 3.36 3.372zm0-.936c-1.344 0-2.364-1.044-2.364-2.436 0-1.38 1.02-2.448 2.364-2.448 1.344 0 2.376 1.068 2.376 2.448s-1.02 2.436-2.376 2.436zm4.849.804h.984v-3.6c0-1.248.888-2.124 2.04-2.124 1.26 0 1.956.816 1.956 2.076V307h.996v-3.696c0-1.812-1.068-2.916-2.76-2.916-1.008 0-1.812.492-2.256 1.212v-1.08h-.96V307zm6.866-5.604h1.26v3.648c0 1.428.648 2.052 1.836 2.052.54 0 .96-.168 1.332-.456l-.516-.78a1.045 1.045 0 01-.744.312c-.552 0-.936-.324-.936-1.152v-3.624h1.896v-.876h-1.896v-2.052l-.972.624v1.428h-1.26v.876zm5.533 5.604h.984v-3.6c0-1.248.888-2.124 2.028-2.124 1.272 0 1.956.816 1.956 2.076V307h1.008v-3.696c0-1.812-1.068-2.916-2.76-2.916-.984 0-1.788.468-2.244 1.176v-4.02h-.972V307zm10.016.132c1.692.012 2.556-.996 2.556-2.016 0-1.332-1.224-1.644-2.34-1.86-1.008-.204-1.788-.336-1.788-1.008 0-.6.408-1.032 1.404-1.032.828 0 1.392.348 1.776.864l.816-.552c-.576-.708-1.392-1.152-2.592-1.152-1.536-.012-2.412.876-2.412 1.884 0 1.296 1.188 1.596 2.304 1.812.948.192 1.836.336 1.836 1.056 0 .648-.528 1.128-1.536 1.128-.984 0-1.644-.42-2.088-1.056l-.852.576c.576.828 1.5 1.356 2.916 1.356zM28.2 259.4c6.6 0 10.6-3.88 10.6-8.96 0-3.12-1.6-5.32-4.16-6.64 2.12-1.4 3.44-3.56 3.44-6.24 0-4.88-3.8-8.16-10.08-8.16-4.48 0-8 1.96-10.12 5.2l4.68 2.8c1.12-2.04 2.84-3.2 5.48-3.2 3 0 4.44 1.6 4.44 3.52 0 2.16-1.6 3.8-4.68 3.8h-3v5.08h3.24c3.04 0 5.08 1.4 5.08 3.72 0 2.44-2.04 3.96-4.92 3.96-2.68 0-4.72-1-6.16-3.36l-4.72 3.48c2.52 3.36 5.72 5 10.88 5zm13.995-3.36c0 2.04 1.4 3.52 3.48 3.52 2.04 0 3.48-1.48 3.48-3.52s-1.44-3.52-3.48-3.52-3.48 1.48-3.48 3.52zM54.99 259h6.04l10.6-24.28v-4.92h-19.2v5.28h13.32L54.99 259zm29.708.4c6.12 0 10.32-4.08 10.32-9.84 0-6.48-4.16-10.04-9.64-10.04-2.12 0-3.84.72-5.04 1.68l1-6.16h11.76v-5.24h-16.12l-2.36 15.64 5.24 2.12c.92-1.64 2.44-2.92 4.72-2.92 2.8 0 4.72 1.96 4.72 4.8 0 2.72-2 4.72-4.6 4.72-2.48 0-4.12-1.44-4.92-3.28l-5.48 3.08c2 3.24 5.48 5.44 10.4 5.44zm18.471-22.84c0-1.44 1.16-2.56 2.52-2.56 1.4 0 2.52 1.12 2.52 2.56 0 1.4-1.12 2.52-2.52 2.52-1.36 0-2.52-1.12-2.52-2.52zm12.36 15.68c0 4 3.2 7.2 7.16 7.2s7.16-3.2 7.16-7.2c0-3.92-3.2-7.16-7.16-7.16s-7.16 3.24-7.16 7.16zm-17.4 6.76h7.04l25.08-29.2h-7.04L98.129 259zm22.08-6.76c0-1.4 1.12-2.52 2.48-2.52 1.4 0 2.52 1.12 2.52 2.52 0 1.44-1.12 2.56-2.52 2.56-1.36 0-2.48-1.12-2.48-2.56zm-21.68-15.68c0 3.92 3.2 7.12 7.16 7.12s7.16-3.2 7.16-7.12c0-4-3.2-7.16-7.16-7.16s-7.16 3.16-7.16 7.16zm47.519 5.08l1.52-2.56-5.4-2.24 5.4-2.24-1.44-2.56-4.64 3.48.72-5.76h-2.96l.72 5.76-4.64-3.52-1.48 2.52 5.36 2.32-5.36 2.24 1.44 2.56 4.68-3.52-.72 5.8h2.96l-.72-5.8 4.56 3.52z" fill="#193526"/></svg>