<svg width="107" height="29" viewBox="0 0 107 29" fill="none" xmlns="http://www.w3.org/2000/svg"><path d="M9.24 22.28c4.564 0 7.504-2.912 7.504-6.412 0-4.424-3.612-5.432-6.748-6.104-2.548-.588-4.592-.896-4.592-2.548 0-1.344.952-2.436 3.164-2.436 2.352 0 3.724.98 4.788 2.548l3.22-2.52c-2.072-2.296-4.34-3.556-7.952-3.556-4.256 0-7.252 2.688-7.252 6.048 0 4.144 3.416 5.124 6.468 5.768 2.828.644 4.788 1.036 4.788 2.94 0 1.484-1.148 2.548-3.36 2.548-2.436 0-4.256-1.092-5.6-3.22L.224 18.08c1.932 2.464 4.62 4.2 9.016 4.2zm14.86.028c2.38 0 4.451-1.064 5.543-2.632V22h3.724v-9.296c0-3.808-2.547-6.132-7-6.132-3.387 0-5.6 1.428-7.14 3.444l3.556 1.764c.7-1.26 1.848-1.988 3.556-1.988 2.184 0 3.277 1.12 3.277 2.744v.196H25.64c-4.2 0-6.805 1.932-6.805 5.068 0 2.66 1.96 4.508 5.264 4.508zm1.12-3.192c-1.596 0-2.352-.56-2.352-1.652 0-1.176.924-1.904 3.22-1.904h3.555v.812c-.756 1.624-2.576 2.744-4.424 2.744zM40.011 22h3.836l5.936-15.12H45.78l-3.752 10.192L38.304 6.88h-4.088L40.012 22zm11.621 0h3.948V6.88h-3.948V22zM51.13 2.624c0 1.428 1.008 2.464 2.464 2.464 1.484 0 2.492-1.036 2.492-2.464 0-1.456-1.008-2.52-2.492-2.52-1.428 0-2.464 1.064-2.464 2.52zM58.66 22h3.892v-8.344c0-2.352 1.4-3.696 3.22-3.696 2.044 0 3.08 1.344 3.08 3.5V22H72.8v-9.128c0-3.948-2.268-6.3-5.852-6.3-1.876 0-3.444.84-4.424 2.212V6.88H58.66V22zm23.922.224c1.96 0 3.696-.896 4.76-2.38v1.148c0 2.38-1.736 4.032-4.172 4.032-1.988 0-3.108-.728-4.116-2.044l-3.192 2.492c1.708 1.988 3.976 2.996 7.42 2.996 4.648 0 7.924-3.192 7.924-7.588v-14h-3.864v1.988c-1.008-1.4-2.688-2.296-4.704-2.296-3.864 0-7.336 3.052-7.336 7.84s3.556 7.812 7.28 7.812zm.756-3.584c-2.324 0-4.2-1.876-4.2-4.256 0-2.408 1.876-4.256 4.2-4.256 2.38 0 4.2 1.876 4.2 4.256 0 2.38-1.82 4.256-4.2 4.256zm16.917 3.668c4.396.028 6.496-2.632 6.496-4.984 0-3.248-2.968-4.116-5.488-4.62-2.212-.476-3.444-.728-3.444-1.68 0-.84.728-1.456 2.24-1.456 1.4 0 2.352.588 2.968 1.596l3.528-1.428c-1.4-2.016-3.304-3.22-6.496-3.22-3.724-.028-6.188 2.184-6.188 4.732 0 3.192 2.828 3.976 5.376 4.508 1.932.392 3.556.644 3.556 1.736 0 .896-.84 1.652-2.408 1.652-1.596 0-2.8-.7-3.472-2.044l-3.724 1.456c1.204 2.408 3.472 3.752 7.056 3.752z" fill="#fff"/></svg>