<svg width="131" height="31" viewBox="0 0 131 31" fill="none" xmlns="http://www.w3.org/2000/svg"><path d="M11.2 30.4c6.6 0 10.6-3.88 10.6-8.96 0-3.12-1.6-5.32-4.16-6.64 2.12-1.4 3.44-3.56 3.44-6.24C21.08 3.68 17.28.4 11 .4 6.52.4 3 2.36.88 5.6l4.68 2.8c1.12-2.04 2.84-3.2 5.48-3.2 3 0 4.44 1.6 4.44 3.52 0 2.16-1.6 3.8-4.68 3.8h-3v5.08h3.24c3.04 0 5.08 1.4 5.08 3.72 0 2.44-2.04 3.96-4.92 3.96-2.68 0-4.72-1-6.16-3.36L.32 25.4c2.52 3.36 5.72 5 10.88 5zm13.995-3.36c0 2.04 1.4 3.52 3.48 3.52 2.04 0 3.48-1.48 3.48-3.52s-1.44-3.52-3.48-3.52-3.48 1.48-3.48 3.52zM37.99 30h6.04l10.6-24.28V.8h-19.2v5.28h13.32L37.99 30zm29.708.4c6.12 0 10.32-4.08 10.32-9.84 0-6.48-4.16-10.04-9.64-10.04-2.12 0-3.84.72-5.04 1.68l1-6.16h11.76V.8h-16.12l-2.36 15.64 5.24 2.12c.92-1.64 2.44-2.92 4.72-2.92 2.8 0 4.72 1.96 4.72 4.8 0 2.72-2 4.72-4.6 4.72-2.48 0-4.12-1.44-4.92-3.28l-5.48 3.08c2 3.24 5.48 5.44 10.4 5.44zM86.17 7.56c0-1.44 1.16-2.56 2.52-2.56 1.4 0 2.52 1.12 2.52 2.56 0 1.4-1.12 2.52-2.52 2.52-1.36 0-2.52-1.12-2.52-2.52zm12.36 15.68c0 4 3.2 7.2 7.16 7.2s7.16-3.2 7.16-7.2c0-3.92-3.2-7.16-7.16-7.16s-7.16 3.24-7.16 7.16zM81.13 30h7.04L113.25.8h-7.04L81.129 30zm22.08-6.76c0-1.4 1.12-2.52 2.48-2.52 1.4 0 2.52 1.12 2.52 2.52 0 1.44-1.12 2.56-2.52 2.56-1.36 0-2.48-1.12-2.48-2.56zM81.529 7.56c0 3.92 3.2 7.12 7.16 7.12s7.16-3.2 7.16-7.12c0-4-3.2-7.16-7.16-7.16s-7.16 3.16-7.16 7.16zm47.519 5.08l1.52-2.56-5.4-2.24 5.4-2.24-1.44-2.56-4.64 3.48.72-5.76h-2.96l.72 5.76-4.64-3.52-1.48 2.52 5.36 2.32-5.36 2.24 1.44 2.56 4.68-3.52-.72 5.8h2.96l-.72-5.8 4.56 3.52z" fill="#193526"/></svg>