<svg width="163" height="56" viewBox="0 0 163 56" fill="none" xmlns="http://www.w3.org/2000/svg"><path d="M2.303 45h23.218v-6.298H9.212c.188-3.149 3.666-5.17 7.426-7.473 4.371-2.632 9.024-5.593 9.024-11.139 0-5.546-4.23-9.87-11.468-9.87-5.828 0-10.199 3.055-12.502 7.708l5.875 2.867c1.128-2.773 3.384-4.841 6.533-4.841 3.149 0 4.888 1.692 4.888 4.089 0 2.773-3.243 4.653-7.05 7.003-4.559 2.773-9.635 6.204-9.635 12.408V45zm25.226-3.478c0 2.397 1.645 4.136 4.09 4.136 2.396 0 4.088-1.739 4.088-4.136 0-2.397-1.692-4.136-4.089-4.136-2.397 0-4.089 1.739-4.089 4.136zm23.495-2.397c-4.183 0-6.768-2.303-6.768-10.763v-1.41c0-8.084 2.726-10.434 6.815-10.434 3.995 0 6.72 2.115 6.72 10.434v1.41c0 8.366-2.584 10.763-6.767 10.763zm0 6.345c7.849 0 13.442-4.418 13.442-17.014v-1.598c0-11.75-5.781-16.638-13.442-16.638-7.52 0-13.395 4.747-13.395 16.638v1.598c0 12.455 5.452 17.014 13.395 17.014zm29.274-6.345c-4.183 0-6.768-2.303-6.768-10.763v-1.41c0-8.084 2.726-10.434 6.815-10.434 3.995 0 6.72 2.115 6.72 10.434v1.41c0 8.366-2.584 10.763-6.767 10.763zm0 6.345c7.849 0 13.442-4.418 13.442-17.014v-1.598c0-11.75-5.781-16.638-13.442-16.638-7.52 0-13.395 4.747-13.395 16.638v1.598c0 12.455 5.452 17.014 13.395 17.014zm21.19-26.837c0-1.692 1.363-3.008 2.961-3.008 1.645 0 2.961 1.316 2.961 3.008a2.949 2.949 0 01-2.961 2.961c-1.598 0-2.961-1.316-2.961-2.961zm14.523 18.424c0 4.7 3.76 8.46 8.413 8.46 4.653 0 8.413-3.76 8.413-8.46 0-4.606-3.76-8.413-8.413-8.413-4.653 0-8.413 3.807-8.413 8.413zM95.566 45h8.272l29.469-34.31h-8.272L95.565 45zm25.944-7.943c0-1.645 1.316-2.961 2.914-2.961a2.949 2.949 0 012.961 2.961c0 1.692-1.316 3.008-2.961 3.008-1.598 0-2.914-1.316-2.914-3.008zM96.036 18.633c0 4.606 3.76 8.366 8.413 8.366 4.653 0 8.413-3.76 8.413-8.366 0-4.7-3.76-8.413-8.413-8.413a8.375 8.375 0 00-8.413 8.413zm53.485 5.969l1.786-3.008-6.345-2.632 6.345-2.632-1.692-3.008-5.452 4.089.846-6.768h-3.478l.846 6.768-5.452-4.136-1.739 2.961 6.298 2.726-6.298 2.632 1.692 3.008 5.499-4.136-.846 6.815h3.478l-.846-6.815 5.358 4.136zM138.264 45h1.368l.696-1.872h3.96l.708 1.872h1.356l-3.384-8.76h-1.32L138.264 45zm4.044-7.128l1.512 4.008h-3.024l1.512-4.008zM147.501 45h1.308v-2.568h2.076c1.896 0 3.216-1.368 3.216-3.096 0-1.74-1.32-3.096-3.192-3.096h-3.408V45zm3.3-7.56c1.224 0 1.992.816 1.992 1.896 0 1.068-.768 1.884-1.992 1.884h-1.992v-3.78h1.992zm6.812 7.56h1.296v-3.684l3.108-5.076h-1.44l-2.304 3.828-2.292-3.828h-1.464l3.096 5.064V45z" fill="#193526"/></svg>