<svg width="180" height="42" viewBox="0 0 180 42" fill="none" xmlns="http://www.w3.org/2000/svg"><g clip-path="url(#clip0_24_120)" fill="#193526"><path d="M74.883 31.895h-2.44v-1.581h6.527v1.581h-2.416v7.296h-1.671v-7.296z"/><path d="M77.936 35.909a3.382 3.382 0 013.427-3.418c1.947 0 3.438 1.52 3.438 3.418 0 1.898-1.479 3.417-3.438 3.417-1.96 0-3.427-1.532-3.427-3.417zm5.217-.013c0-1.02-.793-1.836-1.78-1.836-.986 0-1.78.815-1.78 1.836 0 1.021.781 1.836 1.78 1.836 1 0 1.78-.815 1.78-1.836zM85.57 35.896c0-2.08 1.492-3.405 3.15-3.405.866 0 1.587.39 2.02.997v-.863h1.658v6.079c0 1.909-1.407 3.294-3.401 3.294-1.48 0-2.453-.437-3.186-1.3l1.37-1.082c.433.571.913.888 1.768.888 1.046 0 1.79-.717 1.79-1.75v-.499a2.476 2.476 0 01-2.043 1.034c-1.6 0-3.126-1.313-3.126-3.393zm5.254-.012c0-1.034-.781-1.849-1.803-1.849-1.022 0-1.803.803-1.803 1.849 0 1.046.806 1.848 1.803 1.848.997 0 1.803-.815 1.803-1.848zM93.251 35.92c0-1.91 1.467-3.429 3.402-3.429s3.355 1.423 3.355 3.368v.632H94.85c.217.85.903 1.386 1.863 1.386.769 0 1.286-.34 1.611-.876l1.358.803c-.649.923-1.563 1.519-2.993 1.519-2.092 0-3.439-1.496-3.439-3.405l.001.002zm1.647-.742h3.462c-.217-.815-.841-1.265-1.708-1.265s-1.492.498-1.756 1.265h.002zM100.404 32.625h1.201v-1.423l1.636-.973v2.394h1.708v1.484h-1.708v2.699c0 .693.288.936.709.936.228 0 .408-.073.601-.244l.758 1.313c-.42.316-.95.498-1.551.498-1.358 0-2.151-.656-2.151-2.444v-2.761h-1.202V32.62l-.001.005zM105.983 29.61h1.646v3.817a2.294 2.294 0 011.888-.936c1.539 0 2.524 1.022 2.524 2.736v3.964h-1.708v-3.71c0-.935-.445-1.519-1.323-1.519-.781 0-1.382.584-1.382 1.605v3.624h-1.647v-9.582h.002zM112.871 35.92c0-1.91 1.467-3.429 3.402-3.429s3.354 1.423 3.354 3.368v.632h-5.157c.216.85.902 1.386 1.863 1.386.768 0 1.286-.34 1.611-.876l1.358.803c-.649.923-1.564 1.519-2.994 1.519-2.091 0-3.439-1.496-3.439-3.405l.002.002zm1.646-.742h3.462c-.216-.815-.841-1.265-1.708-1.265s-1.491.498-1.755 1.265h.001zM120.468 32.625h1.636v1.008c.313-.777.962-1.13 1.79-1.13.433 0 .818.11 1.094.255l-.601 1.655c-.181-.134-.493-.232-.865-.232-.854 0-1.408.438-1.408 1.544v3.466h-1.646v-6.566zM128.229 39.192v-.065l.617-.546v-5.358h-.939v-.065l.951-.701c.155-1.898 1.21-3.276 2.532-3.276.258 0 .579.052.746.13v1.39h-.064l-1.633-.727c-.45.077-.823.846-.823 1.677 0 .677.297.975.952.975h1.298l-.091.597h-1.529v5.358l.836.546v.065h-2.854.001zM131.97 35.994c0-2.067 1.324-3.563 3.213-3.563s3.06 1.378 3.06 3.394-1.324 3.563-3.213 3.563-3.06-1.378-3.06-3.394zm4.808.234c0-2.016-.734-3.341-1.826-3.341-.952 0-1.518.975-1.518 2.705 0 2.016.734 3.341 1.826 3.341.951 0 1.518-.974 1.518-2.705zM139.593 33.693l-.733-.612v-.065l1.903-.585h.115l.09 1.313h.065c.59-.936 1.08-1.313 1.723-1.313.282 0 .54.077.669.169v1.625h-.065l-1.144-.78c-.039-.013-.077-.013-.115-.013-.361 0-.913.403-1.105.858v4.291l.669.546v.066h-2.687v-.066l.617-.546v-4.889h-.002zM149.133 39.4c-.631 0-1.465-.13-2.211-.389v-8.556l-.72-.611v-.053l2.006-.611h.129v4.303h.076c.656-.754 1.183-1.054 1.891-1.054 1.504 0 2.596 1.34 2.596 3.186 0 2.21-1.568 3.784-3.767 3.784v.002zm.335-6.007c-.502 0-.887.22-1.131.573v4.615c.27.196.681.324 1.144.324 1.248 0 2.083-.988 2.083-2.613s-.861-2.899-2.096-2.899zM153.594 36.047c0-2.067 1.35-3.615 3.11-3.615 1.415 0 2.352 1.014 2.699 2.926h-4.666c.026 1.794.99 2.964 2.443 2.964.925 0 1.683-.494 2.237-1.47l.064.039c-.296 1.547-1.35 2.497-2.84 2.497-1.8 0-3.047-1.34-3.047-3.341zm1.157-1.105h3.277c-.296-1.444-.784-2.055-1.62-2.055-.939 0-1.556.767-1.659 2.055h.002zM160.677 38.27v-5.046h-.913v-.065l2.108-1.756h.218v1.223h1.85l-.09.598h-1.762v4.316c0 .701.347 1.027.913 1.027.373 0 .758-.157 1.081-.469l.052.04c-.373.78-1.119 1.247-1.941 1.247-.734 0-1.351-.365-1.518-1.117l.002.001zM165.216 38.27v-5.046h-.913v-.065l2.108-1.756h.218v1.223h1.85l-.09.598h-1.762v4.316c0 .701.347 1.027.913 1.027.373 0 .758-.157 1.081-.469l.052.04c-.373.78-1.119 1.247-1.941 1.247-.734 0-1.351-.365-1.518-1.117l.002.001zM169.047 36.047c0-2.067 1.35-3.615 3.11-3.615 1.415 0 2.353 1.014 2.7 2.926h-4.667c.026 1.794.99 2.964 2.443 2.964.925 0 1.683-.494 2.237-1.47l.065.039c-.296 1.547-1.351 2.497-2.84 2.497-1.8 0-3.048-1.34-3.048-3.341zm1.157-1.105h3.278c-.296-1.444-.784-2.055-1.621-2.055-.939 0-1.556.767-1.658 2.055h.001zM176.168 33.693l-.733-.612v-.065l1.903-.585h.115l.09 1.313h.065c.591-.936 1.08-1.313 1.723-1.313.282 0 .54.077.669.169v1.625h-.064l-1.145-.78c-.038-.013-.077-.013-.115-.013-.361 0-.913.403-1.105.858v4.291l.669.546v.066h-2.687v-.066l.617-.546v-4.889h-.002zM130.499 10.8c.95-.008 2.574.212 2.571 1.457-.006 1.253-1.305 2.131-2.574 2.174l.003-3.633v.002zm-.01 5.065c1.645-.09 3.006.565 3.019 1.715-.008 1.24-1.645 2.054-3.029 2.168l.01-3.883zm-1.919 5.653c5.306-.01 8.12-2.065 8.129-4.057.005-1.597-1.664-2.424-2.93-2.642v-.113c1.945-.833 2.314-1.977 2.317-2.643-.007-.962-.432-2.376-4.275-2.775-1.185-.088-2.331-.177-4.37-.17.112.392.115 3.381.108 3.926l-.003 1.962c-.003.333-.006 5.585-.118 6.502l1.142.011v-.001zm27.694.142c-.056-.611.055-7.056.055-7.626.227.29 7.961 6.872 9.411 7.834l.11-.038c.045-1.542.224-4.226.328-6.733.178-2.557.3-4.936.415-5.95l-2.919-.12c0 .746-.073 6.857-.073 7.586-.605-.498-7.686-6.572-9.382-7.848l-.123.056c-.116 1.059-.305 3.911-.471 6.672a134.35 134.35 0 01-.334 6.083l2.981.086.002-.002zm15.866.066c-.059-.346-.114-4.3-.114-5.618l.006-.621.123.004c1.125 1.503 5.259 5.999 5.48 6.295l2.373-2.067c-.655-.713-4.058-3.958-4.713-4.626.969-.928 3.665-3.38 4.397-4.108l-2.205-1.959c-.383.475-4.354 4.633-5.341 5.798l-.118-.01v-.586c.004-1.572.075-4.954.126-5.24h-3.253c-.008.392.047 3.885.047 5.388l-.003 1.904c-.009 1.974-.064 4.95-.071 5.442l3.264.003h.002zm-150.645.963l3.967 1.723-.479 1.167-3.664-1.252-3.667 1.92-3.404-1.517-3.505 1.735-3.776-1.823-3.583 1.485-.589-1.11 3.947-1.958 4.364 1.562 3.025-1.646 3.102 1.474 4.265-1.76h-.003zm-7.49-19.762l4.685 4.929-4.22-.695 5.63 5.649-6.004-1.236 5.757 5.744-6.524-1.405.873 5.4-2.714-.003.718-5.313-4.878 2.769 3.876-6.953-4.254 2.175 5.124-7.416-3.19.852 5.122-4.496v-.001zM2.34 0L1.02.09.037 7.201l.244 8.692-.132 8.575L0 30.328l7.769-.085 10.431.222 7.158-.564 2.88-.326-.237-12.603-.923-7.457.5-8.446L9.737.107 2.338 0zm46.908 12.111c.004-1.305.009-2.518.009-2.891l-3.094-.006c.053.61.142 1.718.134 2.896v.619c-.005 3.155-.059 4.401-.692 5.346a2.55 2.55 0 01-2.162 1.112c-.806-.005-1.582-.3-2.072-1.046-.663-.916-.814-2.119-.805-4.698l.004-1.11c.006-1.531.059-2.446.148-2.857l-3.192.003c0 .373.002 1.717 0 2.462l-.003.9c0 4.118.276 5.354 1.132 6.598 1.27 1.827 3.328 2.044 4.568 2.05 1.91 0 3.428-.597 4.538-1.845 1.3-1.533 1.48-3.505 1.49-6.752l-.005-.78h.002zm3.036 9.594c.255-.712 2.113-6.254 2.43-7.027h.024c.307.68 2.282 4.063 3.51 5.95l.076-.004c1.112-1.437 3.706-5.54 4.101-6.022.197.393 2.216 5.758 2.812 7.102l2.674-1.15c-.61-1.256-3.93-9.11-4.91-11.134l-.08.003c-.706 1.076-3.666 5.918-4.315 6.843-.517-.815-3.377-5.767-4.243-7.224l-.102.006c-.646 1.454-4.272 11.036-4.605 11.717l2.63.94h-.002zm20.164-10.477c2.575.08 3 1.327 2.999 2.187-.003 1.57-1.509 2.545-3.006 2.855l.006-5.042h.001zm-.015 10.217c-.005-.31-.003-2.227.005-2.564l.006-.708c3.93-.656 6.144-2.882 6.148-5.197.002-1.932-1.563-2.95-3.64-3.371-1.308-.273-3.272-.377-5.635-.377.003.273.102 3.808.096 4.213l-.004 1.892c0 1.201-.057 5.409-.106 6.112h3.13zm10.637-5.893c.006-2.184 1.235-4.242 3.764-4.245 1.695.008 3.302 1.205 3.294 3.768 0 2.86-1.781 4.271-3.66 4.271-1.773 0-3.4-1.236-3.398-3.793m10.81 5.134a92.984 92.984 0 01-3.936-.26l.005-.07c2.246-1.17 3.442-3.227 3.443-5.468.01-3.5-2.506-5.747-6.333-5.747-4.503.005-7.262 3.146-7.264 6.54-.01 1.563.606 3.162 1.981 4.302 1.739 1.454 4.195 1.504 4.41 1.506.162.001.628.035 1.354.177 1.932.378 4.109.89 5.966 1.275l.373-2.256.001.001zm12.963-8.577c-.003-1.304-.003-2.514-.003-2.888h-3.069c.005.603.055 1.716.051 2.89l-.005.615c0 3.159-.006 4.405-.672 5.35-.459.663-1.171 1.11-2.105 1.11-.864 0-1.587-.302-2.069-1.046-.732-.916-.807-2.122-.8-4.693V12.33c.004-1.524.007-2.446.049-2.85h-3.103c0 .367-.04 1.713-.043 2.465v.902c0 4.11.331 5.35 1.178 6.597 1.25 1.824 3.35 2.043 4.527 2.05 1.941-.008 3.456-.596 4.527-1.848 1.313-1.532 1.523-3.501 1.529-6.751l.005-.784.003-.001zm5.292 4.54c.341-.671 1.495-3.035 1.871-3.693.307.539 1.527 2.794 1.953 3.526l-3.825.168h.001zm-2.413 4.975c.431-.674 1.344-2.685 1.508-3.025l5.561-.269c.209.263 1.534 2.52 1.895 3.295l2.714-1.56c-.931-1.29-5.404-8.55-7.254-11.324l-.131.006c-1.183 1.802-6.116 10.299-6.827 11.5l2.534 1.377zm32.846-4.977c.341-.672 1.495-3.036 1.871-3.694.306.538 1.526 2.793 1.953 3.526l-3.825.168h.001zm-2.414 4.974c.432-.674 1.345-2.685 1.509-3.025l5.561-.269c.208.263 1.534 2.52 1.895 3.295l2.714-1.56c-.931-1.29-5.404-8.55-7.255-11.324l-.13.006c-1.183 1.802-6.117 10.299-6.827 11.5l2.533 1.377z"/></g><defs><clipPath id="clip0_24_120"><path fill="#fff" d="M0 0h180v42H0z"/></clipPath></defs></svg>