<svg width="513" height="90" viewBox="0 0 513 90" fill="none" xmlns="http://www.w3.org/2000/svg"><path fill="#193526" d="M0 0h486v90H0z"/><circle cx="256" cy="45" r="45" fill="#D9D9D9"/><path fill="#D9D9D9" d="M211 0h90v44h-90z"/><path fill="#D9D9D9" d="M256 0h257v90H256z"/><path d="M32.58 39.26c4.238 0 6.968-2.704 6.968-5.954 0-4.108-3.354-5.044-6.266-5.668-2.366-.546-4.264-.832-4.264-2.366 0-1.248.884-2.262 2.938-2.262 2.184 0 3.458.91 4.446 2.366l2.99-2.34c-1.924-2.132-4.03-3.302-7.384-3.302-3.952 0-6.734 2.496-6.734 5.616 0 3.848 3.172 4.758 6.006 5.356 2.626.598 4.446.962 4.446 2.73 0 1.378-1.066 2.366-3.12 2.366-2.262 0-3.952-1.014-5.2-2.99l-3.198 2.548c1.794 2.288 4.29 3.9 8.372 3.9zm13.798.026c2.21 0 4.134-.988 5.148-2.444V39h3.458v-8.632c0-3.536-2.366-5.694-6.5-5.694-3.146 0-5.2 1.326-6.63 3.198l3.302 1.638c.65-1.17 1.716-1.846 3.302-1.846 2.028 0 3.042 1.04 3.042 2.548v.182h-3.692c-3.9 0-6.318 1.794-6.318 4.706 0 2.47 1.82 4.186 4.888 4.186zm1.04-2.964c-1.482 0-2.184-.52-2.184-1.534 0-1.092.858-1.768 2.99-1.768h3.302v.754c-.702 1.508-2.392 2.548-4.108 2.548zM61.154 39h3.562l5.512-14.04H66.51l-3.484 9.464-3.458-9.464h-3.796L61.154 39zm10.791 0h3.666V24.96h-3.666V39zm-.468-17.992c0 1.326.936 2.288 2.288 2.288 1.378 0 2.314-.962 2.314-2.288 0-1.352-.936-2.34-2.314-2.34-1.326 0-2.288.988-2.288 2.34zM78.47 39h3.614v-7.748c0-2.184 1.3-3.432 2.99-3.432 1.898 0 2.86 1.248 2.86 3.25V39H91.6v-8.476c0-3.666-2.106-5.85-5.434-5.85-1.742 0-3.198.78-4.108 2.054V24.96H78.47V39zm22.213.208c1.82 0 3.432-.832 4.42-2.21v1.066c0 2.21-1.612 3.744-3.874 3.744-1.846 0-2.886-.676-3.822-1.898l-2.964 2.314c1.586 1.846 3.692 2.782 6.89 2.782 4.316 0 7.358-2.964 7.358-7.046v-13h-3.588v1.846c-.936-1.3-2.496-2.132-4.368-2.132-3.588 0-6.812 2.834-6.812 7.28s3.302 7.254 6.76 7.254zm.702-3.328c-2.158 0-3.9-1.742-3.9-3.952 0-2.236 1.742-3.952 3.9-3.952 2.21 0 3.9 1.742 3.9 3.952s-1.69 3.952-3.9 3.952zm15.709 3.406c4.082.026 6.032-2.444 6.032-4.628 0-3.016-2.756-3.822-5.096-4.29-2.054-.442-3.198-.676-3.198-1.56 0-.78.676-1.352 2.08-1.352 1.3 0 2.184.546 2.756 1.482l3.276-1.326c-1.3-1.872-3.068-2.99-6.032-2.99-3.458-.026-5.746 2.028-5.746 4.394 0 2.964 2.626 3.692 4.992 4.186 1.794.364 3.302.598 3.302 1.612 0 .832-.78 1.534-2.236 1.534-1.482 0-2.6-.65-3.224-1.898l-3.458 1.352c1.118 2.236 3.224 3.484 6.552 3.484zM136.505 39h3.614V23.4h5.226v-3.38h-14.118v3.38h5.278V39zm11.282 0h3.562v-7.748c0-2.184 1.3-3.432 2.99-3.432 1.898 0 2.86 1.248 2.86 3.25V39h3.692v-8.476c0-3.666-2.132-5.85-5.46-5.85-1.716 0-3.146.754-4.082 2.002v-8.164h-3.562V39zm20.212.286c2.21 0 4.134-.988 5.148-2.444V39h3.458v-8.632c0-3.536-2.366-5.694-6.5-5.694-3.146 0-5.2 1.326-6.63 3.198l3.302 1.638c.65-1.17 1.716-1.846 3.302-1.846 2.028 0 3.042 1.04 3.042 2.548v.182h-3.692c-3.9 0-6.318 1.794-6.318 4.706 0 2.47 1.82 4.186 4.888 4.186zm1.04-2.964c-1.482 0-2.184-.52-2.184-1.534 0-1.092.858-1.768 2.99-1.768h3.302v.754c-.702 1.508-2.392 2.548-4.108 2.548zm9.071-8.19h2.6v5.902c0 3.822 1.716 5.226 4.654 5.226 1.3 0 2.444-.39 3.354-1.066l-1.638-2.808c-.416.364-.806.52-1.3.52-.91 0-1.534-.52-1.534-2.002v-5.772h3.692V24.96h-3.692v-5.122l-3.536 2.08v3.042h-2.6v3.172zM30.786 66.39c4.394 0 7.436-2.392 7.436-5.824 0-5.824-8.866-4.888-8.866-9.308 0-1.69 1.222-2.86 3.094-2.86.26 0 .572.026.858.13l3.874 2.938h.13v-3.068c-.78-.572-2.964-.988-4.862-.988-3.77 0-6.448 2.158-6.448 5.226 0 5.824 8.866 4.862 8.866 9.308 0 2.08-1.638 3.432-3.562 3.432-.468 0-.988-.104-1.196-.182l-4.524-3.406h-.13v3.406c1.066.65 3.276 1.196 5.33 1.196zm14.243 0c1.612 0 3.12-.78 4.55-2.366h.156l.312 2.366 4.342-1.066v-.13l-1.326-1.222V52.35h-.26l-4.576 1.248v.13l1.43 1.3v8.06c-.988.832-1.898 1.248-2.808 1.248-1.326 0-2.106-.832-2.106-2.21v-9.802h-.26l-4.576 1.248v.13l1.43 1.3v7.878c0 2.054 1.482 3.51 3.692 3.51zm14.307-16.744c1.17 0 1.95-.702 1.95-1.846 0-1.144-.78-1.82-1.95-1.82-1.196 0-1.976.676-1.976 1.82 0 1.144.78 1.846 1.976 1.846zM62.248 66v-.104L61.026 64.7V52.35h-.26l-4.576 1.248v.104l1.43 1.3V64.7l-1.196 1.196V66h5.824zm6.49.39c1.795 0 3.38-.988 4.135-2.6l-.104-.078c-.598.52-1.326.806-2.028.806-1.092 0-1.846-.624-1.846-2.002V54.04h3.38l.182-1.3h-3.562v-2.652h-.442l-4.758 3.822v.13h1.794v10.036c.364 1.612 1.742 2.314 3.25 2.314zm21.863-.52l-1.352-1.456v-7.358l4.888-7.514 1.274-1.612v-.13h-4.68v.13l1.768 1.82-3.848 6.188-4.004-6.552L86 47.93v-.13h-7.02v.13l1.196 1.456 5.33 8.164v6.864l-1.378 1.456V66h6.474v-.13zm9.312.52c4.004 0 6.76-2.964 6.76-7.176 0-4.108-2.626-6.864-6.5-6.864-4.004 0-6.734 2.964-6.734 7.176 0 4.108 2.6 6.864 6.474 6.864zm.442-.988c-2.054 0-3.406-2.626-3.406-6.734 0-3.484 1.014-5.356 2.782-5.356 2.054 0 3.432 2.626 3.432 6.734 0 3.484-1.04 5.356-2.808 5.356zm12.848.988c1.612 0 3.12-.78 4.55-2.366h.156l.312 2.366 4.342-1.066v-.13l-1.326-1.222V52.35h-.26l-4.576 1.248v.13l1.43 1.3v8.06c-.988.832-1.898 1.248-2.808 1.248-1.326 0-2.106-.832-2.106-2.21v-9.802h-.26l-4.576 1.248v.13l1.43 1.3v7.878c0 2.054 1.482 3.51 3.692 3.51z" fill="#fff"/><path d="M362.68 66h.64l1.328-3.424L365.976 66h.592l1.496-4.32h-.68l-1.128 3.4-1.288-3.4h-.608l-1.32 3.424-1.088-3.424h-.688L362.68 66zm6.232 0h.664v-4.32h-.664V66zm-.184-5.648c0 .296.216.52.512.52.304 0 .52-.224.52-.52a.504.504 0 00-.52-.52.507.507 0 00-.512.52zm1.644 1.912h.84v2.432c0 .952.432 1.368 1.224 1.368.36 0 .64-.112.888-.304l-.344-.52a.697.697 0 01-.496.208c-.368 0-.624-.216-.624-.768v-2.416h1.264v-.584h-1.264v-1.368l-.648.416v.952h-.84v.584zM374.061 66h.656v-2.4c0-.832.592-1.416 1.352-1.416.848 0 1.304.544 1.304 1.384V66h.672v-2.464c0-1.208-.712-1.944-1.84-1.944-.656 0-1.192.312-1.496.784v-2.68h-.648V66zm10.781-1.624c0-1.064-.824-1.416-1.592-1.672v-2.016c.392.08.696.296.92.624l.544-.408c-.36-.432-.808-.728-1.456-.8v-.824h-.64v.824c-.872.112-1.504.704-1.504 1.504 0 1.008.768 1.328 1.512 1.568v2.256a1.754 1.754 0 01-1.16-.808l-.576.448c.392.512.992.904 1.728.984v.904h.64v-.904c.992-.128 1.584-.864 1.584-1.68zm-.68.008c0 .528-.368.936-.912 1.048v-2.056c.504.192.912.448.912 1.008zm-2.376-2.784c0-.472.336-.816.84-.912v1.808c-.48-.184-.84-.408-.84-.896zm5.912 4.4v-5.84h-.656c-.008.744-.424 1.248-1.368 1.248h-.048v.672h.088c.672 0 1.136-.296 1.32-.744V66h.664zm3.429-.56c-.88 0-1.552-.48-1.552-2.256v-.272c0-1.712.696-2.2 1.568-2.2.864 0 1.56.44 1.56 2.2v.272c0 1.76-.696 2.256-1.576 2.256zm.008.64c1.272 0 2.232-.752 2.232-2.896v-.272c0-2-.976-2.832-2.232-2.832-1.216 0-2.224.808-2.224 2.832v.272c0 2.12.928 2.896 2.224 2.896zm5.484-.64c-.88 0-1.552-.48-1.552-2.256v-.272c0-1.712.696-2.2 1.568-2.2.864 0 1.56.44 1.56 2.2v.272c0 1.76-.696 2.256-1.576 2.256zm.008.64c1.272 0 2.232-.752 2.232-2.896v-.272c0-2-.976-2.832-2.232-2.832-1.216 0-2.224.808-2.224 2.832v.272c0 2.12.928 2.896 2.224 2.896zm3.532-.024c.192 0 .32-.096.336-.312a.468.468 0 01.016.104c0 .352-.232.688-.672.944l.224.296c.512-.312.864-.776.864-1.304 0-.384-.224-.704-.64-.704-.32 0-.544.216-.544.528 0 .256.168.448.416.448zm3.866-.616c-.88 0-1.552-.48-1.552-2.256v-.272c0-1.712.696-2.2 1.568-2.2.864 0 1.56.44 1.56 2.2v.272c0 1.76-.696 2.256-1.576 2.256zm.008.64c1.272 0 2.232-.752 2.232-2.896v-.272c0-2-.976-2.832-2.232-2.832-1.216 0-2.224.808-2.224 2.832v.272c0 2.12.928 2.896 2.224 2.896zm5.484-.64c-.88 0-1.552-.48-1.552-2.256v-.272c0-1.712.696-2.2 1.568-2.2.864 0 1.56.44 1.56 2.2v.272c0 1.76-.696 2.256-1.576 2.256zm.008.64c1.272 0 2.232-.752 2.232-2.896v-.272c0-2-.976-2.832-2.232-2.832-1.216 0-2.224.808-2.224 2.832v.272c0 2.12.928 2.896 2.224 2.896zm5.484-.64c-.88 0-1.552-.48-1.552-2.256v-.272c0-1.712.696-2.2 1.568-2.2.864 0 1.56.44 1.56 2.2v.272c0 1.76-.696 2.256-1.576 2.256zm.008.64c1.272 0 2.232-.752 2.232-2.896v-.272c0-2-.976-2.832-2.232-2.832-1.216 0-2.224.808-2.224 2.832v.272c0 2.12.928 2.896 2.224 2.896zm5.293-.08h.656v-2.432c0-.872.52-1.392 1.264-1.392.768 0 1.192.48 1.192 1.224V66h.656v-2.488c0-.848.536-1.336 1.256-1.336.792 0 1.232.528 1.232 1.288V66h.664v-2.544c0-1.128-.632-1.864-1.832-1.864-.72 0-1.28.36-1.552.896-.232-.544-.736-.896-1.504-.896-.632 0-1.112.28-1.384.72v-.632h-.648V66zm8.063 0h.664v-4.32h-.664V66zm-.184-5.648c0 .296.216.52.512.52.304 0 .52-.224.52-.52a.504.504 0 00-.52-.52.507.507 0 00-.512.52zM430.201 66h.656v-2.4c0-.832.592-1.416 1.36-1.416.84 0 1.304.544 1.304 1.384V66h.664v-2.464c0-1.208-.712-1.944-1.84-1.944-.672 0-1.208.328-1.504.808v-.72h-.64V66zm5.125 0h.664v-4.32h-.664V66zm-.184-5.648c0 .296.216.52.512.52.304 0 .52-.224.52-.52a.504.504 0 00-.52-.52.507.507 0 00-.512.52zM437.154 66h.656v-2.432c0-.872.52-1.392 1.264-1.392.768 0 1.192.48 1.192 1.224V66h.656v-2.488c0-.848.536-1.336 1.256-1.336.792 0 1.232.528 1.232 1.288V66h.664v-2.544c0-1.128-.632-1.864-1.832-1.864-.72 0-1.28.36-1.552.896-.232-.544-.736-.896-1.504-.896-.632 0-1.112.28-1.384.72v-.632h-.648V66zm9.73.088c.656 0 1.168-.32 1.456-.8V66h.64v-4.32h-.656v2.392c0 .832-.568 1.416-1.328 1.416-.832 0-1.264-.544-1.264-1.384V61.68h-.664v2.456c0 1.216.64 1.952 1.816 1.952zm3.255-.088h.656v-2.432c0-.872.52-1.392 1.264-1.392.768 0 1.192.48 1.192 1.224V66h.656v-2.488c0-.848.536-1.336 1.256-1.336.792 0 1.232.528 1.232 1.288V66h.664v-2.544c0-1.128-.632-1.864-1.832-1.864-.72 0-1.28.36-1.553.896-.231-.544-.735-.896-1.503-.896-.632 0-1.112.28-1.384.72v-.632h-.648V66zm12.055.088c.624 0 1.272-.32 1.616-.856V66h.648v-6.312h-.648v2.744c-.344-.528-.992-.84-1.616-.84-1.208 0-2.2.928-2.2 2.248 0 1.32.976 2.248 2.2 2.248zm.056-.616c-.904 0-1.592-.696-1.592-1.64 0-.92.688-1.64 1.592-1.64.92 0 1.608.744 1.608 1.64 0 .912-.688 1.64-1.608 1.64zm5.477.616c.944 0 1.568-.408 2.008-1.096l-.56-.328c-.296.528-.76.832-1.448.832-.912 0-1.544-.584-1.64-1.408h3.816v-.296c0-1.28-.936-2.2-2.2-2.2-1.296 0-2.256.992-2.256 2.264 0 1.264.896 2.232 2.28 2.232zm-.024-3.912c.84 0 1.424.52 1.528 1.336h-3.128c.144-.768.776-1.336 1.6-1.336zm5.434 3.912c1.224 0 2.2-.928 2.2-2.248 0-1.32-.992-2.248-2.192-2.248-.64 0-1.296.328-1.632.88v-.792h-.64v5.984h.648v-2.408c.336.536.976.832 1.616.832zm-.056-.616c-.92 0-1.616-.728-1.616-1.64 0-.896.696-1.64 1.616-1.64.904 0 1.592.72 1.592 1.64 0 .944-.688 1.64-1.592 1.64zm5.317.616c1.272 0 2.248-1 2.248-2.248a2.22 2.22 0 00-2.248-2.248c-1.256 0-2.24.984-2.24 2.248 0 1.272.968 2.248 2.24 2.248zm0-.624c-.896 0-1.576-.696-1.576-1.624 0-.92.68-1.632 1.576-1.632s1.584.712 1.584 1.632c0 .92-.68 1.624-1.584 1.624zm4.761.624c1.128.008 1.704-.664 1.704-1.344 0-.888-.816-1.096-1.56-1.24-.672-.136-1.192-.224-1.192-.672 0-.4.272-.688.936-.688.552 0 .928.232 1.184.576l.544-.368c-.384-.472-.928-.768-1.728-.768-1.024-.008-1.608.584-1.608 1.256 0 .864.792 1.064 1.536 1.208.632.128 1.224.224 1.224.704 0 .432-.352.752-1.024.752-.656 0-1.096-.28-1.392-.704l-.568.384c.384.552 1 .904 1.944.904zm2.62-.088h.664v-4.32h-.664V66zm-.184-5.648c0 .296.216.52.512.52.304 0 .52-.224.52-.52a.504.504 0 00-.52-.52.507.507 0 00-.512.52zm1.644 1.912h.84v2.432c0 .952.432 1.368 1.224 1.368.36 0 .64-.112.888-.304l-.344-.52a.697.697 0 01-.496.208c-.368 0-.624-.216-.624-.768v-2.416h1.264v-.584h-1.264v-1.368l-.648.416v.952h-.84v.584zM344.303 52h23.218v-6.298h-16.309c.188-3.149 3.666-5.17 7.426-7.473 4.371-2.632 9.024-5.593 9.024-11.139 0-5.546-4.23-9.87-11.468-9.87-5.828 0-10.199 3.055-12.502 7.708l5.875 2.867c1.128-2.773 3.384-4.841 6.533-4.841 3.149 0 4.888 1.692 4.888 4.089 0 2.773-3.243 4.653-7.05 7.003-4.559 2.773-9.635 6.204-9.635 12.408V52zm25.226-3.478c0 2.397 1.645 4.136 4.089 4.136 2.397 0 4.089-1.739 4.089-4.136 0-2.397-1.692-4.136-4.089-4.136-2.397 0-4.089 1.739-4.089 4.136zm23.495-2.397c-4.183 0-6.768-2.303-6.768-10.763v-1.41c0-8.084 2.726-10.434 6.815-10.434 3.995 0 6.721 2.115 6.721 10.434v1.41c0 8.366-2.585 10.763-6.768 10.763zm0 6.345c7.849 0 13.442-4.418 13.442-17.014v-1.598c0-11.75-5.781-16.638-13.442-16.638-7.52 0-13.395 4.747-13.395 16.638v1.598c0 12.455 5.452 17.014 13.395 17.014zm29.274-6.345c-4.183 0-6.768-2.303-6.768-10.763v-1.41c0-8.084 2.726-10.434 6.815-10.434 3.995 0 6.721 2.115 6.721 10.434v1.41c0 8.366-2.585 10.763-6.768 10.763zm0 6.345c7.849 0 13.442-4.418 13.442-17.014v-1.598c0-11.75-5.781-16.638-13.442-16.638-7.52 0-13.395 4.747-13.395 16.638v1.598c0 12.455 5.452 17.014 13.395 17.014zm21.19-26.837c0-1.692 1.363-3.008 2.961-3.008 1.645 0 2.961 1.316 2.961 3.008a2.949 2.949 0 01-2.961 2.961c-1.598 0-2.961-1.316-2.961-2.961zm14.523 18.424c0 4.7 3.76 8.46 8.413 8.46 4.653 0 8.413-3.76 8.413-8.46 0-4.606-3.76-8.413-8.413-8.413-4.653 0-8.413 3.807-8.413 8.413zM437.566 52h8.272l29.469-34.31h-8.272L437.566 52zm25.944-7.943c0-1.645 1.316-2.961 2.914-2.961a2.949 2.949 0 012.961 2.961c0 1.692-1.316 3.008-2.961 3.008-1.598 0-2.914-1.316-2.914-3.008zm-25.474-18.424c0 4.606 3.76 8.366 8.413 8.366 4.653 0 8.413-3.76 8.413-8.366 0-4.7-3.76-8.413-8.413-8.413a8.375 8.375 0 00-8.413 8.413zm53.485 5.969l1.786-3.008-6.345-2.632 6.345-2.632-1.692-3.008-5.452 4.089.846-6.768h-3.478l.846 6.768-5.452-4.136-1.739 2.961 6.298 2.726-6.298 2.632 1.692 3.008 5.499-4.136-.846 6.815h3.478l-.846-6.815 5.358 4.136zM480.264 52h1.368l.696-1.872h3.96l.708 1.872h1.356l-3.384-8.76h-1.32L480.264 52zm4.044-7.128l1.512 4.008h-3.024l1.512-4.008zM489.501 52h1.308v-2.568h2.076c1.896 0 3.216-1.368 3.216-3.096 0-1.74-1.32-3.096-3.192-3.096h-3.408V52zm3.3-7.56c1.224 0 1.992.816 1.992 1.896 0 1.068-.768 1.884-1.992 1.884h-1.992v-3.78h1.992zm6.812 7.56h1.296v-3.684l3.108-5.076h-1.44l-2.304 3.828-2.292-3.828h-1.464l3.096 5.064V52zM238.992 28.14c2.086 0 3.78-1.162 4.662-2.87l-1.372-.728c-.588 1.232-1.722 2.1-3.304 2.1-2.114 0-3.71-1.68-3.71-3.752 0-2.1 1.596-3.78 3.724-3.78 1.442 0 2.562.756 3.192 1.932l1.33-.826a5.24 5.24 0 00-4.522-2.576c-2.926 0-5.25 2.268-5.25 5.25 0 2.898 2.226 5.25 5.25 5.25zm9.645.014a3.92 3.92 0 003.934-3.934 3.92 3.92 0 00-3.934-3.934 3.92 3.92 0 00-3.934 3.934 3.92 3.92 0 003.934 3.934zm0-1.414c-1.372 0-2.422-1.12-2.422-2.52s1.05-2.52 2.422-2.52c1.358 0 2.436 1.12 2.436 2.52s-1.064 2.52-2.436 2.52zm5.397 1.26h1.512v-4.172c0-1.358.882-2.212 2.03-2.212 1.26 0 1.932.826 1.932 2.114V28h1.526v-4.382c0-2.072-1.19-3.332-3.108-3.332-1.05 0-1.89.476-2.408 1.204v-1.05h-1.484V28zm11.439.154c2.086.014 3.08-1.288 3.08-2.394 0-1.568-1.428-2.002-2.688-2.268-1.148-.252-1.834-.392-1.834-.994 0-.532.448-.966 1.372-.966.812 0 1.358.336 1.736.896l1.302-.742c-.658-.896-1.624-1.414-3.038-1.414-1.778-.014-2.912 1.078-2.912 2.254 0 1.54 1.358 1.96 2.632 2.226.994.21 1.918.364 1.918 1.022 0 .574-.518 1.064-1.498 1.064-.938 0-1.582-.406-2.044-1.12l-1.358.77c.644 1.092 1.736 1.666 3.332 1.666zm7.392 0c1.008 0 1.848-.462 2.366-1.19V28h1.484v-7.56h-1.512v4.172c0 1.344-.868 2.198-2.002 2.198-1.274 0-1.918-.826-1.918-2.1v-4.27h-1.54v4.368c0 2.086 1.12 3.346 3.122 3.346zm5.601-.154h1.512v-4.228c0-1.428.686-2.156 1.806-2.156 1.148 0 1.666.7 1.666 1.848V28h1.526v-4.298c0-1.386.7-2.086 1.778-2.086 1.19 0 1.708.77 1.708 1.946V28h1.554v-4.522c0-1.946-.966-3.192-3.038-3.192-1.12 0-1.988.532-2.464 1.33-.406-.826-1.204-1.33-2.408-1.33-.966 0-1.68.392-2.142 1.022v-.868h-1.498V28zm16.999.154c1.638 0 2.73-.728 3.458-1.82l-1.246-.742c-.448.728-1.148 1.218-2.212 1.218-1.386 0-2.338-.812-2.562-2.03h6.356v-.63c0-2.24-1.652-3.864-3.878-3.864s-3.934 1.736-3.934 3.962c0 2.198 1.61 3.906 4.018 3.906zm-.084-6.538c1.246 0 2.128.686 2.352 1.876h-4.774c.294-1.092 1.218-1.876 2.422-1.876zM300.709 28h1.512v-4.256c0-1.358.686-1.89 1.764-1.89.434 0 .742.084.952.224l.588-1.456c-.294-.182-.756-.294-1.274-.294-.966 0-1.736.476-2.058 1.428V20.44h-1.484V28zm-66.673 16h1.512v-7.728l3.304 4.494 3.416-4.592V44h1.498V33.78h-1.442l-3.444 4.62-3.332-4.62h-1.512V44zm15.107.154a3.92 3.92 0 003.934-3.934 3.92 3.92 0 00-3.934-3.934 3.92 3.92 0 00-3.934 3.934 3.92 3.92 0 003.934 3.934zm0-1.414c-1.372 0-2.422-1.12-2.422-2.52s1.05-2.52 2.422-2.52c1.358 0 2.436 1.12 2.436 2.52s-1.064 2.52-2.436 2.52zM254.54 44h1.512v-4.172c0-1.358.882-2.212 2.03-2.212 1.26 0 1.932.826 1.932 2.114V44h1.526v-4.382c0-2.072-1.19-3.332-3.108-3.332-1.05 0-1.89.476-2.408 1.204v-1.05h-1.484V44zm12.447.154c1.638 0 2.73-.728 3.458-1.82l-1.246-.742c-.448.728-1.148 1.218-2.212 1.218-1.386 0-2.338-.812-2.562-2.03h6.356v-.63c0-2.24-1.652-3.864-3.878-3.864s-3.934 1.736-3.934 3.962c0 2.198 1.61 3.906 4.018 3.906zm-.084-6.538c1.246 0 2.128.686 2.352 1.876h-4.774c.294-1.092 1.218-1.876 2.422-1.876zm5.618 9.184c1.456 0 2.24-.63 2.996-2.422l3.374-7.938h-1.61l-2.17 5.418-2.268-5.418h-1.624l3.108 7.196-.14.322c-.49 1.078-.896 1.4-1.68 1.4-.434 0-.742-.168-1.008-.434l-.896 1.274c.49.364 1.204.602 1.918.602zm11.035-2.8h1.512v-7.728l3.304 4.494 3.416-4.592V44h1.498V33.78h-1.442L288.4 38.4l-3.332-4.62h-1.512V44zm13.832.154c1.26 0 2.366-.588 2.968-1.484V44h1.456v-4.676c0-1.834-1.232-3.038-3.402-3.038-1.624 0-2.786.728-3.528 1.722l1.344.784c.434-.742 1.176-1.218 2.17-1.218 1.344 0 1.96.7 1.96 1.708v.126h-2.24c-2.114 0-3.402.952-3.402 2.506 0 1.274.924 2.24 2.674 2.24zm.322-1.316c-1.008 0-1.456-.392-1.456-1.05 0-.742.56-1.176 1.96-1.176h2.142v.63c-.49.994-1.568 1.596-2.646 1.596zM303.512 44h1.512v-4.256c0-1.358.686-1.89 1.764-1.89.434 0 .742.084.952.224l.588-1.456c-.294-.182-.756-.294-1.274-.294-.966 0-1.736.476-2.058 1.428V36.44h-1.484V44zm11.266 0h1.778l-3.094-4.382 2.926-3.178h-1.848l-3.528 3.864v-7.336h-1.498V44h1.498v-1.96l1.358-1.47 2.408 3.43zm5.775.154c1.638 0 2.73-.728 3.458-1.82l-1.246-.742c-.448.728-1.148 1.218-2.212 1.218-1.386 0-2.338-.812-2.562-2.03h6.356v-.63c0-2.24-1.652-3.864-3.878-3.864s-3.934 1.736-3.934 3.962c0 2.198 1.61 3.906 4.018 3.906zm-.084-6.538c1.246 0 2.128.686 2.352 1.876h-4.774c.294-1.092 1.218-1.876 2.422-1.876zm4.482.182h1.498v3.738c0 1.862.868 2.604 2.366 2.604.63 0 1.162-.168 1.596-.462l-.714-1.26c-.238.21-.476.294-.77.294-.588 0-.994-.364-.994-1.19v-3.724h2.114V36.44h-2.114v-2.604l-1.484.966v1.638h-1.498v1.358zM233.308 60h1.596l.812-2.184h4.62l.826 2.184h1.582l-3.948-10.22h-1.54L233.308 60zm4.718-8.316l1.764 4.676h-3.528l1.764-4.676zm9.163 8.47c1.75 0 3.01-.98 3.612-2.38l-1.372-.574c-.364.868-1.148 1.54-2.226 1.54-1.414 0-2.492-1.134-2.492-2.52 0-1.4 1.05-2.52 2.464-2.52 1.022 0 1.834.56 2.226 1.484l1.358-.588c-.574-1.358-1.918-2.31-3.584-2.31-2.212 0-3.948 1.708-3.948 3.934 0 2.184 1.708 3.934 3.962 3.934zm8.517 0c1.75 0 3.01-.98 3.612-2.38l-1.372-.574c-.364.868-1.148 1.54-2.226 1.54-1.414 0-2.492-1.134-2.492-2.52 0-1.4 1.05-2.52 2.464-2.52 1.022 0 1.834.56 2.226 1.484l1.358-.588c-.574-1.358-1.918-2.31-3.584-2.31-2.212 0-3.948 1.708-3.948 3.934 0 2.184 1.708 3.934 3.962 3.934zm8.49 0a3.92 3.92 0 003.934-3.934 3.92 3.92 0 00-3.934-3.934 3.92 3.92 0 00-3.934 3.934 3.92 3.92 0 003.934 3.934zm0-1.414c-1.372 0-2.422-1.12-2.422-2.52s1.05-2.52 2.422-2.52c1.358 0 2.436 1.12 2.436 2.52s-1.064 2.52-2.436 2.52zm8.477 1.414c1.008 0 1.848-.462 2.366-1.19V60h1.484v-7.56h-1.512v4.172c0 1.344-.868 2.198-2.002 2.198-1.274 0-1.918-.826-1.918-2.1v-4.27h-1.54v4.368c0 2.086 1.12 3.346 3.122 3.346zm5.601-.154h1.512v-4.172c0-1.358.882-2.212 2.03-2.212 1.26 0 1.932.826 1.932 2.114V60h1.526v-4.382c0-2.072-1.19-3.332-3.108-3.332-1.05 0-1.89.476-2.408 1.204v-1.05h-1.484V60zm7.903-6.202h1.498v3.738c0 1.862.868 2.604 2.366 2.604.63 0 1.162-.168 1.596-.462l-.714-1.26c-.238.21-.476.294-.77.294-.588 0-.994-.364-.994-1.19v-3.724h2.114V52.44h-2.114v-2.604l-1.484.966v1.638h-1.498v1.358z" fill="#193526"/></svg>