<svg width="98" height="44" viewBox="0 0 98 44" fill="none" xmlns="http://www.w3.org/2000/svg"><path d="M5.992 11.14c2.086 0 3.78-1.162 4.662-2.87l-1.372-.728c-.588 1.232-1.722 2.1-3.304 2.1-2.114 0-3.71-1.68-3.71-3.752 0-2.1 1.596-3.78 3.724-3.78 1.442 0 2.562.756 3.192 1.932l1.33-.826A5.24 5.24 0 005.992.64C3.066.64.742 2.908.742 5.89c0 2.898 2.226 5.25 5.25 5.25zm9.645.014a3.92 3.92 0 003.934-3.934 3.92 3.92 0 00-3.934-3.934 3.92 3.92 0 00-3.934 3.934 3.92 3.92 0 003.934 3.934zm0-1.414c-1.372 0-2.422-1.12-2.422-2.52s1.05-2.52 2.422-2.52c1.358 0 2.436 1.12 2.436 2.52s-1.064 2.52-2.436 2.52zM21.034 11h1.512V6.828c0-1.358.882-2.212 2.03-2.212 1.26 0 1.932.826 1.932 2.114V11h1.526V6.618c0-2.072-1.19-3.332-3.108-3.332-1.05 0-1.89.476-2.408 1.204V3.44h-1.484V11zm11.439.154c2.086.014 3.08-1.288 3.08-2.394 0-1.568-1.428-2.002-2.688-2.268-1.148-.252-1.834-.392-1.834-.994 0-.532.448-.966 1.372-.966.812 0 1.358.336 1.736.896l1.302-.742c-.658-.896-1.624-1.414-3.038-1.414-1.778-.014-2.912 1.078-2.912 2.254 0 1.54 1.358 1.96 2.632 2.226.994.21 1.918.364 1.918 1.022 0 .574-.518 1.064-1.498 1.064-.938 0-1.582-.406-2.044-1.12l-1.358.77c.644 1.092 1.736 1.666 3.332 1.666zm7.392 0c1.008 0 1.848-.462 2.366-1.19V11h1.484V3.44h-1.512v4.172c0 1.344-.868 2.198-2.002 2.198-1.274 0-1.918-.826-1.918-2.1V3.44h-1.54v4.368c0 2.086 1.12 3.346 3.122 3.346zm5.6-.154h1.513V6.772c0-1.428.686-2.156 1.806-2.156 1.148 0 1.666.7 1.666 1.848V11h1.526V6.702c0-1.386.7-2.086 1.778-2.086 1.19 0 1.708.77 1.708 1.946V11h1.554V6.478c0-1.946-.966-3.192-3.038-3.192-1.12 0-1.988.532-2.464 1.33-.406-.826-1.204-1.33-2.408-1.33-.966 0-1.68.392-2.142 1.022V3.44h-1.498V11zm17 .154c1.638 0 2.73-.728 3.458-1.82l-1.246-.742c-.448.728-1.148 1.218-2.212 1.218-1.386 0-2.338-.812-2.562-2.03h6.356v-.63c0-2.24-1.652-3.864-3.878-3.864s-3.934 1.736-3.934 3.962c0 2.198 1.61 3.906 4.018 3.906zm-.084-6.538c1.246 0 2.128.686 2.352 1.876H59.96c.294-1.092 1.218-1.876 2.422-1.876zM67.71 11h1.512V6.744c0-1.358.686-1.89 1.764-1.89.433 0 .742.084.951.224l.588-1.456c-.294-.182-.756-.294-1.274-.294-.966 0-1.736.476-2.058 1.428V3.44H67.71V11zM1.035 27h1.512v-7.728l3.304 4.494 3.416-4.592V27h1.498V16.78H9.324L5.88 21.4l-3.332-4.62H1.036V27zm15.107.154a3.92 3.92 0 003.934-3.934 3.92 3.92 0 00-3.934-3.934 3.92 3.92 0 00-3.934 3.934 3.92 3.92 0 003.934 3.934zm0-1.414c-1.372 0-2.422-1.12-2.422-2.52s1.05-2.52 2.422-2.52c1.358 0 2.436 1.12 2.436 2.52s-1.064 2.52-2.436 2.52zM21.54 27h1.512v-4.172c0-1.358.882-2.212 2.03-2.212 1.26 0 1.932.826 1.932 2.114V27h1.526v-4.382c0-2.072-1.19-3.332-3.108-3.332-1.05 0-1.89.476-2.408 1.204v-1.05H21.54V27zm12.447.154c1.638 0 2.73-.728 3.458-1.82l-1.246-.742c-.448.728-1.148 1.218-2.212 1.218-1.386 0-2.338-.812-2.562-2.03h6.356v-.63c0-2.24-1.652-3.864-3.878-3.864s-3.934 1.736-3.934 3.962c0 2.198 1.61 3.906 4.018 3.906zm-.084-6.538c1.246 0 2.128.686 2.352 1.876H31.48c.294-1.092 1.218-1.876 2.422-1.876zM39.52 29.8c1.456 0 2.24-.63 2.996-2.422l3.374-7.938h-1.61l-2.17 5.418-2.268-5.418H38.22l3.108 7.196-.14.322c-.49 1.078-.896 1.4-1.68 1.4-.434 0-.742-.168-1.008-.434l-.896 1.274c.49.364 1.204.602 1.918.602zM50.556 27h1.512v-7.728l3.303 4.494 3.416-4.592V27h1.498V16.78h-1.441L55.4 21.4l-3.332-4.62h-1.512V27zm13.832.154c1.26 0 2.366-.588 2.968-1.484V27h1.456v-4.676c0-1.834-1.232-3.038-3.402-3.038-1.624 0-2.786.728-3.528 1.722l1.344.784c.434-.742 1.176-1.218 2.17-1.218 1.344 0 1.96.7 1.96 1.708v.126h-2.24c-2.114 0-3.402.952-3.402 2.506 0 1.274.924 2.24 2.674 2.24zm.322-1.316c-1.008 0-1.456-.392-1.456-1.05 0-.742.56-1.176 1.96-1.176h2.142v.63c-.49.994-1.568 1.596-2.646 1.596zM70.512 27h1.512v-4.256c0-1.358.686-1.89 1.764-1.89.434 0 .742.084.952.224l.588-1.456c-.294-.182-.756-.294-1.274-.294-.966 0-1.736.476-2.058 1.428V19.44h-1.484V27zm11.266 0h1.778l-3.093-4.382 2.925-3.178H81.54l-3.528 3.864v-7.336h-1.498V27h1.499v-1.96l1.358-1.47L81.778 27zm5.775.154c1.638 0 2.73-.728 3.458-1.82l-1.246-.742c-.448.728-1.148 1.218-2.212 1.218-1.386 0-2.338-.812-2.562-2.03h6.356v-.63c0-2.24-1.652-3.864-3.878-3.864s-3.934 1.736-3.934 3.962c0 2.198 1.61 3.906 4.018 3.906zm-.084-6.538c1.246 0 2.128.686 2.352 1.876h-4.774c.294-1.092 1.218-1.876 2.422-1.876zm4.482.182h1.498v3.738c0 1.862.868 2.604 2.366 2.604.63 0 1.162-.168 1.596-.462l-.714-1.26c-.238.21-.476.294-.77.294-.588 0-.994-.364-.994-1.19v-3.724h2.114V19.44h-2.114v-2.604l-1.484.966v1.638H91.95v1.358zM.308 43h1.596l.812-2.184h4.62L8.162 43h1.582L5.796 32.78h-1.54L.308 43zm4.718-8.316L6.79 39.36H3.262l1.764-4.676zm9.163 8.47c1.75 0 3.01-.98 3.612-2.38l-1.372-.574c-.364.868-1.148 1.54-2.226 1.54-1.414 0-2.492-1.134-2.492-2.52 0-1.4 1.05-2.52 2.464-2.52 1.022 0 1.834.56 2.226 1.484l1.358-.588c-.574-1.358-1.918-2.31-3.584-2.31-2.212 0-3.948 1.708-3.948 3.934 0 2.184 1.708 3.934 3.962 3.934zm8.517 0c1.75 0 3.01-.98 3.612-2.38l-1.372-.574c-.364.868-1.148 1.54-2.226 1.54-1.414 0-2.492-1.134-2.492-2.52 0-1.4 1.05-2.52 2.464-2.52 1.022 0 1.834.56 2.226 1.484l1.358-.588c-.574-1.358-1.918-2.31-3.584-2.31-2.212 0-3.948 1.708-3.948 3.934 0 2.184 1.708 3.934 3.962 3.934zm8.49 0a3.92 3.92 0 003.934-3.934 3.92 3.92 0 00-3.934-3.934 3.92 3.92 0 00-3.934 3.934 3.92 3.92 0 003.934 3.934zm0-1.414c-1.372 0-2.422-1.12-2.422-2.52s1.05-2.52 2.422-2.52c1.358 0 2.436 1.12 2.436 2.52s-1.064 2.52-2.436 2.52zm8.477 1.414c1.008 0 1.848-.462 2.366-1.19V43h1.484v-7.56h-1.512v4.172c0 1.344-.868 2.198-2.002 2.198-1.274 0-1.918-.826-1.918-2.1v-4.27h-1.54v4.368c0 2.086 1.12 3.346 3.122 3.346zM45.274 43h1.512v-4.172c0-1.358.882-2.212 2.03-2.212 1.26 0 1.932.826 1.932 2.114V43h1.526v-4.382c0-2.072-1.19-3.332-3.108-3.332-1.05 0-1.89.476-2.408 1.204v-1.05h-1.484V43zm7.903-6.202h1.498v3.738c0 1.862.868 2.604 2.366 2.604.63 0 1.162-.168 1.596-.462l-.714-1.26c-.238.21-.476.294-.77.294-.588 0-.994-.364-.994-1.19v-3.724h2.114V35.44H56.16v-2.604l-1.484.966v1.638h-1.498v1.358z" fill="#193526"/></svg>