<svg width="147" height="35" viewBox="0 0 147 35" fill="none" xmlns="http://www.w3.org/2000/svg"><path d="M12.6 34.45c7.425 0 11.925-4.365 11.925-10.08 0-3.51-1.8-5.985-4.68-7.47 2.385-1.575 3.87-4.005 3.87-7.02 0-5.49-4.275-9.18-11.34-9.18-5.04 0-9 2.205-11.385 5.85L6.255 9.7c1.26-2.295 3.195-3.6 6.165-3.6 3.375 0 4.995 1.8 4.995 3.96 0 2.43-1.8 4.275-5.265 4.275H8.775v5.715h3.645c3.42 0 5.715 1.575 5.715 4.185 0 2.745-2.295 4.455-5.535 4.455-3.015 0-5.31-1.125-6.93-3.78L.36 28.825c2.835 3.78 6.435 5.625 12.24 5.625zm15.744-3.78c0 2.295 1.575 3.96 3.915 3.96 2.295 0 3.915-1.665 3.915-3.96s-1.62-3.96-3.915-3.96-3.915 1.665-3.915 3.96zM42.739 34h6.795L61.459 6.685V1.15h-21.6v5.94h14.985L42.739 34zm33.422.45c6.885 0 11.61-4.59 11.61-11.07 0-7.29-4.68-11.295-10.845-11.295-2.385 0-4.32.81-5.67 1.89l1.125-6.93h13.23V1.15H67.476L64.82 18.745l5.895 2.385c1.035-1.845 2.745-3.285 5.31-3.285 3.15 0 5.31 2.205 5.31 5.4 0 3.06-2.25 5.31-5.175 5.31-2.79 0-4.635-1.62-5.535-3.69L64.46 28.33c2.25 3.645 6.165 6.12 11.7 6.12zM96.94 8.755c0-1.62 1.305-2.88 2.834-2.88 1.576 0 2.836 1.26 2.836 2.88a2.823 2.823 0 01-2.836 2.835c-1.53 0-2.835-1.26-2.835-2.835zm13.905 17.64c0 4.5 3.6 8.1 8.055 8.1s8.055-3.6 8.055-8.1c0-4.41-3.6-8.055-8.055-8.055s-8.055 3.645-8.055 8.055zM91.27 34h7.92l28.216-32.85h-7.92L91.27 34zm24.841-7.605c0-1.575 1.26-2.835 2.79-2.835a2.823 2.823 0 012.835 2.835c0 1.62-1.26 2.88-2.835 2.88-1.53 0-2.79-1.26-2.79-2.88zm-24.39-17.64c0 4.41 3.6 8.01 8.054 8.01 4.456 0 8.056-3.6 8.056-8.01 0-4.5-3.6-8.055-8.056-8.055a8.018 8.018 0 00-8.055 8.055zm53.458 5.715l1.71-2.88-6.075-2.52 6.075-2.52-1.62-2.88-5.22 3.915.81-6.48h-3.33l.81 6.48-5.22-3.96-1.665 2.835 6.03 2.61-6.03 2.52 1.62 2.88 5.265-3.96-.81 6.525h3.33l-.81-6.525 5.13 3.96z" fill="#193526"/></svg>