<svg width="48" height="22" viewBox="0 0 48 22" fill="none" xmlns="http://www.w3.org/2000/svg"><path d="M5.786 21.39c4.394 0 7.436-2.392 7.436-5.824 0-5.824-8.866-4.888-8.866-9.308 0-1.69 1.222-2.86 3.094-2.86.26 0 .572.026.858.13l3.874 2.938h.13V3.398c-.78-.572-2.964-.988-4.862-.988-3.77 0-6.448 2.158-6.448 5.226 0 5.824 8.866 4.862 8.866 9.308 0 2.08-1.638 3.432-3.562 3.432-.468 0-.988-.104-1.196-.182L.586 16.788h-.13v3.406c1.066.65 3.276 1.196 5.33 1.196zm14.243 0c1.612 0 3.12-.78 4.55-2.366h.156l.312 2.366 4.342-1.066v-.13l-1.326-1.222V7.35h-.26l-4.576 1.248v.13l1.43 1.3v8.06c-.988.832-1.898 1.248-2.808 1.248-1.326 0-2.106-.832-2.106-2.21V7.324h-.26l-4.576 1.248v.13l1.43 1.3v7.878c0 2.054 1.482 3.51 3.692 3.51zM34.336 4.646c1.17 0 1.95-.702 1.95-1.846 0-1.144-.78-1.82-1.95-1.82-1.196 0-1.976.676-1.976 1.82 0 1.144.78 1.846 1.976 1.846zM37.248 21v-.104L36.026 19.7V7.35h-.26L31.19 8.598v.104l1.43 1.3V19.7l-1.196 1.196V21h5.824zm6.49.39c1.795 0 3.38-.988 4.135-2.6l-.104-.078c-.598.52-1.326.806-2.028.806-1.092 0-1.846-.624-1.846-2.002V9.04h3.38l.182-1.3h-3.562V5.088h-.442L38.695 8.91v.13h1.794v10.036c.364 1.612 1.742 2.314 3.25 2.314z" fill="#fff"/></svg>