<svg width="126" height="17" viewBox="0 0 126 17" fill="none" xmlns="http://www.w3.org/2000/svg"><path d="M5.392 13.16c2.656 0 4.128-1.696 4.128-3.488 0-2.544-2.048-3.072-3.888-3.456-1.52-.32-2.896-.544-2.896-1.728 0-1.008.656-1.744 2.224-1.744 1.52 0 2.32.624 3.008 1.552l1.44-1.136c-1.136-1.28-2.448-2-4.448-2C2.608 1.16.944 2.68.944 4.504c0 2.336 1.92 2.816 3.728 3.184 1.568.336 3.056.608 3.056 2 0 1.056-.816 1.824-2.384 1.824-1.472 0-2.656-.64-3.504-2.016l-1.52 1.2C1.424 12.2 2.96 13.16 5.392 13.16zm10.49.016c2.24 0 4.32-1.792 4.32-4.496 0-2.72-2.032-4.496-4.32-4.496-1.184 0-2.32.56-2.976 1.456V4.36h-1.68v12.096h1.68v-4.608c.64.864 1.76 1.328 2.976 1.328zm-.24-1.584c-1.632 0-2.848-1.312-2.848-2.928 0-1.6 1.216-2.912 2.848-2.912 1.6 0 2.832 1.28 2.832 2.912s-1.232 2.928-2.832 2.928zm10.497 1.584c1.872 0 3.12-.832 3.952-2.08l-1.424-.848c-.512.832-1.312 1.392-2.528 1.392-1.584 0-2.672-.928-2.928-2.32h7.264V8.6c0-2.56-1.888-4.416-4.432-4.416-2.544 0-4.496 1.984-4.496 4.528 0 2.512 1.84 4.464 4.592 4.464zm-.096-7.472c1.424 0 2.432.784 2.688 2.144h-5.456c.336-1.248 1.392-2.144 2.768-2.144zm10.313 7.472c2 0 3.44-1.12 4.128-2.72L38.916 9.8c-.416.992-1.312 1.76-2.544 1.76-1.616 0-2.848-1.296-2.848-2.88 0-1.6 1.2-2.88 2.816-2.88 1.168 0 2.096.64 2.544 1.696l1.552-.672c-.656-1.552-2.192-2.64-4.096-2.64-2.528 0-4.512 1.952-4.512 4.496 0 2.496 1.952 4.496 4.528 4.496zM42.023 13h1.744V4.36h-1.744V13zm-.352-11.232c0 .704.496 1.232 1.216 1.232s1.232-.528 1.232-1.232S43.607.536 42.887.536c-.704 0-1.216.528-1.216 1.232zm6.76 11.408c1.44 0 2.703-.672 3.391-1.696V13h1.664V7.656c0-2.096-1.408-3.472-3.888-3.472-1.856 0-3.184.832-4.032 1.968l1.536.896c.496-.848 1.344-1.392 2.48-1.392 1.536 0 2.24.8 2.24 1.952v.144h-2.56c-2.416 0-3.888 1.088-3.888 2.864 0 1.456 1.056 2.56 3.056 2.56zm.367-1.504c-1.152 0-1.664-.448-1.664-1.2 0-.848.64-1.344 2.24-1.344h2.448v.72c-.56 1.136-1.792 1.824-3.024 1.824zM55.445 13h1.744V.392h-1.744V13zm7.77 0h1.728V9.144h3.136L70.191 13h1.984l-2.48-4.32c1.44-.608 2.256-2 2.256-3.456 0-2.256-1.648-3.904-4.192-3.904h-4.544V13zm4.4-10.064c1.712 0 2.592.912 2.592 2.24 0 1.232-.816 2.368-2.592 2.368h-2.672V2.936h2.672zm8.565 10.24c1.44 0 2.704-.672 3.392-1.696V13h1.664V7.656c0-2.096-1.408-3.472-3.888-3.472-1.856 0-3.184.832-4.032 1.968l1.536.896c.496-.848 1.344-1.392 2.48-1.392 1.536 0 2.24.8 2.24 1.952v.144h-2.56c-2.416 0-3.888 1.088-3.888 2.864 0 1.456 1.056 2.56 3.056 2.56zm.368-1.504c-1.152 0-1.664-.448-1.664-1.2 0-.848.64-1.344 2.24-1.344h2.448v.72c-.56 1.136-1.792 1.824-3.024 1.824zm5.757-5.76h1.712v4.272c0 2.128.992 2.976 2.704 2.976.72 0 1.328-.192 1.824-.528l-.816-1.44c-.272.24-.544.336-.88.336-.672 0-1.136-.416-1.136-1.36V5.912h2.416V4.36h-2.416V1.384l-1.696 1.104V4.36h-1.712v1.552zm11.193 7.264c1.872 0 3.12-.832 3.952-2.08l-1.424-.848c-.512.832-1.312 1.392-2.528 1.392-1.584 0-2.672-.928-2.928-2.32h7.264V8.6c0-2.56-1.888-4.416-4.432-4.416-2.544 0-4.496 1.984-4.496 4.528 0 2.512 1.84 4.464 4.592 4.464zm-.096-7.472c1.424 0 2.432.784 2.688 2.144h-5.456c.336-1.248 1.392-2.144 2.768-2.144zm15.805 7.456c2.384 0 4.32-1.328 5.328-3.28l-1.568-.832c-.672 1.408-1.968 2.4-3.776 2.4-2.416 0-4.24-1.92-4.24-4.288 0-2.4 1.824-4.32 4.256-4.32 1.648 0 2.928.864 3.648 2.208l1.52-.944a5.989 5.989 0 00-5.168-2.944c-3.344 0-6 2.592-6 6 0 3.312 2.544 6 6 6zm7.086-.16h3.456c3.504 0 6.064-2.512 6.064-5.84 0-3.312-2.336-5.84-6.128-5.84h-3.392V13zm3.216-10.08c2.928 0 4.544 1.792 4.544 4.24 0 2.4-1.792 4.224-4.48 4.224h-1.536V2.92h1.472z" fill="#193526"/></svg>