<svg width="286" height="199" viewBox="0 0 286 199" fill="none" xmlns="http://www.w3.org/2000/svg"><circle cx="229" cy="82" r="117" fill="#D9D9D9"/><path fill="#D9D9D9" d="M112-35h234V79.4H112z"/><path d="M136.408 112h1.056l.84-2.196h4.176l.852 2.196h1.044l-3.468-8.76h-1.032l-3.468 8.76zm3.972-7.572l1.728 4.428h-3.432l1.704-4.428zm5.238 7.572h.984v-3.6c0-1.248.888-2.124 2.04-2.124 1.26 0 1.956.816 1.956 2.076V112h.996v-3.696c0-1.812-1.068-2.916-2.76-2.916-1.008 0-1.812.492-2.256 1.212v-1.08h-.96V112zm7.676 0h.984v-3.6c0-1.248.888-2.124 2.04-2.124 1.26 0 1.956.816 1.956 2.076V112h.996v-3.696c0-1.812-1.068-2.916-2.76-2.916-1.008 0-1.812.492-2.256 1.212v-1.08h-.96V112zm10.188.132c.984 0 1.752-.48 2.184-1.2V112h.96v-6.48h-.984v3.588c0 1.248-.852 2.124-1.992 2.124-1.248 0-1.896-.816-1.896-2.076v-3.636h-.996v3.684c0 1.824.96 2.928 2.724 2.928zm6.827 0c1.116 0 2.112-.48 2.688-1.272V112h.96v-4.128c0-1.464-.996-2.484-2.844-2.484-1.344 0-2.28.552-2.928 1.392l.852.54c.444-.684 1.092-1.092 2.064-1.092 1.26 0 1.896.66 1.896 1.644v.252h-2.052c-1.812 0-2.94.768-2.94 2.1 0 1.044.756 1.908 2.304 1.908zm.18-.864c-1.02 0-1.476-.48-1.476-1.116 0-.804.636-1.236 1.98-1.236h2.004v.888c-.516.96-1.536 1.464-2.508 1.464zm5.188.732h.984v-9.456h-.984V112zm5.815 0h1.008v-2.628h2.292c1.908 0 3.216-1.344 3.216-3.072s-1.296-3.06-3.216-3.06h-3.3V112zm3.228-7.848c1.416 0 2.28.924 2.28 2.148 0 1.212-.852 2.148-2.268 2.148H182.5v-4.296h2.22zm7.742 7.98c1.416 0 2.352-.612 3.012-1.644l-.84-.492c-.444.792-1.14 1.248-2.172 1.248-1.368 0-2.316-.876-2.46-2.112h5.724v-.444c0-1.92-1.404-3.3-3.3-3.3-1.944 0-3.384 1.488-3.384 3.396 0 1.896 1.344 3.348 3.42 3.348zm-.036-5.868c1.26 0 2.136.78 2.292 2.004h-4.692c.216-1.152 1.164-2.004 2.4-2.004zm4.778 5.736h.972v-3.552c0-1.428.624-2.052 1.704-2.052.348 0 .612.084.792.204l.408-.936c-.252-.156-.636-.24-1.08-.24-.924 0-1.572.456-1.848 1.32v-1.224h-.948V112zm7.62.132c1.488 0 2.58-.84 3.084-2.04l-.912-.384c-.36.852-1.116 1.5-2.16 1.5-1.368 0-2.424-1.104-2.424-2.448 0-1.356 1.032-2.448 2.388-2.448 1.008 0 1.788.552 2.172 1.44l.9-.396c-.492-1.164-1.644-1.968-3.06-1.968-1.896 0-3.384 1.452-3.384 3.372 0 1.872 1.464 3.372 3.396 3.372zm7.56 0c1.416 0 2.352-.612 3.012-1.644l-.84-.492c-.444.792-1.14 1.248-2.172 1.248-1.368 0-2.316-.876-2.46-2.112h5.724v-.444c0-1.92-1.404-3.3-3.3-3.3-1.944 0-3.384 1.488-3.384 3.396 0 1.896 1.344 3.348 3.42 3.348zm-.036-5.868c1.26 0 2.136.78 2.292 2.004h-4.692c.216-1.152 1.164-2.004 2.4-2.004zm4.778 5.736h.984v-3.6c0-1.248.888-2.124 2.04-2.124 1.26 0 1.956.816 1.956 2.076V112h.996v-3.696c0-1.812-1.068-2.916-2.76-2.916-1.008 0-1.812.492-2.256 1.212v-1.08h-.96V112zm6.865-5.604h1.26v3.648c0 1.428.648 2.052 1.836 2.052.54 0 .96-.168 1.332-.456l-.516-.78a1.045 1.045 0 01-.744.312c-.552 0-.936-.324-.936-1.152v-3.624h1.896v-.876h-1.896v-2.052l-.972.624v1.428h-1.26v.876zm7.478 5.736c1.116 0 2.112-.48 2.688-1.272V112h.96v-4.128c0-1.464-.996-2.484-2.844-2.484-1.344 0-2.28.552-2.928 1.392l.852.54c.444-.684 1.092-1.092 2.064-1.092 1.26 0 1.896.66 1.896 1.644v.252h-2.052c-1.812 0-2.94.768-2.94 2.1 0 1.044.756 1.908 2.304 1.908zm.18-.864c-1.02 0-1.476-.48-1.476-1.116 0-.804.636-1.236 1.98-1.236h2.004v.888c-.516.96-1.536 1.464-2.508 1.464zm8.201.864c.948 0 1.932-.492 2.448-1.32v.636c0 1.464-.924 2.388-2.352 2.388-1.128 0-1.752-.372-2.268-1.104l-.816.648c.659.852 1.584 1.356 3.096 1.356 1.944 0 3.312-1.296 3.312-3.324v-5.892h-.984v1.164c-.516-.816-1.488-1.296-2.424-1.296-1.824 0-3.312 1.392-3.312 3.372s1.464 3.372 3.3 3.372zm.084-.924c-1.356 0-2.388-1.044-2.388-2.46 0-1.38 1.032-2.46 2.388-2.46 1.38 0 2.412 1.116 2.412 2.46 0 1.368-1.032 2.46-2.412 2.46zm8.227.924c1.416 0 2.352-.612 3.012-1.644l-.84-.492c-.444.792-1.14 1.248-2.172 1.248-1.368 0-2.316-.876-2.46-2.112h5.724v-.444c0-1.92-1.404-3.3-3.3-3.3-1.944 0-3.384 1.488-3.384 3.396 0 1.896 1.344 3.348 3.42 3.348zm-.036-5.868c1.26 0 2.136.78 2.292 2.004h-4.692c.216-1.152 1.164-2.004 2.4-2.004zM139.432 126h.996v-3.612l3.144-5.148h-1.116l-2.52 4.2-2.484-4.2h-1.128l3.108 5.16v3.6zm5.307 0h.996v-6.48h-.996V126zm-.276-8.472c0 .444.324.78.768.78.456 0 .78-.336.78-.78a.757.757 0 00-.78-.78.761.761 0 00-.768.78zm6.174 8.604c1.416 0 2.352-.612 3.012-1.644l-.84-.492c-.444.792-1.14 1.248-2.172 1.248-1.368 0-2.316-.876-2.46-2.112h5.724v-.444c0-1.92-1.404-3.3-3.3-3.3-1.944 0-3.384 1.488-3.384 3.396 0 1.896 1.344 3.348 3.42 3.348zm-.036-5.868c1.26 0 2.136.78 2.292 2.004h-4.692c.216-1.152 1.164-2.004 2.4-2.004zm4.791 5.736h.984v-9.456h-.984V126zm5.766.132c.936 0 1.908-.48 2.424-1.284V126h.972v-9.468h-.972v4.116c-.516-.792-1.488-1.26-2.424-1.26-1.812 0-3.3 1.392-3.3 3.372s1.464 3.372 3.3 3.372zm.084-.924c-1.356 0-2.388-1.044-2.388-2.46 0-1.38 1.032-2.46 2.388-2.46 1.38 0 2.412 1.116 2.412 2.46 0 1.368-1.032 2.46-2.412 2.46zm8.145.792h1.008v-3.792h4.488v-.96h-4.488v-3.06h4.488v-.948h-5.496V126zm10.183.132c1.908 0 3.372-1.5 3.372-3.372 0-1.896-1.476-3.372-3.372-3.372-1.884 0-3.36 1.476-3.36 3.372 0 1.908 1.452 3.372 3.36 3.372zm0-.936c-1.344 0-2.364-1.044-2.364-2.436 0-1.38 1.02-2.448 2.364-2.448 1.344 0 2.376 1.068 2.376 2.448s-1.02 2.436-2.376 2.436zm4.849.804h.972v-3.552c0-1.428.624-2.052 1.704-2.052.348 0 .612.084.792.204l.408-.936c-.252-.156-.636-.24-1.08-.24-.924 0-1.572.456-1.848 1.32v-1.224h-.948V126zm10.847 0v-8.76h-.984c-.012 1.116-.636 1.872-2.052 1.872h-.072v1.008h.132c1.008 0 1.704-.444 1.98-1.116V126h.996zm4.375.12c1.836 0 2.988-1.08 2.988-2.556 0-1.044-.576-1.752-1.476-2.112.78-.384 1.248-1.068 1.248-1.98 0-1.392-1.056-2.352-2.76-2.352-1.272 0-2.208.576-2.772 1.368l.84.528c.372-.624.996-1.02 1.92-1.02 1.116 0 1.8.612 1.8 1.488 0 .9-.708 1.524-1.836 1.524h-.912v.924h.96c1.152 0 2.004.624 2.004 1.62 0 .96-.828 1.656-2.004 1.656-.972 0-1.692-.384-2.184-1.104l-.828.648c.684.9 1.62 1.368 3.012 1.368zm7.656-.12h.984v-7.116l3.108 4.224 3.216-4.32V126h.972v-8.76h-.948l-3.228 4.308-3.108-4.308h-.996V126zm13.159.132c1.908 0 3.372-1.5 3.372-3.372 0-1.896-1.476-3.372-3.372-3.372-1.884 0-3.36 1.476-3.36 3.372 0 1.908 1.452 3.372 3.36 3.372zm0-.936c-1.344 0-2.364-1.044-2.364-2.436 0-1.38 1.02-2.448 2.364-2.448 1.344 0 2.376 1.068 2.376 2.448s-1.02 2.436-2.376 2.436zm4.849.804h.984v-3.6c0-1.248.888-2.124 2.04-2.124 1.26 0 1.956.816 1.956 2.076V126h.996v-3.696c0-1.812-1.068-2.916-2.76-2.916-1.008 0-1.812.492-2.256 1.212v-1.08h-.96V126zm6.866-5.604h1.26v3.648c0 1.428.648 2.052 1.836 2.052.54 0 .96-.168 1.332-.456l-.516-.78a1.045 1.045 0 01-.744.312c-.552 0-.936-.324-.936-1.152v-3.624h1.896v-.876h-1.896v-2.052l-.972.624v1.428h-1.26v.876zm5.533 5.604h.984v-3.6c0-1.248.888-2.124 2.028-2.124 1.272 0 1.956.816 1.956 2.076V126h1.008v-3.696c0-1.812-1.068-2.916-2.76-2.916-.984 0-1.788.468-2.244 1.176v-4.02h-.972V126zm10.016.132c1.692.012 2.556-.996 2.556-2.016 0-1.332-1.224-1.644-2.34-1.86-1.008-.204-1.788-.336-1.788-1.008 0-.6.408-1.032 1.404-1.032.828 0 1.392.348 1.776.864l.816-.552c-.576-.708-1.392-1.152-2.592-1.152-1.536-.012-2.412.876-2.412 1.884 0 1.296 1.188 1.596 2.304 1.812.948.192 1.836.336 1.836 1.056 0 .648-.528 1.128-1.536 1.128-.984 0-1.644-.42-2.088-1.056l-.852.576c.576.828 1.5 1.356 2.916 1.356zM145.6 89.45c7.425 0 11.925-4.365 11.925-10.08 0-3.51-1.8-5.985-4.68-7.47 2.385-1.575 3.87-4.005 3.87-7.02 0-5.49-4.275-9.18-11.34-9.18-5.04 0-9 2.205-11.385 5.85l5.265 3.15c1.26-2.295 3.195-3.6 6.165-3.6 3.375 0 4.995 1.8 4.995 3.96 0 2.43-1.8 4.275-5.265 4.275h-3.375v5.715h3.645c3.42 0 5.715 1.575 5.715 4.185 0 2.745-2.295 4.455-5.535 4.455-3.015 0-5.31-1.125-6.93-3.78l-5.31 3.915c2.835 3.78 6.435 5.625 12.24 5.625zm15.744-3.78c0 2.295 1.575 3.96 3.915 3.96 2.295 0 3.915-1.665 3.915-3.96s-1.62-3.96-3.915-3.96-3.915 1.665-3.915 3.96zM175.739 89h6.795l11.925-27.315V56.15h-21.6v5.94h14.985L175.739 89zm33.422.45c6.885 0 11.61-4.59 11.61-11.07 0-7.29-4.68-11.295-10.845-11.295-2.385 0-4.32.81-5.67 1.89l1.125-6.93h13.23V56.15h-18.135l-2.655 17.595 5.895 2.385c1.035-1.845 2.745-3.285 5.31-3.285 3.15 0 5.31 2.205 5.31 5.4 0 3.06-2.25 5.31-5.175 5.31-2.79 0-4.635-1.62-5.535-3.69l-6.165 3.465c2.25 3.645 6.165 6.12 11.7 6.12zm20.78-25.695c0-1.62 1.305-2.88 2.835-2.88 1.575 0 2.835 1.26 2.835 2.88a2.823 2.823 0 01-2.835 2.835c-1.53 0-2.835-1.26-2.835-2.835zm13.905 17.64c0 4.5 3.6 8.1 8.055 8.1s8.055-3.6 8.055-8.1c0-4.41-3.6-8.055-8.055-8.055s-8.055 3.645-8.055 8.055zM224.271 89h7.92l28.215-32.85h-7.92L224.271 89zm24.84-7.605c0-1.575 1.26-2.835 2.79-2.835a2.823 2.823 0 012.835 2.835c0 1.62-1.26 2.88-2.835 2.88-1.53 0-2.79-1.26-2.79-2.88zm-24.39-17.64c0 4.41 3.6 8.01 8.055 8.01s8.055-3.6 8.055-8.01c0-4.5-3.6-8.055-8.055-8.055a8.018 8.018 0 00-8.055 8.055zm53.458 5.715l1.71-2.88-6.075-2.52 6.075-2.52-1.62-2.88-5.22 3.915.81-6.48h-3.33l.81 6.48-5.22-3.96-1.665 2.835 6.03 2.61-6.03 2.52 1.62 2.88 5.265-3.96-.81 6.525h3.33l-.81-6.525 5.13 3.96zM139.392 40.16c2.656 0 4.128-1.696 4.128-3.488 0-2.544-2.048-3.072-3.888-3.456-1.52-.32-2.896-.544-2.896-1.728 0-1.008.656-1.744 2.224-1.744 1.52 0 2.32.624 3.008 1.552l1.44-1.136c-1.136-1.28-2.448-2-4.448-2-2.352 0-4.016 1.52-4.016 3.344 0 2.336 1.92 2.816 3.728 3.184 1.568.336 3.056.608 3.056 2 0 1.056-.816 1.824-2.384 1.824-1.472 0-2.656-.64-3.504-2.016l-1.52 1.2c1.104 1.504 2.64 2.464 5.072 2.464zm10.49.016c2.24 0 4.32-1.792 4.32-4.496 0-2.72-2.032-4.496-4.32-4.496-1.184 0-2.32.56-2.976 1.456v-1.28h-1.68v12.096h1.68v-4.608c.64.864 1.76 1.328 2.976 1.328zm-.24-1.584c-1.632 0-2.848-1.312-2.848-2.928 0-1.6 1.216-2.912 2.848-2.912 1.6 0 2.832 1.28 2.832 2.912s-1.232 2.928-2.832 2.928zm10.497 1.584c1.872 0 3.12-.832 3.952-2.08l-1.424-.848c-.512.832-1.312 1.392-2.528 1.392-1.584 0-2.672-.928-2.928-2.32h7.264v-.72c0-2.56-1.888-4.416-4.432-4.416-2.544 0-4.496 1.984-4.496 4.528 0 2.512 1.84 4.464 4.592 4.464zm-.096-7.472c1.424 0 2.432.784 2.688 2.144h-5.456c.336-1.248 1.392-2.144 2.768-2.144zm10.313 7.472c2 0 3.44-1.12 4.128-2.72l-1.568-.656c-.416.992-1.312 1.76-2.544 1.76-1.616 0-2.848-1.296-2.848-2.88 0-1.6 1.2-2.88 2.816-2.88 1.168 0 2.096.64 2.544 1.696l1.552-.672c-.656-1.552-2.192-2.64-4.096-2.64-2.528 0-4.512 1.952-4.512 4.496 0 2.496 1.952 4.496 4.528 4.496zm5.667-.176h1.744v-8.64h-1.744V40zm-.352-11.232c0 .704.496 1.232 1.216 1.232s1.232-.528 1.232-1.232-.512-1.232-1.232-1.232c-.704 0-1.216.528-1.216 1.232zm6.759 11.408c1.44 0 2.704-.672 3.392-1.696V40h1.664v-5.344c0-2.096-1.408-3.472-3.888-3.472-1.856 0-3.184.832-4.032 1.968l1.536.896c.496-.848 1.344-1.392 2.48-1.392 1.536 0 2.24.8 2.24 1.952v.144h-2.56c-2.416 0-3.888 1.088-3.888 2.864 0 1.456 1.056 2.56 3.056 2.56zm.368-1.504c-1.152 0-1.664-.448-1.664-1.2 0-.848.64-1.344 2.24-1.344h2.448v.72c-.56 1.136-1.792 1.824-3.024 1.824zM189.445 40h1.744V27.392h-1.744V40zm7.77 0h1.728v-3.856h3.136L204.191 40h1.984l-2.48-4.32c1.44-.608 2.256-2 2.256-3.456 0-2.256-1.648-3.904-4.192-3.904h-4.544V40zm4.4-10.064c1.712 0 2.592.912 2.592 2.24 0 1.232-.816 2.368-2.592 2.368h-2.672v-4.608h2.672zm8.565 10.24c1.44 0 2.704-.672 3.392-1.696V40h1.664v-5.344c0-2.096-1.408-3.472-3.888-3.472-1.856 0-3.184.832-4.032 1.968l1.536.896c.496-.848 1.344-1.392 2.48-1.392 1.536 0 2.24.8 2.24 1.952v.144h-2.56c-2.416 0-3.888 1.088-3.888 2.864 0 1.456 1.056 2.56 3.056 2.56zm.368-1.504c-1.152 0-1.664-.448-1.664-1.2 0-.848.64-1.344 2.24-1.344h2.448v.72c-.56 1.136-1.792 1.824-3.024 1.824zm5.757-5.76h1.712v4.272c0 2.128.992 2.976 2.704 2.976.72 0 1.328-.192 1.824-.528l-.816-1.44c-.272.24-.544.336-.88.336-.672 0-1.136-.416-1.136-1.36v-4.256h2.416V31.36h-2.416v-2.976l-1.696 1.104v1.872h-1.712v1.552zm11.193 7.264c1.872 0 3.12-.832 3.952-2.08l-1.424-.848c-.512.832-1.312 1.392-2.528 1.392-1.584 0-2.672-.928-2.928-2.32h7.264v-.72c0-2.56-1.888-4.416-4.432-4.416-2.544 0-4.496 1.984-4.496 4.528 0 2.512 1.84 4.464 4.592 4.464zm-.096-7.472c1.424 0 2.432.784 2.688 2.144h-5.456c.336-1.248 1.392-2.144 2.768-2.144zm15.805 7.456c2.384 0 4.32-1.328 5.328-3.28l-1.568-.832c-.672 1.408-1.968 2.4-3.776 2.4-2.416 0-4.24-1.92-4.24-4.288 0-2.4 1.824-4.32 4.256-4.32 1.648 0 2.928.864 3.648 2.208l1.52-.944a5.989 5.989 0 00-5.168-2.944c-3.344 0-6 2.592-6 6 0 3.312 2.544 6 6 6zm7.086-.16h3.456c3.504 0 6.064-2.512 6.064-5.84 0-3.312-2.336-5.84-6.128-5.84h-3.392V40zm3.216-10.08c2.928 0 4.544 1.792 4.544 4.24 0 2.4-1.792 4.224-4.48 4.224h-1.536V29.92h1.472z" fill="#193526"/><path d="M11.986 121.87l-1.352-1.456v-7.358l4.888-7.514 1.274-1.612v-.13h-4.68v.13l1.768 1.82-3.848 6.188-4.004-6.552 1.352-1.456v-.13H.364v.13l1.196 1.456 5.33 8.164v6.864l-1.378 1.456v.13h6.474v-.13zm9.312.52c4.004 0 6.76-2.964 6.76-7.176 0-4.108-2.626-6.864-6.5-6.864-4.004 0-6.734 2.964-6.734 7.176 0 4.108 2.6 6.864 6.474 6.864zm.442-.988c-2.054 0-3.406-2.626-3.406-6.734 0-3.484 1.014-5.356 2.782-5.356 2.054 0 3.432 2.626 3.432 6.734 0 3.484-1.04 5.356-2.808 5.356zm12.847.988c1.612 0 3.12-.78 4.55-2.366h.156l.312 2.366 4.342-1.066v-.13l-1.326-1.222V108.35h-.26l-4.576 1.248v.13l1.43 1.3v8.06c-.988.832-1.898 1.248-2.808 1.248-1.326 0-2.106-.832-2.106-2.21v-9.802h-.26l-4.576 1.248v.13l1.43 1.3v7.878c0 2.054 1.482 3.51 3.692 3.51zM6.786 93.39c4.394 0 7.436-2.392 7.436-5.824 0-5.824-8.866-4.888-8.866-9.308 0-1.69 1.222-2.86 3.094-2.86.26 0 .572.026.858.13l3.874 2.938h.13v-3.068c-.78-.572-2.964-.988-4.862-.988-3.77 0-6.448 2.158-6.448 5.226 0 5.824 8.866 4.862 8.866 9.308 0 2.08-1.638 3.432-3.562 3.432-.468 0-.988-.104-1.196-.182l-4.524-3.406h-.13v3.406c1.066.65 3.276 1.196 5.33 1.196zm14.243 0c1.612 0 3.12-.78 4.55-2.366h.156l.312 2.366 4.342-1.066v-.13l-1.326-1.222V79.35h-.26l-4.576 1.248v.13l1.43 1.3v8.06c-.988.832-1.898 1.248-2.808 1.248-1.326 0-2.106-.832-2.106-2.21v-9.802h-.26l-4.576 1.248v.13l1.43 1.3v7.878c0 2.054 1.482 3.51 3.692 3.51zm14.307-16.744c1.17 0 1.95-.702 1.95-1.846 0-1.144-.78-1.82-1.95-1.82-1.196 0-1.976.676-1.976 1.82 0 1.144.78 1.846 1.976 1.846zM38.248 93v-.104L37.026 91.7V79.35h-.26l-4.576 1.248v.104l1.43 1.3V91.7l-1.196 1.196V93h5.824zm6.49.39c1.795 0 3.38-.988 4.135-2.6l-.104-.078c-.598.52-1.326.806-2.028.806-1.092 0-1.846-.624-1.846-2.002V81.04h3.38l.182-1.3h-3.562v-2.652h-.442l-4.758 3.822v.13h1.794v10.036c.364 1.612 1.742 2.314 3.25 2.314zM6.448 65h3.614V49.4h5.226v-3.38H1.17v3.38h5.278V65zm11.282 0h3.562v-7.748c0-2.184 1.3-3.432 2.99-3.432 1.898 0 2.86 1.248 2.86 3.25V65h3.692v-8.476c0-3.666-2.132-5.85-5.46-5.85-1.716 0-3.146.754-4.082 2.002v-8.164H17.73V65zm20.213.286c2.21 0 4.134-.988 5.148-2.444V65h3.457v-8.632c0-3.536-2.366-5.694-6.5-5.694-3.145 0-5.2 1.326-6.63 3.198l3.303 1.638c.65-1.17 1.716-1.846 3.302-1.846 2.027 0 3.041 1.04 3.041 2.548v.182h-3.691c-3.9 0-6.319 1.794-6.319 4.706 0 2.47 1.82 4.186 4.889 4.186zm1.04-2.964c-1.482 0-2.184-.52-2.184-1.534 0-1.092.858-1.768 2.99-1.768h3.301v.754c-.702 1.508-2.392 2.548-4.108 2.548zm9.07-8.19h2.6v5.902c0 3.822 1.717 5.226 4.655 5.226 1.3 0 2.444-.39 3.354-1.066l-1.638-2.808c-.416.364-.806.52-1.3.52-.91 0-1.534-.52-1.534-2.002v-5.772h3.692V50.96H54.19v-5.122l-3.536 2.08v3.042h-2.6v3.172zM8.58 36.26c4.238 0 6.968-2.704 6.968-5.954 0-4.108-3.354-5.044-6.266-5.668-2.366-.546-4.264-.832-4.264-2.366 0-1.248.884-2.262 2.938-2.262 2.184 0 3.458.91 4.446 2.366l2.99-2.34c-1.924-2.132-4.03-3.302-7.384-3.302-3.952 0-6.734 2.496-6.734 5.616 0 3.848 3.172 4.758 6.006 5.356 2.626.598 4.446.962 4.446 2.73 0 1.378-1.066 2.366-3.12 2.366-2.262 0-3.952-1.014-5.2-2.99L.208 32.36c1.794 2.288 4.29 3.9 8.372 3.9zm13.798.026c2.21 0 4.134-.988 5.148-2.444V36h3.458v-8.632c0-3.536-2.366-5.694-6.5-5.694-3.146 0-5.2 1.326-6.63 3.198l3.302 1.638c.65-1.17 1.716-1.846 3.302-1.846 2.028 0 3.042 1.04 3.042 2.548v.182h-3.692c-3.9 0-6.318 1.794-6.318 4.706 0 2.47 1.82 4.186 4.888 4.186zm1.04-2.964c-1.482 0-2.184-.52-2.184-1.534 0-1.092.858-1.768 2.99-1.768h3.302v.754c-.702 1.508-2.392 2.548-4.108 2.548zM37.154 36h3.562l5.512-14.04H42.51l-3.484 9.464-3.458-9.464h-3.796L37.154 36zm10.791 0h3.666V21.96h-3.666V36zm-.468-17.992c0 1.326.936 2.288 2.288 2.288 1.378 0 2.314-.962 2.314-2.288 0-1.352-.936-2.34-2.314-2.34-1.326 0-2.288.988-2.288 2.34zM54.47 36h3.614v-7.748c0-2.184 1.3-3.432 2.99-3.432 1.898 0 2.86 1.248 2.86 3.25V36H67.6v-8.476c0-3.666-2.106-5.85-5.434-5.85-1.742 0-3.198.78-4.108 2.054V21.96H54.47V36zm22.213.208c1.82 0 3.432-.832 4.42-2.21v1.066c0 2.21-1.612 3.744-3.874 3.744-1.846 0-2.886-.676-3.822-1.898l-2.964 2.314c1.586 1.846 3.692 2.782 6.89 2.782 4.316 0 7.358-2.964 7.358-7.046v-13h-3.588v1.846c-.936-1.3-2.496-2.132-4.368-2.132-3.588 0-6.812 2.834-6.812 7.28s3.302 7.254 6.76 7.254zm.702-3.328c-2.158 0-3.9-1.742-3.9-3.952 0-2.236 1.742-3.952 3.9-3.952 2.21 0 3.9 1.742 3.9 3.952s-1.69 3.952-3.9 3.952zm15.709 3.406c4.082.026 6.032-2.444 6.032-4.628 0-3.016-2.756-3.822-5.096-4.29-2.054-.442-3.198-.676-3.198-1.56 0-.78.676-1.352 2.08-1.352 1.3 0 2.184.546 2.756 1.482l3.276-1.326c-1.3-1.872-3.068-2.99-6.032-2.99-3.458-.026-5.746 2.028-5.746 4.394 0 2.964 2.626 3.692 4.992 4.186 1.794.364 3.302.598 3.302 1.612 0 .832-.78 1.534-2.236 1.534-1.482 0-2.6-.65-3.224-1.898l-3.458 1.352c1.118 2.236 3.224 3.484 6.552 3.484z" fill="#fff"/></svg>