<svg width="131" height="30" viewBox="0 0 131 30" fill="none" xmlns="http://www.w3.org/2000/svg"><path d="M6.42 12.15c2.235 0 4.05-1.245 4.995-3.075l-1.47-.78c-.63 1.32-1.845 2.25-3.54 2.25-2.265 0-3.975-1.8-3.975-4.02 0-2.25 1.71-4.05 3.99-4.05 1.545 0 2.745.81 3.42 2.07l1.425-.885A5.615 5.615 0 006.42.9C3.285.9.795 3.33.795 6.525c0 3.105 2.385 5.625 5.625 5.625zm10.334.015A4.2 4.2 0 0020.97 7.95a4.2 4.2 0 00-4.215-4.215A4.2 4.2 0 0012.54 7.95a4.2 4.2 0 004.215 4.215zm0-1.515c-1.47 0-2.595-1.2-2.595-2.7 0-1.5 1.125-2.7 2.595-2.7 1.455 0 2.61 1.2 2.61 2.7 0 1.5-1.14 2.7-2.61 2.7zM22.536 12h1.62V7.53c0-1.455.945-2.37 2.175-2.37 1.35 0 2.07.885 2.07 2.265V12h1.635V7.305c0-2.22-1.275-3.57-3.33-3.57-1.125 0-2.025.51-2.58 1.29V3.9h-1.59V12zm12.256.165c2.236.015 3.3-1.38 3.3-2.565 0-1.68-1.53-2.145-2.88-2.43-1.23-.27-1.965-.42-1.965-1.065 0-.57.48-1.035 1.47-1.035.87 0 1.456.36 1.86.96l1.395-.795c-.705-.96-1.74-1.515-3.255-1.515-1.904-.015-3.12 1.155-3.12 2.415 0 1.65 1.456 2.1 2.82 2.385 1.066.225 2.055.39 2.055 1.095 0 .615-.555 1.14-1.605 1.14-1.005 0-1.694-.435-2.19-1.2l-1.454.825c.69 1.17 1.86 1.785 3.57 1.785zm7.92 0c1.08 0 1.98-.495 2.535-1.275V12h1.59V3.9h-1.62v4.47c0 1.44-.93 2.355-2.145 2.355-1.365 0-2.055-.885-2.055-2.25V3.9h-1.65v4.68c0 2.235 1.2 3.585 3.345 3.585zM48.713 12h1.62V7.47c0-1.53.735-2.31 1.935-2.31 1.23 0 1.785.75 1.785 1.98V12h1.635V7.395c0-1.485.75-2.235 1.905-2.235 1.275 0 1.83.825 1.83 2.085V12h1.665V7.155c0-2.085-1.035-3.42-3.255-3.42-1.2 0-2.13.57-2.64 1.425-.435-.885-1.29-1.425-2.58-1.425-1.035 0-1.8.42-2.295 1.095V3.9h-1.605V12zm18.214.165c1.755 0 2.925-.78 3.705-1.95l-1.335-.795c-.48.78-1.23 1.305-2.37 1.305-1.485 0-2.505-.87-2.745-2.175h6.81v-.675c0-2.4-1.77-4.14-4.155-4.14-2.385 0-4.215 1.86-4.215 4.245 0 2.355 1.725 4.185 4.305 4.185zm-.09-7.005c1.335 0 2.28.735 2.52 2.01h-5.115c.315-1.17 1.305-2.01 2.595-2.01zM72.546 12h1.62V7.44c0-1.455.735-2.025 1.89-2.025.465 0 .795.09 1.02.24l.63-1.56c-.315-.195-.81-.315-1.365-.315-1.035 0-1.86.51-2.205 1.53V3.9h-1.59V12zm10.214 0h1.62V3.72l3.54 4.815 3.66-4.92V12h1.605V1.05H91.64L87.95 6l-3.57-4.95h-1.62V12zm16.187.165a4.2 4.2 0 004.215-4.215 4.2 4.2 0 00-4.215-4.215 4.2 4.2 0 00-4.215 4.215 4.2 4.2 0 004.215 4.215zm0-1.515c-1.47 0-2.595-1.2-2.595-2.7 0-1.5 1.125-2.7 2.595-2.7 1.455 0 2.61 1.2 2.61 2.7 0 1.5-1.14 2.7-2.61 2.7zm5.782 1.35h1.62V7.53c0-1.455.945-2.37 2.175-2.37 1.35 0 2.07.885 2.07 2.265V12h1.635V7.305c0-2.22-1.275-3.57-3.33-3.57-1.125 0-2.025.51-2.58 1.29V3.9h-1.59V12zm13.336.165c1.755 0 2.925-.78 3.705-1.95l-1.335-.795c-.48.78-1.23 1.305-2.37 1.305-1.485 0-2.505-.87-2.745-2.175h6.81v-.675c0-2.4-1.77-4.14-4.155-4.14-2.385 0-4.215 1.86-4.215 4.245 0 2.355 1.725 4.185 4.305 4.185zm-.09-7.005c1.335 0 2.28.735 2.52 2.01h-5.115c.315-1.17 1.305-2.01 2.595-2.01zm6.019 9.84c1.56 0 2.4-.675 3.21-2.595l3.615-8.505h-1.725l-2.325 5.805-2.43-5.805h-1.74l3.33 7.71-.15.345c-.525 1.155-.96 1.5-1.8 1.5-.465 0-.795-.18-1.08-.465l-.96 1.365c.525.39 1.29.645 2.055.645zM1.11 29h1.62v-8.28l3.54 4.815 3.66-4.92V29h1.605V18.05H9.99L6.3 23l-3.57-4.95H1.11V29zm14.82.165c1.35 0 2.536-.63 3.18-1.59V29h1.56v-5.01c0-1.965-1.32-3.255-3.644-3.255-1.74 0-2.985.78-3.78 1.845l1.44.84c.465-.795 1.26-1.305 2.325-1.305 1.44 0 2.1.75 2.1 1.83v.135h-2.4c-2.265 0-3.645 1.02-3.645 2.685 0 1.365.99 2.4 2.865 2.4zm.346-1.41c-1.08 0-1.56-.42-1.56-1.125 0-.795.6-1.26 2.1-1.26h2.295v.675c-.525 1.065-1.68 1.71-2.835 1.71zM22.492 29h1.62v-4.56c0-1.455.735-2.025 1.89-2.025.465 0 .795.09 1.02.24l.63-1.56c-.315-.195-.81-.315-1.365-.315-1.035 0-1.86.51-2.205 1.53V20.9h-1.59V29zm12.071 0h1.905l-3.315-4.695 3.135-3.405h-1.98l-3.78 4.14v-7.86h-1.605V29h1.605v-2.1l1.455-1.575L34.563 29zm6.187.165c1.755 0 2.925-.78 3.705-1.95l-1.335-.795c-.48.78-1.23 1.305-2.37 1.305-1.485 0-2.505-.87-2.745-2.175h6.81v-.675c0-2.4-1.77-4.14-4.155-4.14-2.385 0-4.215 1.86-4.215 4.245 0 2.355 1.725 4.185 4.305 4.185zm-.09-7.005c1.335 0 2.28.735 2.52 2.01h-5.115c.315-1.17 1.305-2.01 2.595-2.01zm4.802.195h1.605v4.005c0 1.995.93 2.79 2.535 2.79.675 0 1.245-.18 1.71-.495l-.765-1.35c-.255.225-.51.315-.825.315-.63 0-1.065-.39-1.065-1.275v-3.99h2.265V20.9h-2.265v-2.79l-1.59 1.035V20.9h-1.605v1.455zM55.422 29h1.71l.87-2.34h4.95l.886 2.34h1.695l-4.23-10.95h-1.65L55.423 29zm5.056-8.91l1.89 5.01h-3.78l1.89-5.01zm9.817 9.075c1.875 0 3.225-1.05 3.87-2.55L72.695 26c-.39.93-1.23 1.65-2.385 1.65-1.515 0-2.67-1.215-2.67-2.7 0-1.5 1.125-2.7 2.64-2.7 1.095 0 1.965.6 2.385 1.59l1.455-.63c-.615-1.455-2.055-2.475-3.84-2.475-2.37 0-4.23 1.83-4.23 4.215 0 2.34 1.83 4.215 4.245 4.215zm9.126 0c1.875 0 3.225-1.05 3.87-2.55L81.82 26c-.39.93-1.23 1.65-2.385 1.65-1.515 0-2.67-1.215-2.67-2.7 0-1.5 1.125-2.7 2.64-2.7 1.095 0 1.965.6 2.385 1.59l1.455-.63c-.615-1.455-2.055-2.475-3.84-2.475-2.37 0-4.23 1.83-4.23 4.215 0 2.34 1.83 4.215 4.245 4.215zm9.096 0a4.2 4.2 0 004.215-4.215 4.2 4.2 0 00-4.215-4.215 4.2 4.2 0 00-4.215 4.215 4.2 4.2 0 004.215 4.215zm0-1.515c-1.47 0-2.595-1.2-2.595-2.7 0-1.5 1.125-2.7 2.595-2.7 1.455 0 2.61 1.2 2.61 2.7 0 1.5-1.14 2.7-2.61 2.7zm9.083 1.515c1.08 0 1.98-.495 2.535-1.275V29h1.59v-8.1h-1.62v4.47c0 1.44-.93 2.355-2.145 2.355-1.365 0-2.055-.885-2.055-2.25V20.9h-1.65v4.68c0 2.235 1.2 3.585 3.345 3.585zM103.6 29h1.62v-4.47c0-1.455.945-2.37 2.175-2.37 1.35 0 2.07.885 2.07 2.265V29h1.635v-4.695c0-2.22-1.275-3.57-3.33-3.57-1.125 0-2.025.51-2.58 1.29V20.9h-1.59V29zm8.467-6.645h1.605v4.005c0 1.995.93 2.79 2.535 2.79.675 0 1.245-.18 1.71-.495l-.765-1.35c-.255.225-.51.315-.825.315-.63 0-1.065-.39-1.065-1.275v-3.99h2.265V20.9h-2.265v-2.79l-1.59 1.035V20.9h-1.605v1.455z" fill="#193526"/></svg>