<svg width="57" height="8" viewBox="0 0 57 8" fill="none" xmlns="http://www.w3.org/2000/svg"><path d="M.787 7h.448V1.928L3.483 5 5.82 1.872V7h.448V1.16h-.44L3.491 4.272 1.243 1.16H.787V7zm8.945.088c.952 0 1.568-.392 2.04-1.152l-.408-.224c-.336.632-.864.96-1.64.96-1.024 0-1.752-.696-1.824-1.648h4.008v-.232c0-1.288-.928-2.2-2.176-2.2-1.32 0-2.272.992-2.272 2.272 0 1.272.872 2.224 2.272 2.224zm0-4.08c.968 0 1.624.648 1.704 1.592h-3.52c.12-.904.848-1.592 1.816-1.592zM13.042 7h.449V4.552c0-.928.64-1.544 1.496-1.544.872 0 1.424.552 1.424 1.384V7h.448V4.48c0-.904.664-1.472 1.488-1.472.904 0 1.488.616 1.488 1.456V7h.448V4.496c0-1.136-.72-1.904-1.928-1.904-.808 0-1.44.432-1.688 1.048-.224-.632-.792-1.048-1.648-1.048-.728 0-1.272.36-1.544.888v-.8h-.432V7zm10.74.088c1.32 0 2.24-.952 2.24-2.248 0-1.272-.968-2.248-2.224-2.248-.672 0-1.408.36-1.76 1V.696h-.44V7h.432v-.92c.352.648 1.088 1.008 1.752 1.008zm0-.432c-1.024 0-1.8-.808-1.8-1.816 0-1 .776-1.824 1.8-1.824 1.008 0 1.768.792 1.768 1.824 0 1.064-.76 1.816-1.768 1.816zm5.474.432c.952 0 1.568-.392 2.04-1.152l-.408-.224c-.336.632-.864.96-1.64.96-1.024 0-1.752-.696-1.824-1.648h4.008v-.232c0-1.288-.928-2.2-2.176-2.2-1.32 0-2.272.992-2.272 2.272 0 1.272.872 2.224 2.272 2.224zm0-4.08c.968 0 1.624.648 1.704 1.592h-3.52c.12-.904.848-1.592 1.816-1.592zM32.566 7h.44V4.696c0-1.12.432-1.656 1.256-1.656.224 0 .392.064.512.144l.216-.416c-.168-.096-.424-.152-.712-.152-.68 0-1.112.328-1.296.928V2.68h-.416V7zm5.44 0h.464V4.456h3.232v-.44H38.47V1.6h3.232v-.44h-3.696V7zm4.883 0h1.736c1.696 0 3.008-1.256 3.008-2.92 0-1.656-1.264-2.92-3.024-2.92h-1.72V7zm1.688-5.416c1.528 0 2.584 1.08 2.584 2.496s-1.104 2.488-2.568 2.488h-1.24V1.584h1.224zM49.023 7h.456V1.16h-.456V7zm4.846.08a2.978 2.978 0 002.656-1.576l-.408-.208c-.416.8-1.224 1.344-2.248 1.344-1.424 0-2.528-1.152-2.528-2.56 0-1.408 1.104-2.568 2.528-2.568.944 0 1.744.52 2.176 1.272l.4-.232a3.001 3.001 0 00-2.576-1.472 3.001 3.001 0 000 6z" fill="#fff"/></svg>