<svg width="148" height="56" viewBox="0 0 148 56" fill="none" xmlns="http://www.w3.org/2000/svg"><path d="M2.205 44h22.23v-6.03H8.82c.18-3.015 3.51-4.95 7.11-7.155 4.185-2.52 8.64-5.355 8.64-10.665 0-5.31-4.05-9.45-10.98-9.45-5.58 0-9.765 2.925-11.97 7.38l5.625 2.745c1.08-2.655 3.24-4.635 6.255-4.635 3.015 0 4.68 1.62 4.68 3.915 0 2.655-3.105 4.455-6.75 6.705-4.365 2.655-9.225 5.94-9.225 11.88V44zm24.153-3.33c0 2.295 1.575 3.96 3.915 3.96 2.295 0 3.915-1.665 3.915-3.96s-1.62-3.96-3.915-3.96-3.915 1.665-3.915 3.96zm22.494-2.295c-4.005 0-6.48-2.205-6.48-10.305v-1.35c0-7.74 2.61-9.99 6.525-9.99 3.825 0 6.435 2.025 6.435 9.99v1.35c0 8.01-2.475 10.305-6.48 10.305zm0 6.075c7.515 0 12.87-4.23 12.87-16.29v-1.53c0-11.25-5.535-15.93-12.87-15.93-7.2 0-12.825 4.545-12.825 15.93v1.53c0 11.925 5.22 16.29 12.825 16.29zm28.029-6.075c-4.005 0-6.48-2.205-6.48-10.305v-1.35c0-7.74 2.61-9.99 6.525-9.99 3.825 0 6.435 2.025 6.435 9.99v1.35c0 8.01-2.475 10.305-6.48 10.305zm0 6.075c7.515 0 12.87-4.23 12.87-16.29v-1.53c0-11.25-5.535-15.93-12.87-15.93-7.2 0-12.825 4.545-12.825 15.93v1.53c0 11.925 5.22 16.29 12.825 16.29zm20.288-25.695c0-1.62 1.305-2.88 2.835-2.88 1.575 0 2.835 1.26 2.835 2.88a2.823 2.823 0 01-2.835 2.835c-1.53 0-2.835-1.26-2.835-2.835zm13.905 17.64c0 4.5 3.6 8.1 8.055 8.1s8.055-3.6 8.055-8.1c0-4.41-3.6-8.055-8.055-8.055s-8.055 3.645-8.055 8.055zM91.499 44h7.92l28.215-32.85h-7.92L91.499 44zm24.84-7.605c0-1.575 1.26-2.835 2.79-2.835a2.823 2.823 0 012.835 2.835c0 1.62-1.26 2.88-2.835 2.88-1.53 0-2.79-1.26-2.79-2.88zm-24.39-17.64c0 4.41 3.6 8.01 8.055 8.01s8.055-3.6 8.055-8.01c0-4.5-3.6-8.055-8.055-8.055a8.018 8.018 0 00-8.055 8.055zm51.209 5.715l1.71-2.88-6.075-2.52 6.075-2.52-1.62-2.88-5.22 3.915.81-6.48h-3.33l.81 6.48-5.22-3.96-1.665 2.835 6.03 2.61-6.03 2.52 1.62 2.88 5.265-3.96-.81 6.525h3.33l-.81-6.525 5.13 3.96zM127.22 45h1.14l.58-1.56h3.3l.59 1.56h1.13l-2.82-7.3h-1.1l-2.82 7.3zm3.37-5.94l1.26 3.34h-2.52l1.26-3.34zm4.328 5.94h1.09v-2.14h1.73c1.58 0 2.68-1.14 2.68-2.58 0-1.45-1.1-2.58-2.66-2.58h-2.84V45zm2.75-6.3c1.02 0 1.66.68 1.66 1.58 0 .89-.64 1.57-1.66 1.57h-1.66V38.7h1.66zm5.676 6.3h1.08v-3.07l2.59-4.23h-1.2l-1.92 3.19-1.91-3.19h-1.22l2.58 4.22V45z" fill="#193526"/></svg>