<svg width="58" height="22" viewBox="0 0 58 22" fill="none" xmlns="http://www.w3.org/2000/svg"><path d="M5.448 21h3.614V5.4h5.226V2.02H.17V5.4h5.278V21zm11.282 0h3.562v-7.748c0-2.184 1.3-3.432 2.99-3.432 1.898 0 2.86 1.248 2.86 3.25V21h3.692v-8.476c0-3.666-2.132-5.85-5.46-5.85-1.716 0-3.146.754-4.082 2.002V.512H16.73V21zm20.213.286c2.21 0 4.134-.988 5.148-2.444V21h3.457v-8.632c0-3.536-2.366-5.694-6.5-5.694-3.145 0-5.2 1.326-6.63 3.198l3.303 1.638c.65-1.17 1.716-1.846 3.302-1.846 2.027 0 3.041 1.04 3.041 2.548v.182h-3.691c-3.9 0-6.319 1.794-6.319 4.706 0 2.47 1.82 4.186 4.889 4.186zm1.04-2.964c-1.482 0-2.184-.52-2.184-1.534 0-1.092.858-1.768 2.99-1.768h3.301v.754c-.702 1.508-2.392 2.548-4.108 2.548zm9.07-8.19h2.6v5.902c0 3.822 1.717 5.226 4.655 5.226 1.3 0 2.444-.39 3.354-1.066l-1.638-2.808c-.416.364-.806.52-1.3.52-.91 0-1.534-.52-1.534-2.002v-5.772h3.692V6.96H53.19V1.838l-3.536 2.08V6.96h-2.6v3.172z" fill="#fff"/></svg>