<svg width="44" height="20" viewBox="0 0 44 20" fill="none" xmlns="http://www.w3.org/2000/svg"><path d="M11.986 18.87l-1.352-1.456v-7.358l4.888-7.514L16.796.93V.8h-4.68v.13l1.768 1.82-3.848 6.188-4.004-6.552L7.384.93V.8H.364v.13L1.56 2.386l5.33 8.164v6.864L5.512 18.87V19h6.474v-.13zm9.312.52c4.004 0 6.76-2.964 6.76-7.176 0-4.108-2.626-6.864-6.5-6.864-4.004 0-6.734 2.964-6.734 7.176 0 4.108 2.6 6.864 6.474 6.864zm.442-.988c-2.054 0-3.406-2.626-3.406-6.734 0-3.484 1.014-5.356 2.782-5.356 2.054 0 3.432 2.626 3.432 6.734 0 3.484-1.04 5.356-2.808 5.356zm12.847.988c1.612 0 3.12-.78 4.55-2.366h.156l.312 2.366 4.342-1.066v-.13l-1.326-1.222V5.35h-.26l-4.576 1.248v.13l1.43 1.3v8.06c-.988.832-1.898 1.248-2.808 1.248-1.326 0-2.106-.832-2.106-2.21V5.324h-.26l-4.576 1.248v.13l1.43 1.3v7.878c0 2.054 1.482 3.51 3.692 3.51z" fill="#fff"/></svg>