<svg width="286" height="199" viewBox="0 0 286 199" fill="none" xmlns="http://www.w3.org/2000/svg"><circle cx="229" cy="82" r="117" fill="#D9D9D9"/><path fill="#D9D9D9" d="M112-35h234V79.4H112z"/><path d="M137.68 119h.64l1.328-3.424 1.328 3.424h.592l1.496-4.32h-.68l-1.128 3.4-1.288-3.4h-.608l-1.32 3.424-1.088-3.424h-.688l1.416 4.32zm6.232 0h.664v-4.32h-.664V119zm-.184-5.648c0 .296.216.52.512.52.304 0 .52-.224.52-.52a.504.504 0 00-.52-.52.507.507 0 00-.512.52zm1.644 1.912h.84v2.432c0 .952.432 1.368 1.224 1.368.36 0 .64-.112.888-.304l-.344-.52a.697.697 0 01-.496.208c-.368 0-.624-.216-.624-.768v-2.416h1.264v-.584h-1.264v-1.368l-.648.416v.952h-.84v.584zm3.689 3.736h.656v-2.4c0-.832.592-1.416 1.352-1.416.848 0 1.304.544 1.304 1.384V119h.672v-2.464c0-1.208-.712-1.944-1.84-1.944-.656 0-1.192.312-1.496.784v-2.68h-.648V119zm10.781-1.624c0-1.064-.824-1.416-1.592-1.672v-2.016c.392.08.696.296.92.624l.544-.408c-.36-.432-.808-.728-1.456-.8v-.824h-.64v.824c-.872.112-1.504.704-1.504 1.504 0 1.008.768 1.328 1.512 1.568v2.256a1.754 1.754 0 01-1.16-.808l-.576.448c.392.512.992.904 1.728.984v.904h.64v-.904c.992-.128 1.584-.864 1.584-1.68zm-.68.008c0 .528-.368.936-.912 1.048v-2.056c.504.192.912.448.912 1.008zm-2.376-2.784c0-.472.336-.816.84-.912v1.808c-.48-.184-.84-.408-.84-.896zm5.912 4.4v-5.84h-.656c-.008.744-.424 1.248-1.368 1.248h-.048v.672h.088c.672 0 1.136-.296 1.32-.744V119h.664zm3.429-.56c-.88 0-1.552-.48-1.552-2.256v-.272c0-1.712.696-2.2 1.568-2.2.864 0 1.56.44 1.56 2.2v.272c0 1.76-.696 2.256-1.576 2.256zm.008.64c1.272 0 2.232-.752 2.232-2.896v-.272c0-2-.976-2.832-2.232-2.832-1.216 0-2.224.808-2.224 2.832v.272c0 2.12.928 2.896 2.224 2.896zm5.484-.64c-.88 0-1.552-.48-1.552-2.256v-.272c0-1.712.696-2.2 1.568-2.2.864 0 1.56.44 1.56 2.2v.272c0 1.76-.696 2.256-1.576 2.256zm.008.64c1.272 0 2.232-.752 2.232-2.896v-.272c0-2-.976-2.832-2.232-2.832-1.216 0-2.224.808-2.224 2.832v.272c0 2.12.928 2.896 2.224 2.896zm3.532-.024c.192 0 .32-.096.336-.312a.468.468 0 01.016.104c0 .352-.232.688-.672.944l.224.296c.512-.312.864-.776.864-1.304 0-.384-.224-.704-.64-.704-.32 0-.544.216-.544.528 0 .256.168.448.416.448zm3.866-.616c-.88 0-1.552-.48-1.552-2.256v-.272c0-1.712.696-2.2 1.568-2.2.864 0 1.56.44 1.56 2.2v.272c0 1.76-.696 2.256-1.576 2.256zm.008.64c1.272 0 2.232-.752 2.232-2.896v-.272c0-2-.976-2.832-2.232-2.832-1.216 0-2.224.808-2.224 2.832v.272c0 2.12.928 2.896 2.224 2.896zm5.484-.64c-.88 0-1.552-.48-1.552-2.256v-.272c0-1.712.696-2.2 1.568-2.2.864 0 1.56.44 1.56 2.2v.272c0 1.76-.696 2.256-1.576 2.256zm.008.64c1.272 0 2.232-.752 2.232-2.896v-.272c0-2-.976-2.832-2.232-2.832-1.216 0-2.224.808-2.224 2.832v.272c0 2.12.928 2.896 2.224 2.896zm5.484-.64c-.88 0-1.552-.48-1.552-2.256v-.272c0-1.712.696-2.2 1.568-2.2.864 0 1.56.44 1.56 2.2v.272c0 1.76-.696 2.256-1.576 2.256zm.008.64c1.272 0 2.232-.752 2.232-2.896v-.272c0-2-.976-2.832-2.232-2.832-1.216 0-2.224.808-2.224 2.832v.272c0 2.12.928 2.896 2.224 2.896zm5.293-.08h.656v-2.432c0-.872.52-1.392 1.264-1.392.768 0 1.192.48 1.192 1.224v2.6h.656v-2.488c0-.848.536-1.336 1.256-1.336.792 0 1.232.528 1.232 1.288V119h.664v-2.544c0-1.128-.632-1.864-1.832-1.864-.72 0-1.28.36-1.552.896-.232-.544-.736-.896-1.504-.896-.632 0-1.112.28-1.384.72v-.632h-.648V119zm8.063 0h.664v-4.32h-.664V119zm-.184-5.648c0 .296.216.52.512.52.304 0 .52-.224.52-.52a.504.504 0 00-.52-.52.507.507 0 00-.512.52zm2.012 5.648h.656v-2.4c0-.832.592-1.416 1.36-1.416.84 0 1.304.544 1.304 1.384V119h.664v-2.464c0-1.208-.712-1.944-1.84-1.944-.672 0-1.208.328-1.504.808v-.72h-.64V119zm5.125 0h.664v-4.32h-.664V119zm-.184-5.648c0 .296.216.52.512.52.304 0 .52-.224.52-.52a.504.504 0 00-.52-.52.507.507 0 00-.512.52zm2.012 5.648h.656v-2.432c0-.872.52-1.392 1.264-1.392.768 0 1.192.48 1.192 1.224v2.6h.656v-2.488c0-.848.536-1.336 1.256-1.336.792 0 1.232.528 1.232 1.288V119h.664v-2.544c0-1.128-.632-1.864-1.832-1.864-.72 0-1.28.36-1.552.896-.232-.544-.736-.896-1.504-.896-.632 0-1.112.28-1.384.72v-.632h-.648V119zm9.73.088c.656 0 1.168-.32 1.456-.8V119h.64v-4.32h-.656v2.392c0 .832-.568 1.416-1.328 1.416-.832 0-1.264-.544-1.264-1.384v-2.424h-.664v2.456c0 1.216.64 1.952 1.816 1.952zm3.255-.088h.656v-2.432c0-.872.52-1.392 1.264-1.392.768 0 1.192.48 1.192 1.224v2.6h.656v-2.488c0-.848.536-1.336 1.256-1.336.792 0 1.232.528 1.232 1.288V119h.664v-2.544c0-1.128-.632-1.864-1.832-1.864-.72 0-1.28.36-1.553.896-.231-.544-.735-.896-1.503-.896-.632 0-1.112.28-1.384.72v-.632h-.648V119zm12.055.088c.624 0 1.272-.32 1.616-.856V119h.648v-6.312h-.648v2.744c-.344-.528-.992-.84-1.616-.84-1.208 0-2.2.928-2.2 2.248 0 1.32.976 2.248 2.2 2.248zm.056-.616c-.904 0-1.592-.696-1.592-1.64 0-.92.688-1.64 1.592-1.64.92 0 1.608.744 1.608 1.64 0 .912-.688 1.64-1.608 1.64zm5.477.616c.944 0 1.568-.408 2.008-1.096l-.56-.328c-.296.528-.76.832-1.448.832-.912 0-1.544-.584-1.64-1.408h3.816v-.296c0-1.28-.936-2.2-2.2-2.2-1.296 0-2.256.992-2.256 2.264 0 1.264.896 2.232 2.28 2.232zm-.024-3.912c.84 0 1.424.52 1.528 1.336h-3.128c.144-.768.776-1.336 1.6-1.336zm5.434 3.912c1.224 0 2.2-.928 2.2-2.248 0-1.32-.992-2.248-2.192-2.248-.64 0-1.296.328-1.632.88v-.792h-.64v5.984h.648v-2.408c.336.536.976.832 1.616.832zm-.056-.616c-.92 0-1.616-.728-1.616-1.64 0-.896.696-1.64 1.616-1.64.904 0 1.592.72 1.592 1.64 0 .944-.688 1.64-1.592 1.64zm5.317.616c1.272 0 2.248-1 2.248-2.248a2.22 2.22 0 00-2.248-2.248c-1.256 0-2.24.984-2.24 2.248 0 1.272.968 2.248 2.24 2.248zm0-.624c-.896 0-1.576-.696-1.576-1.624 0-.92.68-1.632 1.576-1.632s1.584.712 1.584 1.632c0 .92-.68 1.624-1.584 1.624zm4.761.624c1.128.008 1.704-.664 1.704-1.344 0-.888-.816-1.096-1.56-1.24-.672-.136-1.192-.224-1.192-.672 0-.4.272-.688.936-.688.552 0 .928.232 1.184.576l.544-.368c-.384-.472-.928-.768-1.728-.768-1.024-.008-1.608.584-1.608 1.256 0 .864.792 1.064 1.536 1.208.632.128 1.224.224 1.224.704 0 .432-.352.752-1.024.752-.656 0-1.096-.28-1.392-.704l-.568.384c.384.552 1 .904 1.944.904zm2.62-.088h.664v-4.32h-.664V119zm-.184-5.648c0 .296.216.52.512.52.304 0 .52-.224.52-.52a.504.504 0 00-.52-.52.507.507 0 00-.512.52zm1.644 1.912h.84v2.432c0 .952.432 1.368 1.224 1.368.36 0 .64-.112.888-.304l-.344-.52a.697.697 0 01-.496.208c-.368 0-.624-.216-.624-.768v-2.416h1.264v-.584h-1.264v-1.368l-.648.416v.952h-.84v.584zM135.205 98h22.23v-6.03H141.82c.18-3.015 3.51-4.95 7.11-7.155 4.185-2.52 8.64-5.355 8.64-10.665 0-5.31-4.05-9.45-10.98-9.45-5.58 0-9.765 2.925-11.97 7.38l5.625 2.745c1.08-2.655 3.24-4.635 6.255-4.635 3.015 0 4.68 1.62 4.68 3.915 0 2.655-3.105 4.455-6.75 6.705-4.365 2.655-9.225 5.94-9.225 11.88V98zm24.153-3.33c0 2.295 1.575 3.96 3.915 3.96 2.295 0 3.915-1.665 3.915-3.96s-1.62-3.96-3.915-3.96-3.915 1.665-3.915 3.96zm22.494-2.295c-4.005 0-6.48-2.205-6.48-10.305v-1.35c0-7.74 2.61-9.99 6.525-9.99 3.825 0 6.435 2.025 6.435 9.99v1.35c0 8.01-2.475 10.305-6.48 10.305zm0 6.075c7.515 0 12.87-4.23 12.87-16.29v-1.53c0-11.25-5.535-15.93-12.87-15.93-7.2 0-12.825 4.545-12.825 15.93v1.53c0 11.925 5.22 16.29 12.825 16.29zm28.029-6.075c-4.005 0-6.48-2.205-6.48-10.305v-1.35c0-7.74 2.61-9.99 6.525-9.99 3.825 0 6.435 2.025 6.435 9.99v1.35c0 8.01-2.475 10.305-6.48 10.305zm0 6.075c7.515 0 12.87-4.23 12.87-16.29v-1.53c0-11.25-5.535-15.93-12.87-15.93-7.2 0-12.825 4.545-12.825 15.93v1.53c0 11.925 5.22 16.29 12.825 16.29zm20.288-25.695c0-1.62 1.305-2.88 2.835-2.88 1.575 0 2.835 1.26 2.835 2.88a2.823 2.823 0 01-2.835 2.835c-1.53 0-2.835-1.26-2.835-2.835zm13.905 17.64c0 4.5 3.6 8.1 8.055 8.1s8.055-3.6 8.055-8.1c0-4.41-3.6-8.055-8.055-8.055s-8.055 3.645-8.055 8.055zM224.499 98h7.92l28.215-32.85h-7.92L224.499 98zm24.84-7.605c0-1.575 1.26-2.835 2.79-2.835a2.823 2.823 0 012.835 2.835c0 1.62-1.26 2.88-2.835 2.88-1.53 0-2.79-1.26-2.79-2.88zm-24.39-17.64c0 4.41 3.6 8.01 8.055 8.01s8.055-3.6 8.055-8.01c0-4.5-3.6-8.055-8.055-8.055a8.018 8.018 0 00-8.055 8.055zm51.209 5.715l1.71-2.88-6.075-2.52 6.075-2.52-1.62-2.88-5.22 3.915.81-6.48h-3.33l.81 6.48-5.22-3.96-1.665 2.835 6.03 2.61-6.03 2.52 1.62 2.88 5.265-3.96-.81 6.525h3.33l-.81-6.525 5.13 3.96zM260.22 99h1.14l.58-1.56h3.3l.59 1.56h1.13l-2.82-7.3h-1.1l-2.82 7.3zm3.37-5.94l1.26 3.34h-2.52l1.26-3.34zm4.328 5.94h1.09v-2.14h1.73c1.58 0 2.68-1.14 2.68-2.58 0-1.45-1.1-2.58-2.66-2.58h-2.84V99zm2.75-6.3c1.02 0 1.66.68 1.66 1.58 0 .89-.64 1.57-1.66 1.57h-1.66V92.7h1.66zm5.676 6.3h1.08v-3.07l2.59-4.23h-1.2l-1.92 3.19-1.91-3.19h-1.22l2.58 4.22V99zM140.42 34.15c2.235 0 4.05-1.245 4.995-3.075l-1.47-.78c-.63 1.32-1.845 2.25-3.54 2.25-2.265 0-3.975-1.8-3.975-4.02 0-2.25 1.71-4.05 3.99-4.05 1.545 0 2.745.81 3.42 2.07l1.425-.885a5.615 5.615 0 00-4.845-2.76c-3.135 0-5.625 2.43-5.625 5.625 0 3.105 2.385 5.625 5.625 5.625zm10.334.015a4.2 4.2 0 004.215-4.215 4.2 4.2 0 00-4.215-4.215 4.2 4.2 0 00-4.215 4.215 4.2 4.2 0 004.215 4.215zm0-1.515c-1.47 0-2.595-1.2-2.595-2.7 0-1.5 1.125-2.7 2.595-2.7 1.455 0 2.61 1.2 2.61 2.7 0 1.5-1.14 2.7-2.61 2.7zm5.782 1.35h1.62v-4.47c0-1.455.945-2.37 2.175-2.37 1.35 0 2.07.885 2.07 2.265V34h1.635v-4.695c0-2.22-1.275-3.57-3.33-3.57-1.125 0-2.025.51-2.58 1.29V25.9h-1.59V34zm12.256.165c2.236.015 3.301-1.38 3.301-2.565 0-1.68-1.53-2.145-2.88-2.43-1.23-.27-1.965-.42-1.965-1.065 0-.57.48-1.035 1.47-1.035.87 0 1.455.36 1.86.96l1.395-.795c-.705-.96-1.74-1.515-3.255-1.515-1.906-.015-3.12 1.155-3.12 2.415 0 1.65 1.455 2.1 2.82 2.385 1.065.225 2.055.39 2.055 1.095 0 .615-.555 1.14-1.605 1.14-1.005 0-1.695-.435-2.19-1.2l-1.455.825c.69 1.17 1.86 1.785 3.569 1.785zm7.92 0c1.08 0 1.98-.495 2.535-1.275V34h1.59v-8.1h-1.62v4.47c0 1.44-.93 2.355-2.145 2.355-1.365 0-2.055-.885-2.055-2.25V25.9h-1.65v4.68c0 2.235 1.2 3.585 3.345 3.585zm6.001-.165h1.62v-4.53c0-1.53.735-2.31 1.935-2.31 1.23 0 1.785.75 1.785 1.98V34h1.635v-4.605c0-1.485.75-2.235 1.905-2.235 1.275 0 1.83.825 1.83 2.085V34h1.665v-4.845c0-2.085-1.035-3.42-3.255-3.42-1.2 0-2.13.57-2.64 1.425-.435-.885-1.29-1.425-2.58-1.425-1.035 0-1.8.42-2.295 1.095v-.93h-1.605V34zm18.214.165c1.755 0 2.925-.78 3.705-1.95l-1.335-.795c-.48.78-1.23 1.305-2.37 1.305-1.485 0-2.505-.87-2.745-2.175h6.81v-.675c0-2.4-1.77-4.14-4.155-4.14-2.385 0-4.215 1.86-4.215 4.245 0 2.355 1.725 4.185 4.305 4.185zm-.09-7.005c1.335 0 2.28.735 2.52 2.01h-5.115c.315-1.17 1.305-2.01 2.595-2.01zm5.709 6.84h1.62v-4.56c0-1.455.735-2.025 1.89-2.025.465 0 .795.09 1.02.24l.63-1.56c-.315-.195-.81-.315-1.365-.315-1.035 0-1.86.51-2.205 1.53V25.9h-1.59V34zm10.214 0h1.62v-8.28l3.54 4.815 3.66-4.92V34h1.605V23.05h-1.545L221.95 28l-3.57-4.95h-1.62V34zm16.187.165a4.2 4.2 0 004.215-4.215 4.2 4.2 0 00-4.215-4.215 4.2 4.2 0 00-4.215 4.215 4.2 4.2 0 004.215 4.215zm0-1.515c-1.47 0-2.595-1.2-2.595-2.7 0-1.5 1.125-2.7 2.595-2.7 1.455 0 2.61 1.2 2.61 2.7 0 1.5-1.14 2.7-2.61 2.7zm5.782 1.35h1.62v-4.47c0-1.455.945-2.37 2.175-2.37 1.35 0 2.07.885 2.07 2.265V34h1.635v-4.695c0-2.22-1.275-3.57-3.33-3.57-1.125 0-2.025.51-2.58 1.29V25.9h-1.59V34zm13.336.165c1.755 0 2.925-.78 3.705-1.95l-1.335-.795c-.48.78-1.23 1.305-2.37 1.305-1.485 0-2.505-.87-2.745-2.175h6.81v-.675c0-2.4-1.77-4.14-4.155-4.14-2.385 0-4.215 1.86-4.215 4.245 0 2.355 1.725 4.185 4.305 4.185zm-.09-7.005c1.335 0 2.28.735 2.52 2.01h-5.115c.315-1.17 1.305-2.01 2.595-2.01zm6.019 9.84c1.56 0 2.4-.675 3.21-2.595l3.615-8.505h-1.725l-2.325 5.805-2.43-5.805h-1.74l3.33 7.71-.15.345c-.525 1.155-.96 1.5-1.8 1.5-.465 0-.795-.18-1.08-.465l-.96 1.365c.525.39 1.29.645 2.055.645zM135.11 51h1.62v-8.28l3.54 4.815 3.66-4.92V51h1.605V40.05h-1.545L140.3 45l-3.57-4.95h-1.62V51zm14.821.165c1.35 0 2.535-.63 3.18-1.59V51h1.56v-5.01c0-1.965-1.32-3.255-3.645-3.255-1.74 0-2.985.78-3.78 1.845l1.44.84c.465-.795 1.26-1.305 2.325-1.305 1.44 0 2.1.75 2.1 1.83v.135h-2.4c-2.265 0-3.645 1.02-3.645 2.685 0 1.365.99 2.4 2.865 2.4zm.345-1.41c-1.08 0-1.56-.42-1.56-1.125 0-.795.6-1.26 2.1-1.26h2.295v.675c-.525 1.065-1.68 1.71-2.835 1.71zM156.492 51h1.62v-4.56c0-1.455.735-2.025 1.89-2.025.465 0 .795.09 1.02.24l.63-1.56c-.315-.195-.81-.315-1.365-.315-1.035 0-1.86.51-2.205 1.53V42.9h-1.59V51zm12.071 0h1.905l-3.315-4.695 3.135-3.405h-1.98l-3.78 4.14v-7.86h-1.605V51h1.605v-2.1l1.455-1.575 2.58 3.675zm6.187.165c1.755 0 2.925-.78 3.705-1.95l-1.335-.795c-.48.78-1.23 1.305-2.37 1.305-1.485 0-2.505-.87-2.745-2.175h6.81v-.675c0-2.4-1.77-4.14-4.155-4.14-2.385 0-4.215 1.86-4.215 4.245 0 2.355 1.725 4.185 4.305 4.185zm-.09-7.005c1.335 0 2.28.735 2.52 2.01h-5.115c.315-1.17 1.305-2.01 2.595-2.01zm4.802.195h1.605v4.005c0 1.995.93 2.79 2.535 2.79.675 0 1.245-.18 1.71-.495l-.765-1.35c-.255.225-.51.315-.825.315-.63 0-1.065-.39-1.065-1.275v-3.99h2.265V42.9h-2.265v-2.79l-1.59 1.035V42.9h-1.605v1.455zM189.423 51h1.71l.87-2.34h4.95l.885 2.34h1.695l-4.23-10.95h-1.65L189.423 51zm5.055-8.91l1.89 5.01h-3.78l1.89-5.01zm9.817 9.075c1.875 0 3.225-1.05 3.87-2.55l-1.47-.615c-.39.93-1.23 1.65-2.385 1.65-1.515 0-2.67-1.215-2.67-2.7 0-1.5 1.125-2.7 2.64-2.7 1.095 0 1.965.6 2.385 1.59l1.455-.63c-.615-1.455-2.055-2.475-3.84-2.475-2.37 0-4.23 1.83-4.23 4.215 0 2.34 1.83 4.215 4.245 4.215zm9.126 0c1.875 0 3.225-1.05 3.87-2.55l-1.47-.615c-.39.93-1.23 1.65-2.385 1.65-1.515 0-2.67-1.215-2.67-2.7 0-1.5 1.125-2.7 2.64-2.7 1.095 0 1.965.6 2.385 1.59l1.455-.63c-.615-1.455-2.055-2.475-3.84-2.475-2.37 0-4.23 1.83-4.23 4.215 0 2.34 1.83 4.215 4.245 4.215zm9.096 0a4.2 4.2 0 004.215-4.215 4.2 4.2 0 00-4.215-4.215 4.2 4.2 0 00-4.215 4.215 4.2 4.2 0 004.215 4.215zm0-1.515c-1.47 0-2.595-1.2-2.595-2.7 0-1.5 1.125-2.7 2.595-2.7 1.455 0 2.61 1.2 2.61 2.7 0 1.5-1.14 2.7-2.61 2.7zm9.083 1.515c1.08 0 1.98-.495 2.535-1.275V51h1.59v-8.1h-1.62v4.47c0 1.44-.93 2.355-2.145 2.355-1.365 0-2.055-.885-2.055-2.25V42.9h-1.65v4.68c0 2.235 1.2 3.585 3.345 3.585zm6.001-.165h1.62v-4.47c0-1.455.945-2.37 2.175-2.37 1.35 0 2.07.885 2.07 2.265V51h1.635v-4.695c0-2.22-1.275-3.57-3.33-3.57-1.125 0-2.025.51-2.58 1.29V42.9h-1.59V51zm8.467-6.645h1.605v4.005c0 1.995.93 2.79 2.535 2.79.675 0 1.245-.18 1.71-.495l-.765-1.35c-.255.225-.51.315-.825.315-.63 0-1.065-.39-1.065-1.275v-3.99h2.265V42.9h-2.265v-2.79l-1.59 1.035V42.9h-1.605v1.455z" fill="#193526"/><path d="M11.986 121.87l-1.352-1.456v-7.358l4.888-7.514 1.274-1.612v-.13h-4.68v.13l1.768 1.82-3.848 6.188-4.004-6.552 1.352-1.456v-.13H.364v.13l1.196 1.456 5.33 8.164v6.864l-1.378 1.456v.13h6.474v-.13zm9.312.52c4.004 0 6.76-2.964 6.76-7.176 0-4.108-2.626-6.864-6.5-6.864-4.004 0-6.734 2.964-6.734 7.176 0 4.108 2.6 6.864 6.474 6.864zm.442-.988c-2.054 0-3.406-2.626-3.406-6.734 0-3.484 1.014-5.356 2.782-5.356 2.054 0 3.432 2.626 3.432 6.734 0 3.484-1.04 5.356-2.808 5.356zm12.847.988c1.612 0 3.12-.78 4.55-2.366h.156l.312 2.366 4.342-1.066v-.13l-1.326-1.222V108.35h-.26l-4.576 1.248v.13l1.43 1.3v8.06c-.988.832-1.898 1.248-2.808 1.248-1.326 0-2.106-.832-2.106-2.21v-9.802h-.26l-4.576 1.248v.13l1.43 1.3v7.878c0 2.054 1.482 3.51 3.692 3.51zM6.786 93.39c4.394 0 7.436-2.392 7.436-5.824 0-5.824-8.866-4.888-8.866-9.308 0-1.69 1.222-2.86 3.094-2.86.26 0 .572.026.858.13l3.874 2.938h.13v-3.068c-.78-.572-2.964-.988-4.862-.988-3.77 0-6.448 2.158-6.448 5.226 0 5.824 8.866 4.862 8.866 9.308 0 2.08-1.638 3.432-3.562 3.432-.468 0-.988-.104-1.196-.182l-4.524-3.406h-.13v3.406c1.066.65 3.276 1.196 5.33 1.196zm14.243 0c1.612 0 3.12-.78 4.55-2.366h.156l.312 2.366 4.342-1.066v-.13l-1.326-1.222V79.35h-.26l-4.576 1.248v.13l1.43 1.3v8.06c-.988.832-1.898 1.248-2.808 1.248-1.326 0-2.106-.832-2.106-2.21v-9.802h-.26l-4.576 1.248v.13l1.43 1.3v7.878c0 2.054 1.482 3.51 3.692 3.51zm14.307-16.744c1.17 0 1.95-.702 1.95-1.846 0-1.144-.78-1.82-1.95-1.82-1.196 0-1.976.676-1.976 1.82 0 1.144.78 1.846 1.976 1.846zM38.248 93v-.104L37.026 91.7V79.35h-.26l-4.576 1.248v.104l1.43 1.3V91.7l-1.196 1.196V93h5.824zm6.49.39c1.795 0 3.38-.988 4.135-2.6l-.104-.078c-.598.52-1.326.806-2.028.806-1.092 0-1.846-.624-1.846-2.002V81.04h3.38l.182-1.3h-3.562v-2.652h-.442l-4.758 3.822v.13h1.794v10.036c.364 1.612 1.742 2.314 3.25 2.314zM6.448 65h3.614V49.4h5.226v-3.38H1.17v3.38h5.278V65zm11.282 0h3.562v-7.748c0-2.184 1.3-3.432 2.99-3.432 1.898 0 2.86 1.248 2.86 3.25V65h3.692v-8.476c0-3.666-2.132-5.85-5.46-5.85-1.716 0-3.146.754-4.082 2.002v-8.164H17.73V65zm20.213.286c2.21 0 4.134-.988 5.148-2.444V65h3.457v-8.632c0-3.536-2.366-5.694-6.5-5.694-3.145 0-5.2 1.326-6.63 3.198l3.303 1.638c.65-1.17 1.716-1.846 3.302-1.846 2.027 0 3.041 1.04 3.041 2.548v.182h-3.691c-3.9 0-6.319 1.794-6.319 4.706 0 2.47 1.82 4.186 4.889 4.186zm1.04-2.964c-1.482 0-2.184-.52-2.184-1.534 0-1.092.858-1.768 2.99-1.768h3.301v.754c-.702 1.508-2.392 2.548-4.108 2.548zm9.07-8.19h2.6v5.902c0 3.822 1.717 5.226 4.655 5.226 1.3 0 2.444-.39 3.354-1.066l-1.638-2.808c-.416.364-.806.52-1.3.52-.91 0-1.534-.52-1.534-2.002v-5.772h3.692V50.96H54.19v-5.122l-3.536 2.08v3.042h-2.6v3.172zM8.58 36.26c4.238 0 6.968-2.704 6.968-5.954 0-4.108-3.354-5.044-6.266-5.668-2.366-.546-4.264-.832-4.264-2.366 0-1.248.884-2.262 2.938-2.262 2.184 0 3.458.91 4.446 2.366l2.99-2.34c-1.924-2.132-4.03-3.302-7.384-3.302-3.952 0-6.734 2.496-6.734 5.616 0 3.848 3.172 4.758 6.006 5.356 2.626.598 4.446.962 4.446 2.73 0 1.378-1.066 2.366-3.12 2.366-2.262 0-3.952-1.014-5.2-2.99L.208 32.36c1.794 2.288 4.29 3.9 8.372 3.9zm13.798.026c2.21 0 4.134-.988 5.148-2.444V36h3.458v-8.632c0-3.536-2.366-5.694-6.5-5.694-3.146 0-5.2 1.326-6.63 3.198l3.302 1.638c.65-1.17 1.716-1.846 3.302-1.846 2.028 0 3.042 1.04 3.042 2.548v.182h-3.692c-3.9 0-6.318 1.794-6.318 4.706 0 2.47 1.82 4.186 4.888 4.186zm1.04-2.964c-1.482 0-2.184-.52-2.184-1.534 0-1.092.858-1.768 2.99-1.768h3.302v.754c-.702 1.508-2.392 2.548-4.108 2.548zM37.154 36h3.562l5.512-14.04H42.51l-3.484 9.464-3.458-9.464h-3.796L37.154 36zm10.791 0h3.666V21.96h-3.666V36zm-.468-17.992c0 1.326.936 2.288 2.288 2.288 1.378 0 2.314-.962 2.314-2.288 0-1.352-.936-2.34-2.314-2.34-1.326 0-2.288.988-2.288 2.34zM54.47 36h3.614v-7.748c0-2.184 1.3-3.432 2.99-3.432 1.898 0 2.86 1.248 2.86 3.25V36H67.6v-8.476c0-3.666-2.106-5.85-5.434-5.85-1.742 0-3.198.78-4.108 2.054V21.96H54.47V36zm22.213.208c1.82 0 3.432-.832 4.42-2.21v1.066c0 2.21-1.612 3.744-3.874 3.744-1.846 0-2.886-.676-3.822-1.898l-2.964 2.314c1.586 1.846 3.692 2.782 6.89 2.782 4.316 0 7.358-2.964 7.358-7.046v-13h-3.588v1.846c-.936-1.3-2.496-2.132-4.368-2.132-3.588 0-6.812 2.834-6.812 7.28s3.302 7.254 6.76 7.254zm.702-3.328c-2.158 0-3.9-1.742-3.9-3.952 0-2.236 1.742-3.952 3.9-3.952 2.21 0 3.9 1.742 3.9 3.952s-1.69 3.952-3.9 3.952zm15.709 3.406c4.082.026 6.032-2.444 6.032-4.628 0-3.016-2.756-3.822-5.096-4.29-2.054-.442-3.198-.676-3.198-1.56 0-.78.676-1.352 2.08-1.352 1.3 0 2.184.546 2.756 1.482l3.276-1.326c-1.3-1.872-3.068-2.99-6.032-2.99-3.458-.026-5.746 2.028-5.746 4.394 0 2.964 2.626 3.692 4.992 4.186 1.794.364 3.302.598 3.302 1.612 0 .832-.78 1.534-2.236 1.534-1.482 0-2.6-.65-3.224-1.898l-3.458 1.352c1.118 2.236 3.224 3.484 6.552 3.484z" fill="#fff"/></svg>