<svg width="100" height="28" viewBox="0 0 100 28" fill="none" xmlns="http://www.w3.org/2000/svg"><path d="M8.58 21.26c4.238 0 6.968-2.704 6.968-5.954 0-4.108-3.354-5.044-6.266-5.668-2.366-.546-4.264-.832-4.264-2.366 0-1.248.884-2.262 2.938-2.262 2.184 0 3.458.91 4.446 2.366l2.99-2.34c-1.924-2.132-4.03-3.302-7.384-3.302-3.952 0-6.734 2.496-6.734 5.616 0 3.848 3.172 4.758 6.006 5.356 2.626.598 4.446.962 4.446 2.73 0 1.378-1.066 2.366-3.12 2.366-2.262 0-3.952-1.014-5.2-2.99L.208 17.36c1.794 2.288 4.29 3.9 8.372 3.9zm13.798.026c2.21 0 4.134-.988 5.148-2.444V21h3.458v-8.632c0-3.536-2.366-5.694-6.5-5.694-3.146 0-5.2 1.326-6.63 3.198l3.302 1.638c.65-1.17 1.716-1.846 3.302-1.846 2.028 0 3.042 1.04 3.042 2.548v.182h-3.692c-3.9 0-6.318 1.794-6.318 4.706 0 2.47 1.82 4.186 4.888 4.186zm1.04-2.964c-1.482 0-2.184-.52-2.184-1.534 0-1.092.858-1.768 2.99-1.768h3.302v.754c-.702 1.508-2.392 2.548-4.108 2.548zM37.154 21h3.562l5.512-14.04H42.51l-3.484 9.464-3.458-9.464h-3.796L37.154 21zm10.791 0h3.666V6.96h-3.666V21zm-.468-17.992c0 1.326.936 2.288 2.288 2.288 1.378 0 2.314-.962 2.314-2.288 0-1.352-.936-2.34-2.314-2.34-1.326 0-2.288.988-2.288 2.34zM54.47 21h3.614v-7.748c0-2.184 1.3-3.432 2.99-3.432 1.898 0 2.86 1.248 2.86 3.25V21H67.6v-8.476c0-3.666-2.106-5.85-5.434-5.85-1.742 0-3.198.78-4.108 2.054V6.96H54.47V21zm22.213.208c1.82 0 3.432-.832 4.42-2.21v1.066c0 2.21-1.612 3.744-3.874 3.744-1.846 0-2.886-.676-3.822-1.898l-2.964 2.314c1.586 1.846 3.692 2.782 6.89 2.782 4.316 0 7.358-2.964 7.358-7.046v-13h-3.588v1.846c-.936-1.3-2.496-2.132-4.368-2.132-3.588 0-6.812 2.834-6.812 7.28s3.302 7.254 6.76 7.254zm.702-3.328c-2.158 0-3.9-1.742-3.9-3.952 0-2.236 1.742-3.952 3.9-3.952 2.21 0 3.9 1.742 3.9 3.952s-1.69 3.952-3.9 3.952zm15.709 3.406c4.082.026 6.032-2.444 6.032-4.628 0-3.016-2.756-3.822-5.096-4.29-2.054-.442-3.198-.676-3.198-1.56 0-.78.676-1.352 2.08-1.352 1.3 0 2.184.546 2.756 1.482l3.276-1.326c-1.3-1.872-3.068-2.99-6.032-2.99-3.458-.026-5.746 2.028-5.746 4.394 0 2.964 2.626 3.692 4.992 4.186 1.794.364 3.302.598 3.302 1.612 0 .832-.78 1.534-2.236 1.534-1.482 0-2.6-.65-3.224-1.898l-3.458 1.352c1.118 2.236 3.224 3.484 6.552 3.484z" fill="#fff"/></svg>