<svg width="104" height="88" viewBox="0 0 104 88" fill="none" xmlns="http://www.w3.org/2000/svg"><path d="M8.56 15.2c2.98 0 5.4-1.66 6.66-4.1l-1.96-1.04c-.84 1.76-2.46 3-4.72 3-3.02 0-5.3-2.4-5.3-5.36 0-3 2.28-5.4 5.32-5.4 2.06 0 3.66 1.08 4.56 2.76l1.9-1.18C13.72 1.68 11.32.2 8.56.2c-4.18 0-7.5 3.24-7.5 7.5 0 4.14 3.18 7.5 7.5 7.5zm13.779.02a5.6 5.6 0 005.62-5.62 5.6 5.6 0 00-5.62-5.62 5.6 5.6 0 00-5.62 5.62 5.6 5.6 0 005.62 5.62zm0-2.02c-1.96 0-3.46-1.6-3.46-3.6s1.5-3.6 3.46-3.6c1.94 0 3.48 1.6 3.48 3.6s-1.52 3.6-3.48 3.6zm7.71 1.8h2.16V9.04c0-1.94 1.26-3.16 2.9-3.16 1.8 0 2.76 1.18 2.76 3.02V15h2.18V8.74c0-2.96-1.7-4.76-4.44-4.76-1.5 0-2.7.68-3.44 1.72V4.2h-2.12V15zm16.341.22c2.98.02 4.4-1.84 4.4-3.42 0-2.24-2.04-2.86-3.84-3.24-1.64-.36-2.62-.56-2.62-1.42 0-.76.64-1.38 1.96-1.38 1.16 0 1.94.48 2.48 1.28l1.86-1.06c-.94-1.28-2.32-2.02-4.34-2.02-2.54-.02-4.16 1.54-4.16 3.22 0 2.2 1.94 2.8 3.76 3.18 1.42.3 2.74.52 2.74 1.46 0 .82-.74 1.52-2.14 1.52-1.34 0-2.26-.58-2.92-1.6l-1.94 1.1c.92 1.56 2.48 2.38 4.76 2.38zm10.56 0c1.44 0 2.64-.66 3.38-1.7V15h2.12V4.2h-2.16v5.96c0 1.92-1.24 3.14-2.86 3.14-1.82 0-2.74-1.18-2.74-3V4.2h-2.2v6.24c0 2.98 1.6 4.78 4.46 4.78zm8-.22h2.16V8.96c0-2.04.98-3.08 2.58-3.08 1.64 0 2.38 1 2.38 2.64V15h2.18V8.86c0-1.98 1-2.98 2.54-2.98 1.7 0 2.44 1.1 2.44 2.78V15h2.22V8.54c0-2.78-1.38-4.56-4.34-4.56-1.6 0-2.84.76-3.52 1.9-.58-1.18-1.72-1.9-3.44-1.9-1.38 0-2.4.56-3.06 1.46V4.2h-2.14V15zm24.286.22c2.34 0 3.9-1.04 4.94-2.6l-1.78-1.06c-.64 1.04-1.64 1.74-3.16 1.74-1.98 0-3.34-1.16-3.66-2.9h9.08v-.9c0-3.2-2.36-5.52-5.54-5.52s-5.62 2.48-5.62 5.66c0 3.14 2.3 5.58 5.74 5.58zm-.12-9.34c1.78 0 3.04.98 3.36 2.68h-6.82c.42-1.56 1.74-2.68 3.46-2.68zM96.728 15h2.16V8.92c0-1.94.98-2.7 2.52-2.7.62 0 1.06.12 1.36.32l.84-2.08c-.42-.26-1.08-.42-1.82-.42-1.38 0-2.48.68-2.94 2.04V4.2h-2.12V15zM1.48 39h2.16V27.96l4.72 6.42 4.88-6.56V39h2.14V24.4h-2.06L8.4 31l-4.76-6.6H1.48V39zm21.582.22a5.6 5.6 0 005.62-5.62 5.6 5.6 0 00-5.62-5.62 5.6 5.6 0 00-5.62 5.62 5.6 5.6 0 005.62 5.62zm0-2.02c-1.96 0-3.46-1.6-3.46-3.6s1.5-3.6 3.46-3.6c1.94 0 3.48 1.6 3.48 3.6s-1.52 3.6-3.48 3.6zm7.71 1.8h2.16v-5.96c0-1.94 1.26-3.16 2.9-3.16 1.8 0 2.76 1.18 2.76 3.02V39h2.18v-6.26c0-2.96-1.7-4.76-4.44-4.76-1.5 0-2.7.68-3.44 1.72v-1.5h-2.12V39zm17.78.22c2.34 0 3.9-1.04 4.94-2.6l-1.78-1.06c-.64 1.04-1.64 1.74-3.16 1.74-1.98 0-3.34-1.16-3.66-2.9h9.08v-.9c0-3.2-2.36-5.52-5.54-5.52s-5.62 2.48-5.62 5.66c0 3.14 2.3 5.58 5.74 5.58zm-.12-9.34c1.78 0 3.04.98 3.36 2.68h-6.82c.42-1.56 1.74-2.68 3.46-2.68zM56.46 43c2.08 0 3.2-.9 4.28-3.46l4.82-11.34h-2.3l-3.1 7.74-3.24-7.74h-2.32l4.44 10.28-.2.46c-.7 1.54-1.28 2-2.4 2-.62 0-1.06-.24-1.44-.62l-1.28 1.82c.7.52 1.72.86 2.74.86zM1.48 63h2.16V51.96l4.72 6.42 4.88-6.56V63h2.14V48.4h-2.06L8.4 55l-4.76-6.6H1.48V63zm19.761.22c1.8 0 3.38-.84 4.24-2.12V63h2.08v-6.68c0-2.62-1.76-4.34-4.86-4.34-2.32 0-3.98 1.04-5.04 2.46l1.92 1.12c.62-1.06 1.68-1.74 3.1-1.74 1.92 0 2.8 1 2.8 2.44v.18h-3.2c-3.02 0-4.86 1.36-4.86 3.58 0 1.82 1.32 3.2 3.82 3.2zm.46-1.88c-1.44 0-2.08-.56-2.08-1.5 0-1.06.8-1.68 2.8-1.68h3.06v.9c-.7 1.42-2.24 2.28-3.78 2.28zM29.99 63h2.16v-6.08c0-1.94.98-2.7 2.52-2.7.62 0 1.06.12 1.36.32l.84-2.08c-.42-.26-1.08-.42-1.82-.42-1.38 0-2.48.68-2.94 2.04V52.2h-2.12V63zm16.095 0h2.54l-4.42-6.26 4.18-4.54h-2.64l-5.04 5.52V47.24h-2.14V63h2.14v-2.8l1.94-2.1 3.44 4.9zm8.25.22c2.34 0 3.9-1.04 4.94-2.6l-1.78-1.06c-.64 1.04-1.64 1.74-3.16 1.74-1.98 0-3.34-1.16-3.66-2.9h9.08v-.9c0-3.2-2.36-5.52-5.54-5.52s-5.62 2.48-5.62 5.66c0 3.14 2.3 5.58 5.74 5.58zm-.12-9.34c1.78 0 3.04.98 3.36 2.68h-6.82c.42-1.56 1.74-2.68 3.46-2.68zm6.402.26h2.14v5.34c0 2.66 1.24 3.72 3.38 3.72.9 0 1.66-.24 2.28-.66l-1.02-1.8c-.34.3-.68.42-1.1.42-.84 0-1.42-.52-1.42-1.7v-5.32h3.02V52.2h-3.02v-3.72l-2.12 1.38v2.34h-2.14v1.94zM.44 87h2.28l1.16-3.12h6.6L11.66 87h2.26L8.28 72.4h-2.2L.44 87zm6.74-11.88L9.7 81.8H4.66l2.52-6.68zm13.09 12.1c2.5 0 4.3-1.4 5.16-3.4L23.47 83c-.52 1.24-1.64 2.2-3.18 2.2-2.02 0-3.56-1.62-3.56-3.6 0-2 1.5-3.6 3.52-3.6 1.46 0 2.62.8 3.18 2.12l1.94-.84c-.82-1.94-2.74-3.3-5.12-3.3-3.16 0-5.64 2.44-5.64 5.62 0 3.12 2.44 5.62 5.66 5.62zm12.168 0c2.5 0 4.3-1.4 5.16-3.4l-1.96-.82c-.52 1.24-1.64 2.2-3.18 2.2-2.02 0-3.56-1.62-3.56-3.6 0-2 1.5-3.6 3.52-3.6 1.46 0 2.62.8 3.18 2.12l1.94-.84c-.82-1.94-2.74-3.3-5.12-3.3-3.16 0-5.64 2.44-5.64 5.62 0 3.12 2.44 5.62 5.66 5.62zm12.127 0a5.6 5.6 0 005.62-5.62 5.6 5.6 0 00-5.62-5.62 5.6 5.6 0 00-5.62 5.62 5.6 5.6 0 005.62 5.62zm0-2.02c-1.96 0-3.46-1.6-3.46-3.6s1.5-3.6 3.46-3.6c1.94 0 3.48 1.6 3.48 3.6s-1.52 3.6-3.48 3.6zm12.111 2.02c1.44 0 2.64-.66 3.38-1.7V87h2.12V76.2h-2.16v5.96c0 1.92-1.24 3.14-2.86 3.14-1.82 0-2.74-1.18-2.74-3v-6.1h-2.2v6.24c0 2.98 1.6 4.78 4.46 4.78zm8.001-.22h2.16v-5.96c0-1.94 1.26-3.16 2.9-3.16 1.8 0 2.76 1.18 2.76 3.02V87h2.18v-6.26c0-2.96-1.7-4.76-4.44-4.76-1.5 0-2.7.68-3.44 1.72v-1.5h-2.12V87zm11.29-8.86h2.14v5.34c0 2.66 1.24 3.72 3.38 3.72.9 0 1.66-.24 2.28-.66l-1.02-1.8c-.34.3-.68.42-1.1.42-.84 0-1.42-.52-1.42-1.7v-5.32h3.02V76.2h-3.02v-3.72l-2.12 1.38v2.34h-2.14v1.94z" fill="#193526"/></svg>