<svg width="56" height="8" viewBox="0 0 56 8" fill="none" xmlns="http://www.w3.org/2000/svg"><path d="M.887 7h.656V2.256l2.072 2.816 2.144-2.88V7h.648V1.16h-.632L3.623 4.032 1.55 1.16H.887V7zm8.813.088c.944 0 1.568-.408 2.008-1.096l-.56-.328c-.296.528-.76.832-1.448.832-.912 0-1.544-.584-1.64-1.408h3.816v-.296c0-1.28-.936-2.2-2.2-2.2-1.296 0-2.256.992-2.256 2.264 0 1.264.896 2.232 2.28 2.232zm-.024-3.912c.84 0 1.424.52 1.528 1.336H8.076c.144-.768.776-1.336 1.6-1.336zM12.86 7h.656V4.568c0-.872.52-1.392 1.264-1.392.768 0 1.192.48 1.192 1.224V7h.656V4.512c0-.848.536-1.336 1.256-1.336.792 0 1.232.528 1.232 1.288V7h.664V4.456c0-1.128-.632-1.864-1.832-1.864-.72 0-1.28.36-1.552.896-.232-.544-.736-.896-1.504-.896-.632 0-1.112.28-1.384.72V2.68h-.648V7zm10.327.088c1.224 0 2.2-.928 2.2-2.248 0-1.32-.992-2.248-2.192-2.248-.64 0-1.28.32-1.624.848V.688h-.648V7h.64v-.768c.344.544.992.856 1.624.856zm-.056-.616c-.92 0-1.616-.728-1.616-1.64 0-.896.696-1.64 1.616-1.64.896 0 1.584.72 1.584 1.64 0 .944-.688 1.64-1.584 1.64zm5.349.616c.944 0 1.568-.408 2.008-1.096l-.56-.328c-.296.528-.76.832-1.448.832-.912 0-1.544-.584-1.64-1.408h3.816v-.296c0-1.28-.936-2.2-2.2-2.2-1.296 0-2.256.992-2.256 2.264 0 1.264.896 2.232 2.28 2.232zm-.024-3.912c.84 0 1.424.52 1.528 1.336h-3.128c.144-.768.776-1.336 1.6-1.336zM31.642 7h.648V4.632c0-.952.416-1.368 1.136-1.368.232 0 .408.056.528.136l.272-.624c-.168-.104-.424-.16-.72-.16-.616 0-1.048.304-1.232.88V2.68h-.632V7zm5.448 0h.672V4.472h2.992v-.64h-2.992v-2.04h2.992V1.16H37.09V7zm4.773 0H43.6c1.72 0 3.016-1.256 3.016-2.92 0-1.656-1.216-2.92-3.04-2.92h-1.712V7zm1.648-5.232c1.496 0 2.432.992 2.432 2.312 0 1.304-1 2.296-2.408 2.296h-1V1.768h.976zM47.857 7h.664V1.16h-.664V7zm4.9.08a2.958 2.958 0 002.657-1.608l-.592-.312a2.249 2.249 0 01-2.072 1.272c-1.312 0-2.32-1.056-2.32-2.352 0-1.304 1.008-2.368 2.328-2.368.88 0 1.6.48 2 1.192l.576-.352a2.991 2.991 0 00-2.576-1.472c-1.664 0-3 1.32-3 3 0 1.656 1.304 3 3 3z" fill="#fff"/></svg>