<svg width="136" height="56" viewBox="0 0 136 56" fill="none" xmlns="http://www.w3.org/2000/svg"><path d="M1.96 42h19.76v-5.36H7.84c.16-2.68 3.12-4.4 6.32-6.36 3.72-2.24 7.68-4.76 7.68-9.48 0-4.72-3.6-8.4-9.76-8.4-4.96 0-8.68 2.6-10.64 6.56l5 2.44c.96-2.36 2.88-4.12 5.56-4.12 2.68 0 4.16 1.44 4.16 3.48 0 2.36-2.76 3.96-6 5.96-3.88 2.36-8.2 5.28-8.2 10.56V42zm21.87-2.96c0 2.04 1.4 3.52 3.48 3.52 2.04 0 3.48-1.48 3.48-3.52s-1.44-3.52-3.48-3.52-3.48 1.48-3.48 3.52zM44.223 37c-3.56 0-5.76-1.96-5.76-9.16v-1.2c0-6.88 2.32-8.88 5.8-8.88 3.4 0 5.72 1.8 5.72 8.88v1.2c0 7.12-2.2 9.16-5.76 9.16zm0 5.4c6.68 0 11.44-3.76 11.44-14.48v-1.36c0-10-4.92-14.16-11.44-14.16-6.4 0-11.4 4.04-11.4 14.16v1.36c0 10.6 4.64 14.48 11.4 14.48zM69.538 37c-3.56 0-5.76-1.96-5.76-9.16v-1.2c0-6.88 2.32-8.88 5.8-8.88 3.4 0 5.72 1.8 5.72 8.88v1.2c0 7.12-2.2 9.16-5.76 9.16zm0 5.4c6.68 0 11.44-3.76 11.44-14.48v-1.36c0-10-4.92-14.16-11.44-14.16-6.4 0-11.4 4.04-11.4 14.16v1.36c0 10.6 4.64 14.48 11.4 14.48zm18.434-22.84c0-1.44 1.16-2.56 2.52-2.56 1.4 0 2.52 1.12 2.52 2.56 0 1.4-1.12 2.52-2.52 2.52-1.36 0-2.52-1.12-2.52-2.52zm12.36 15.68c0 4 3.2 7.2 7.16 7.2 3.961 0 7.16-3.2 7.16-7.2 0-3.92-3.199-7.16-7.16-7.16-3.96 0-7.16 3.24-7.16 7.16zM82.932 42h7.04l25.08-29.2h-7.04L82.932 42zm22.08-6.76c0-1.4 1.12-2.52 2.48-2.52 1.4 0 2.52 1.12 2.52 2.52 0 1.44-1.12 2.56-2.52 2.56-1.36 0-2.48-1.12-2.48-2.56zm-21.68-15.68c0 3.92 3.2 7.12 7.16 7.12s7.16-3.2 7.16-7.12c0-4-3.2-7.16-7.16-7.16s-7.16 3.16-7.16 7.16zm45.92 5.08l1.52-2.56-5.4-2.24 5.4-2.24-1.44-2.56-4.64 3.48.72-5.76h-2.96l.72 5.76-4.64-3.52-1.48 2.52 5.36 2.32-5.36 2.24 1.44 2.56 4.68-3.52-.72 5.8h2.96l-.72-5.8 4.56 3.52zM115.22 43h1.14l.58-1.56h3.3l.59 1.56h1.13l-2.82-7.3h-1.1l-2.82 7.3zm3.37-5.94l1.26 3.34h-2.52l1.26-3.34zm4.328 5.94h1.09v-2.14h1.73c1.58 0 2.68-1.14 2.68-2.58 0-1.45-1.1-2.58-2.66-2.58h-2.84V43zm2.75-6.3c1.02 0 1.66.68 1.66 1.58 0 .89-.64 1.57-1.66 1.57h-1.66V36.7h1.66zm5.676 6.3h1.08v-3.07l2.59-4.23h-1.2l-1.92 3.19-1.91-3.19h-1.22l2.58 4.22V43z" fill="#193526"/></svg>