<svg width="116" height="30" viewBox="0 0 116 30" fill="none" xmlns="http://www.w3.org/2000/svg"><g filter="url(#filter0_d_32_588)"><rect x="4" y="3" width="108" height="21.154" rx="10.577" fill="#ED4536"/><path d="M30.209 18h4.79v-1.37h-3.37V10.7h-1.42V18zm8.224.11c1.19 0 1.95-.49 2.49-1.25l-1.13-.66c-.27.44-.7.72-1.34.72-.8 0-1.37-.44-1.55-1.14h4.29v-.52c0-1.6-1.17-2.77-2.79-2.77-1.61 0-2.83 1.25-2.83 2.82 0 1.57 1.12 2.8 2.86 2.8zm-.03-4.45c.72 0 1.24.37 1.42 1.04h-2.88c.22-.63.76-1.04 1.46-1.04zm5.29 4.45c.85 0 1.59-.38 1.98-.94V18h1.33v-3.32c0-1.36-.91-2.19-2.5-2.19-1.21 0-2 .51-2.55 1.23l1.27.63c.25-.45.66-.71 1.27-.71.78 0 1.17.4 1.17.98v.07h-1.42c-1.5 0-2.43.69-2.43 1.81 0 .95.7 1.61 1.88 1.61zm.4-1.14c-.57 0-.84-.2-.84-.59 0-.42.33-.68 1.15-.68h1.27v.29c-.27.58-.92.98-1.58.98zM48.067 18h1.37v-2.85c0-.91.46-1.27 1.17-1.27.31 0 .57.08.72.19l.5-1.36c-.23-.12-.55-.21-.91-.21-.69 0-1.23.29-1.49.93v-.83h-1.36V18zm4.473 0h1.39v-2.98c0-.84.5-1.32 1.15-1.32.73 0 1.1.48 1.1 1.25V18h1.41v-3.26c0-1.41-.81-2.25-2.09-2.25-.67 0-1.23.3-1.58.79v-.68h-1.38V18zm8.557 0h1.4v-5.07l2.13 2.89 2.19-2.94V18h1.38v-7.3h-1.31l-2.25 3.01-2.17-3.01h-1.37V18zm10.871.11c1.63 0 2.86-1.26 2.86-2.81 0-1.56-1.25-2.81-2.86-2.81-1.62 0-2.85 1.25-2.85 2.81 0 1.55 1.23 2.81 2.85 2.81zm.01-1.31c-.83 0-1.48-.67-1.48-1.51s.65-1.51 1.48-1.51c.82 0 1.48.67 1.48 1.51s-.66 1.51-1.48 1.51zm3.756 1.2h1.37v-2.85c0-.91.46-1.27 1.17-1.27.31 0 .57.08.72.19l.5-1.36c-.23-.12-.55-.21-.91-.21-.69 0-1.23.29-1.49.93v-.83h-1.36V18zm6.713.11c1.19 0 1.95-.49 2.49-1.25l-1.13-.66c-.27.44-.7.72-1.34.72-.8 0-1.37-.44-1.55-1.14h4.29v-.52c0-1.6-1.17-2.77-2.79-2.77-1.61 0-2.83 1.25-2.83 2.82 0 1.57 1.12 2.8 2.86 2.8zm-.03-4.45c.72 0 1.24.37 1.42 1.04h-2.88c.22-.63.76-1.04 1.46-1.04z" fill="#fff"/></g><defs><filter id="filter0_d_32_588" x="0" y="0" width="116" height="30" filterUnits="userSpaceOnUse" color-interpolation-filters="sRGB"><feFlood flood-opacity="0" result="BackgroundImageFix"/><feColorMatrix in="SourceAlpha" values="0 0 0 0 0 0 0 0 0 0 0 0 0 0 0 0 0 0 127 0" result="hardAlpha"/><feOffset dy="1"/><feGaussianBlur stdDeviation="2"/><feComposite in2="hardAlpha" operator="out"/><feColorMatrix values="0 0 0 0 0 0 0 0 0 0 0 0 0 0 0 0 0 0 0.25 0"/><feBlend in2="BackgroundImageFix" result="effect1_dropShadow_32_588"/><feBlend in="SourceGraphic" in2="effect1_dropShadow_32_588" result="shape"/></filter></defs></svg>