<svg width="160" height="446" viewBox="0 0 160 446" fill="none" xmlns="http://www.w3.org/2000/svg"><circle cx="114.5" cy="331.5" r="114.5" fill="#D9D9D9"/><path fill="#D9D9D9" d="M0 135h219v208H0zM113 343h106v103H113z"/><path d="M18.96 307h19.76v-5.36H24.84c.16-2.68 3.12-4.4 6.32-6.36 3.72-2.24 7.68-4.76 7.68-9.48 0-4.72-3.6-8.4-9.76-8.4-4.96 0-8.68 2.6-10.64 6.56l5 2.44c.96-2.36 2.88-4.12 5.56-4.12 2.68 0 4.16 1.44 4.16 3.48 0 2.36-2.76 3.96-6 5.96-3.88 2.36-8.2 5.28-8.2 10.56V307zm21.87-2.96c0 2.04 1.4 3.52 3.48 3.52 2.04 0 3.48-1.48 3.48-3.52s-1.44-3.52-3.48-3.52-3.48 1.48-3.48 3.52zM61.223 302c-3.56 0-5.76-1.96-5.76-9.16v-1.2c0-6.88 2.32-8.88 5.8-8.88 3.4 0 5.72 1.8 5.72 8.88v1.2c0 7.12-2.2 9.16-5.76 9.16zm0 5.4c6.68 0 11.44-3.76 11.44-14.48v-1.36c0-10-4.92-14.16-11.44-14.16-6.4 0-11.4 4.04-11.4 14.16v1.36c0 10.6 4.64 14.48 11.4 14.48zm25.314-5.4c-3.56 0-5.76-1.96-5.76-9.16v-1.2c0-6.88 2.32-8.88 5.8-8.88 3.4 0 5.72 1.8 5.72 8.88v1.2c0 7.12-2.2 9.16-5.76 9.16zm0 5.4c6.68 0 11.44-3.76 11.44-14.48v-1.36c0-10-4.92-14.16-11.44-14.16-6.4 0-11.4 4.04-11.4 14.16v1.36c0 10.6 4.64 14.48 11.4 14.48zm18.434-22.84c0-1.44 1.16-2.56 2.52-2.56 1.4 0 2.52 1.12 2.52 2.56 0 1.4-1.12 2.52-2.52 2.52-1.36 0-2.52-1.12-2.52-2.52zm12.36 15.68c0 4 3.2 7.2 7.16 7.2 3.961 0 7.16-3.2 7.16-7.2 0-3.92-3.199-7.16-7.16-7.16-3.96 0-7.16 3.24-7.16 7.16zm-17.4 6.76h7.04l25.08-29.2h-7.04L99.932 307zm22.08-6.76c0-1.4 1.12-2.52 2.48-2.52 1.4 0 2.52 1.12 2.52 2.52 0 1.44-1.12 2.56-2.52 2.56-1.36 0-2.48-1.12-2.48-2.56zm-21.68-15.68c0 3.92 3.2 7.12 7.16 7.12s7.16-3.2 7.16-7.12c0-4-3.2-7.16-7.16-7.16s-7.16 3.16-7.16 7.16zm45.92 5.08l1.52-2.56-5.4-2.24 5.4-2.24-1.44-2.56-4.64 3.48.72-5.76h-2.96l.72 5.76-4.64-3.52-1.48 2.52 5.36 2.32-5.36 2.24 1.44 2.56 4.68-3.52-.72 5.8h2.96l-.72-5.8 4.56 3.52zM0 0h160v135H0zM132.22 308h1.14l.58-1.56h3.3l.59 1.56h1.13l-2.82-7.3h-1.1l-2.82 7.3zm3.37-5.94l1.26 3.34h-2.52l1.26-3.34zm4.328 5.94h1.09v-2.14h1.73c1.58 0 2.68-1.14 2.68-2.58 0-1.45-1.1-2.58-2.66-2.58h-2.84v7.3zm2.75-6.3c1.02 0 1.66.68 1.66 1.58 0 .89-.64 1.57-1.66 1.57h-1.66v-3.15h1.66zm5.676 6.3h1.08v-3.07l2.59-4.23h-1.2l-1.92 3.19-1.91-3.19h-1.22l2.58 4.22V308zM19.52 339h.96l1.992-5.136L24.464 339h.888l2.244-6.48h-1.02l-1.692 5.1-1.932-5.1h-.912l-1.98 5.136-1.632-5.136h-1.032L19.52 339zm9.348 0h.996v-6.48h-.996V339zm-.276-8.472c0 .444.324.78.768.78.456 0 .78-.336.78-.78a.757.757 0 00-.78-.78.761.761 0 00-.768.78zm2.465 2.868h1.26v3.648c0 1.428.648 2.052 1.836 2.052.54 0 .96-.168 1.332-.456l-.516-.78a1.045 1.045 0 01-.744.312c-.552 0-.936-.324-.936-1.152v-3.624h1.896v-.876H33.29v-2.052l-.972.624v1.428h-1.26v.876zM36.591 339h.984v-3.6c0-1.248.888-2.124 2.028-2.124 1.272 0 1.956.816 1.956 2.076V339h1.008v-3.696c0-1.812-1.068-2.916-2.76-2.916-.984 0-1.788.468-2.244 1.176v-4.02h-.972V339zm16.172-2.436c0-1.596-1.235-2.124-2.387-2.508v-3.024c.588.12 1.044.444 1.38.936l.816-.612c-.54-.648-1.213-1.092-2.184-1.2v-1.236h-.96v1.236c-1.308.168-2.256 1.056-2.256 2.256 0 1.512 1.152 1.992 2.268 2.352v3.384a2.63 2.63 0 01-1.74-1.212l-.864.672a3.774 3.774 0 002.592 1.476v1.356h.96v-1.356c1.488-.192 2.376-1.296 2.376-2.52zm-1.02.012c0 .792-.552 1.404-1.367 1.572v-3.084c.756.288 1.367.672 1.367 1.512zM48.18 332.4c0-.708.505-1.224 1.26-1.368v2.712c-.72-.276-1.26-.612-1.26-1.344zm8.868 6.6v-8.76h-.984c-.012 1.116-.636 1.872-2.052 1.872h-.072v1.008h.132c1.008 0 1.704-.444 1.98-1.116V339h.996zm5.143-.84c-1.32 0-2.328-.72-2.328-3.384v-.408c0-2.568 1.044-3.3 2.352-3.3 1.296 0 2.34.66 2.34 3.3v.408c0 2.64-1.044 3.384-2.364 3.384zm.012.96c1.908 0 3.348-1.128 3.348-4.344v-.408c0-3-1.464-4.248-3.348-4.248-1.824 0-3.336 1.212-3.336 4.248v.408c0 3.18 1.392 4.344 3.336 4.344zm8.226-.96c-1.32 0-2.328-.72-2.328-3.384v-.408c0-2.568 1.044-3.3 2.352-3.3 1.296 0 2.34.66 2.34 3.3v.408c0 2.64-1.044 3.384-2.364 3.384zm.012.96c1.908 0 3.348-1.128 3.348-4.344v-.408c0-3-1.464-4.248-3.348-4.248-1.824 0-3.336 1.212-3.336 4.248v.408c0 3.18 1.392 4.344 3.336 4.344zm5.299-.036c.287 0 .48-.144.504-.468a.702.702 0 01.023.156c0 .528-.348 1.032-1.008 1.416l.337.444c.767-.468 1.296-1.164 1.296-1.956 0-.576-.337-1.056-.96-1.056-.48 0-.816.324-.816.792 0 .384.252.672.624.672zm5.799-.924c-1.32 0-2.328-.72-2.328-3.384v-.408c0-2.568 1.044-3.3 2.352-3.3 1.296 0 2.34.66 2.34 3.3v.408c0 2.64-1.044 3.384-2.364 3.384zm.012.96c1.908 0 3.348-1.128 3.348-4.344v-.408c0-3-1.464-4.248-3.348-4.248-1.824 0-3.336 1.212-3.336 4.248v.408c0 3.18 1.392 4.344 3.336 4.344zm8.226-.96c-1.32 0-2.328-.72-2.328-3.384v-.408c0-2.568 1.044-3.3 2.352-3.3 1.296 0 2.34.66 2.34 3.3v.408c0 2.64-1.044 3.384-2.364 3.384zm.012.96c1.908 0 3.348-1.128 3.348-4.344v-.408c0-3-1.464-4.248-3.348-4.248-1.824 0-3.336 1.212-3.336 4.248v.408c0 3.18 1.392 4.344 3.336 4.344zm8.226-.96c-1.32 0-2.328-.72-2.328-3.384v-.408c0-2.568 1.044-3.3 2.352-3.3 1.296 0 2.34.66 2.34 3.3v.408c0 2.64-1.044 3.384-2.364 3.384zm.012.96c1.908 0 3.348-1.128 3.348-4.344v-.408c0-3-1.464-4.248-3.348-4.248-1.824 0-3.336 1.212-3.336 4.248v.408c0 3.18 1.392 4.344 3.336 4.344zM17.864 355h.984v-3.648c0-1.308.78-2.088 1.896-2.088 1.152 0 1.788.72 1.788 1.836v3.9h.984v-3.732c0-1.272.804-2.004 1.884-2.004 1.188 0 1.848.792 1.848 1.932V355h.996v-3.816c0-1.692-.948-2.796-2.748-2.796-1.08 0-1.92.54-2.328 1.344-.348-.816-1.104-1.344-2.256-1.344-.948 0-1.668.42-2.076 1.08v-.948h-.972V355zm12.094 0h.996v-6.48h-.996V355zm-.276-8.472c0 .444.324.78.768.78.456 0 .78-.336.78-.78a.757.757 0 00-.78-.78.761.761 0 00-.768.78zM32.7 355h.984v-3.6c0-1.248.888-2.124 2.04-2.124 1.26 0 1.956.816 1.956 2.076V355h.996v-3.696c0-1.812-1.068-2.916-2.76-2.916-1.008 0-1.812.492-2.256 1.212v-1.08h-.96V355zm7.688 0h.996v-6.48h-.996V355zm-.276-8.472c0 .444.324.78.768.78.456 0 .78-.336.78-.78a.757.757 0 00-.78-.78.761.761 0 00-.768.78zM43.13 355h.984v-3.648c0-1.308.78-2.088 1.896-2.088 1.152 0 1.788.72 1.788 1.836v3.9h.984v-3.732c0-1.272.804-2.004 1.884-2.004 1.188 0 1.848.792 1.848 1.932V355h.996v-3.816c0-1.692-.948-2.796-2.748-2.796-1.08 0-1.92.54-2.328 1.344-.348-.816-1.104-1.344-2.256-1.344-.948 0-1.668.42-2.076 1.08v-.948h-.972V355zm14.594.132c.984 0 1.752-.48 2.184-1.2V355h.96v-6.48h-.984v3.588c0 1.248-.852 2.124-1.992 2.124-1.248 0-1.896-.816-1.896-2.076v-3.636H55v3.684c0 1.824.96 2.928 2.724 2.928zm4.882-.132h.984v-3.648c0-1.308.78-2.088 1.896-2.088 1.152 0 1.788.72 1.788 1.836v3.9h.984v-3.732c0-1.272.804-2.004 1.884-2.004 1.188 0 1.848.792 1.848 1.932V355h.996v-3.816c0-1.692-.948-2.796-2.748-2.796-1.08 0-1.92.54-2.328 1.344-.348-.816-1.104-1.344-2.256-1.344-.948 0-1.668.42-2.076 1.08v-.948h-.972V355zm18.083.132c.936 0 1.908-.48 2.424-1.284V355h.972v-9.468h-.972v4.116c-.516-.792-1.488-1.26-2.424-1.26-1.812 0-3.3 1.392-3.3 3.372s1.464 3.372 3.3 3.372zm.084-.924c-1.356 0-2.388-1.044-2.388-2.46 0-1.38 1.032-2.46 2.388-2.46 1.38 0 2.412 1.116 2.412 2.46 0 1.368-1.032 2.46-2.412 2.46zm8.216.924c1.416 0 2.352-.612 3.012-1.644l-.84-.492c-.444.792-1.14 1.248-2.172 1.248-1.368 0-2.316-.876-2.46-2.112h5.724v-.444c0-1.92-1.404-3.3-3.3-3.3-1.944 0-3.384 1.488-3.384 3.396 0 1.896 1.344 3.348 3.42 3.348zm-.036-5.868c1.26 0 2.136.78 2.292 2.004h-4.692c.216-1.152 1.164-2.004 2.4-2.004zm8.15 5.868c1.837 0 3.301-1.392 3.301-3.372s-1.488-3.372-3.288-3.372c-.96 0-1.944.492-2.448 1.32v-1.188h-.96v8.976h.972v-3.612c.504.804 1.464 1.248 2.424 1.248zm-.083-.924c-1.38 0-2.424-1.092-2.424-2.46 0-1.344 1.044-2.46 2.424-2.46 1.356 0 2.388 1.08 2.388 2.46 0 1.416-1.032 2.46-2.388 2.46zm7.975.924c1.908 0 3.372-1.5 3.372-3.372 0-1.896-1.476-3.372-3.372-3.372-1.884 0-3.36 1.476-3.36 3.372 0 1.908 1.452 3.372 3.36 3.372zm0-.936c-1.344 0-2.364-1.044-2.364-2.436 0-1.38 1.02-2.448 2.364-2.448 1.344 0 2.376 1.068 2.376 2.448s-1.02 2.436-2.376 2.436zm7.143.936c1.692.012 2.556-.996 2.556-2.016 0-1.332-1.224-1.644-2.34-1.86-1.008-.204-1.788-.336-1.788-1.008 0-.6.408-1.032 1.404-1.032.828 0 1.392.348 1.776.864l.816-.552c-.576-.708-1.392-1.152-2.592-1.152-1.536-.012-2.412.876-2.412 1.884 0 1.296 1.188 1.596 2.304 1.812.948.192 1.836.336 1.836 1.056 0 .648-.528 1.128-1.536 1.128-.984 0-1.644-.42-2.088-1.056l-.852.576c.576.828 1.5 1.356 2.916 1.356zm3.929-.132h.996v-6.48h-.996V355zm-.276-8.472c0 .444.324.78.768.78.456 0 .78-.336.78-.78a.757.757 0 00-.78-.78.761.761 0 00-.768.78zm2.465 2.868h1.26v3.648c0 1.428.648 2.052 1.836 2.052.54 0 .96-.168 1.332-.456l-.516-.78a1.045 1.045 0 01-.744.312c-.552 0-.936-.324-.936-1.152v-3.624h1.896v-.876h-1.896v-2.052l-.972.624v1.428h-1.26v.876zM25.56 182.2c2.98 0 5.4-1.66 6.66-4.1l-1.96-1.04c-.84 1.76-2.46 3-4.72 3-3.02 0-5.3-2.4-5.3-5.36 0-3 2.28-5.4 5.32-5.4 2.06 0 3.66 1.08 4.56 2.76l1.9-1.18c-1.3-2.2-3.7-3.68-6.46-3.68-4.18 0-7.5 3.24-7.5 7.5 0 4.14 3.18 7.5 7.5 7.5zm13.779.02a5.6 5.6 0 005.62-5.62 5.6 5.6 0 00-5.62-5.62 5.6 5.6 0 00-5.62 5.62 5.6 5.6 0 005.62 5.62zm0-2.02c-1.96 0-3.46-1.6-3.46-3.6s1.5-3.6 3.46-3.6c1.94 0 3.48 1.6 3.48 3.6s-1.52 3.6-3.48 3.6zm7.71 1.8h2.16v-5.96c0-1.94 1.26-3.16 2.9-3.16 1.8 0 2.76 1.18 2.76 3.02v6.1h2.18v-6.26c0-2.96-1.7-4.76-4.44-4.76-1.5 0-2.7.68-3.44 1.72v-1.5h-2.12V182zm16.341.22c2.98.02 4.4-1.84 4.4-3.42 0-2.24-2.04-2.86-3.84-3.24-1.64-.36-2.62-.56-2.62-1.42 0-.76.64-1.38 1.96-1.38 1.16 0 1.94.48 2.48 1.28l1.86-1.06c-.94-1.28-2.32-2.02-4.34-2.02-2.54-.02-4.16 1.54-4.16 3.22 0 2.2 1.94 2.8 3.76 3.18 1.42.3 2.74.52 2.74 1.46 0 .82-.74 1.52-2.14 1.52-1.34 0-2.26-.58-2.92-1.6l-1.94 1.1c.92 1.56 2.48 2.38 4.76 2.38zm10.56 0c1.44 0 2.64-.66 3.38-1.7V182h2.12v-10.8h-2.16v5.96c0 1.92-1.24 3.14-2.86 3.14-1.82 0-2.74-1.18-2.74-3v-6.1h-2.2v6.24c0 2.98 1.6 4.78 4.46 4.78zm8-.22h2.16v-6.04c0-2.04.98-3.08 2.58-3.08 1.64 0 2.38 1 2.38 2.64V182h2.18v-6.14c0-1.98 1-2.98 2.54-2.98 1.7 0 2.44 1.1 2.44 2.78V182h2.22v-6.46c0-2.78-1.38-4.56-4.34-4.56-1.6 0-2.84.76-3.52 1.9-.58-1.18-1.72-1.9-3.44-1.9-1.38 0-2.4.56-3.06 1.46v-1.24h-2.14V182zm24.286.22c2.34 0 3.9-1.04 4.94-2.6l-1.78-1.06c-.64 1.04-1.64 1.74-3.16 1.74-1.98 0-3.34-1.16-3.66-2.9h9.08v-.9c0-3.2-2.36-5.52-5.54-5.52s-5.62 2.48-5.62 5.66c0 3.14 2.3 5.58 5.74 5.58zm-.12-9.34c1.78 0 3.04.98 3.36 2.68h-6.82c.42-1.56 1.74-2.68 3.46-2.68zm7.612 9.12h2.16v-6.08c0-1.94.98-2.7 2.52-2.7.62 0 1.06.12 1.36.32l.84-2.08c-.42-.26-1.08-.42-1.82-.42-1.38 0-2.48.68-2.94 2.04v-1.88h-2.12V182zM18.48 206h2.16v-11.04l4.72 6.42 4.88-6.56V206h2.14v-14.6h-2.06L25.4 198l-4.76-6.6h-2.16V206zm21.582.22a5.6 5.6 0 005.62-5.62 5.6 5.6 0 00-5.62-5.62 5.6 5.6 0 00-5.62 5.62 5.6 5.6 0 005.62 5.62zm0-2.02c-1.96 0-3.46-1.6-3.46-3.6s1.5-3.6 3.46-3.6c1.94 0 3.48 1.6 3.48 3.6s-1.52 3.6-3.48 3.6zm7.71 1.8h2.16v-5.96c0-1.94 1.26-3.16 2.9-3.16 1.8 0 2.76 1.18 2.76 3.02v6.1h2.18v-6.26c0-2.96-1.7-4.76-4.44-4.76-1.5 0-2.7.68-3.44 1.72v-1.5h-2.12V206zm17.78.22c2.34 0 3.9-1.04 4.94-2.6l-1.78-1.06c-.64 1.04-1.64 1.74-3.16 1.74-1.98 0-3.34-1.16-3.66-2.9h9.08v-.9c0-3.2-2.36-5.52-5.54-5.52s-5.62 2.48-5.62 5.66c0 3.14 2.3 5.58 5.74 5.58zm-.12-9.34c1.78 0 3.04.98 3.36 2.68h-6.82c.42-1.56 1.74-2.68 3.46-2.68zM73.46 210c2.08 0 3.2-.9 4.28-3.46l4.82-11.34h-2.3l-3.1 7.74-3.24-7.74h-2.32l4.44 10.28-.2.46c-.7 1.54-1.28 2-2.4 2-.62 0-1.06-.24-1.44-.62l-1.28 1.82c.7.52 1.72.86 2.74.86zM18.48 230h2.16v-11.04l4.72 6.42 4.88-6.56V230h2.14v-14.6h-2.06L25.4 222l-4.76-6.6h-2.16V230zm19.761.22c1.8 0 3.38-.84 4.24-2.12v1.9h2.08v-6.68c0-2.62-1.76-4.34-4.86-4.34-2.32 0-3.98 1.04-5.04 2.46l1.92 1.12c.62-1.06 1.68-1.74 3.1-1.74 1.92 0 2.8 1 2.8 2.44v.18h-3.2c-3.02 0-4.86 1.36-4.86 3.58 0 1.82 1.32 3.2 3.82 3.2zm.46-1.88c-1.44 0-2.08-.56-2.08-1.5 0-1.06.8-1.68 2.8-1.68h3.06v.9c-.7 1.42-2.24 2.28-3.78 2.28zM46.99 230h2.16v-6.08c0-1.94.98-2.7 2.52-2.7.62 0 1.06.12 1.36.32l.84-2.08c-.42-.26-1.08-.42-1.82-.42-1.38 0-2.48.68-2.94 2.04v-1.88h-2.12V230zm16.095 0h2.54l-4.42-6.26 4.18-4.54h-2.64l-5.04 5.52v-10.48h-2.14V230h2.14v-2.8l1.94-2.1 3.44 4.9zm8.25.22c2.34 0 3.9-1.04 4.94-2.6l-1.78-1.06c-.64 1.04-1.64 1.74-3.16 1.74-1.98 0-3.34-1.16-3.66-2.9h9.08v-.9c0-3.2-2.36-5.52-5.54-5.52s-5.62 2.48-5.62 5.66c0 3.14 2.3 5.58 5.74 5.58zm-.12-9.34c1.78 0 3.04.98 3.36 2.68h-6.82c.42-1.56 1.74-2.68 3.46-2.68zm6.402.26h2.14v5.34c0 2.66 1.24 3.72 3.38 3.72.9 0 1.66-.24 2.28-.66l-1.02-1.8c-.34.3-.68.42-1.1.42-.84 0-1.42-.52-1.42-1.7v-5.32h3.02v-1.94h-3.02v-3.72l-2.12 1.38v2.34h-2.14v1.94zM17.44 254h2.28l1.16-3.12h6.6l1.18 3.12h2.26l-5.64-14.6h-2.2L17.44 254zm6.74-11.88l2.52 6.68h-5.04l2.52-6.68zm13.09 12.1c2.5 0 4.3-1.4 5.16-3.4l-1.96-.82c-.52 1.24-1.64 2.2-3.18 2.2-2.02 0-3.56-1.62-3.56-3.6 0-2 1.5-3.6 3.52-3.6 1.46 0 2.62.8 3.18 2.12l1.94-.84c-.82-1.94-2.74-3.3-5.12-3.3-3.16 0-5.64 2.44-5.64 5.62 0 3.12 2.44 5.62 5.66 5.62zm12.167 0c2.5 0 4.3-1.4 5.16-3.4l-1.96-.82c-.52 1.24-1.64 2.2-3.18 2.2-2.02 0-3.56-1.62-3.56-3.6 0-2 1.5-3.6 3.52-3.6 1.46 0 2.62.8 3.18 2.12l1.94-.84c-.82-1.94-2.74-3.3-5.12-3.3-3.16 0-5.64 2.44-5.64 5.62 0 3.12 2.44 5.62 5.66 5.62zm12.129 0a5.6 5.6 0 005.62-5.62 5.6 5.6 0 00-5.62-5.62 5.6 5.6 0 00-5.62 5.62 5.6 5.6 0 005.62 5.62zm0-2.02c-1.96 0-3.46-1.6-3.46-3.6s1.5-3.6 3.46-3.6c1.94 0 3.48 1.6 3.48 3.6s-1.52 3.6-3.48 3.6zm12.11 2.02c1.44 0 2.64-.66 3.38-1.7V254h2.12v-10.8h-2.16v5.96c0 1.92-1.24 3.14-2.86 3.14-1.82 0-2.74-1.18-2.74-3v-6.1h-2.2v6.24c0 2.98 1.6 4.78 4.46 4.78zm8.001-.22h2.16v-5.96c0-1.94 1.26-3.16 2.9-3.16 1.8 0 2.76 1.18 2.76 3.02v6.1h2.18v-6.26c0-2.96-1.7-4.76-4.44-4.76-1.5 0-2.7.68-3.44 1.72v-1.5h-2.12V254zm11.29-8.86h2.14v5.34c0 2.66 1.24 3.72 3.38 3.72.9 0 1.66-.24 2.28-.66l-1.02-1.8c-.34.3-.68.42-1.1.42-.84 0-1.42-.52-1.42-1.7v-5.32h3.02v-1.94h-3.02v-3.72l-2.12 1.38v2.34h-2.14v1.94z" fill="#193526"/><path d="M24.308 99.42c4.732 0 8.008-2.576 8.008-6.272 0-6.272-9.548-5.264-9.548-10.024 0-1.82 1.316-3.08 3.332-3.08.28 0 .616.028.924.14l4.172 3.164h.14v-3.304c-.84-.616-3.192-1.064-5.236-1.064-4.06 0-6.944 2.324-6.944 5.628 0 6.272 9.548 5.236 9.548 10.024 0 2.24-1.764 3.696-3.836 3.696-.504 0-1.064-.112-1.288-.196l-4.872-3.668h-.14v3.668c1.148.7 3.528 1.288 5.74 1.288zm15.338 0c1.736 0 3.36-.84 4.9-2.548h.168l.336 2.548 4.676-1.148v-.14l-1.428-1.316V84.3h-.28l-4.928 1.344v.14l1.54 1.4v8.68c-1.064.896-2.044 1.344-3.024 1.344-1.428 0-2.268-.896-2.268-2.38V84.272h-.28l-4.928 1.344v.14l1.54 1.4v8.484c0 2.212 1.596 3.78 3.976 3.78zm15.408-18.032c1.26 0 2.1-.756 2.1-1.988s-.84-1.96-2.1-1.96c-1.288 0-2.128.728-2.128 1.96s.84 1.988 2.128 1.988zM58.19 99v-.112L56.874 97.6V84.3h-.28l-4.928 1.344v.112l1.54 1.4V97.6l-1.288 1.288V99h6.272zm6.99.42c1.932 0 3.64-1.064 4.452-2.8l-.112-.084c-.644.56-1.428.868-2.184.868-1.176 0-1.988-.672-1.988-2.156V86.12h3.64l.196-1.4h-3.836v-2.856h-.476l-5.124 4.116v.14h1.932v10.808c.392 1.736 1.876 2.492 3.5 2.492zm23.544-.56l-1.456-1.568v-7.924l5.264-8.092 1.372-1.736v-.14h-5.04v.14l1.904 1.96-4.144 6.664-4.312-7.056 1.456-1.568v-.14h-7.56v.14l1.288 1.568 5.74 8.792v7.392l-1.484 1.568V99h6.972v-.14zm10.029.56c4.312 0 7.28-3.192 7.28-7.728 0-4.424-2.828-7.392-7-7.392-4.312 0-7.252 3.192-7.252 7.728 0 4.424 2.8 7.392 6.972 7.392zm.476-1.064c-2.212 0-3.668-2.828-3.668-7.252 0-3.752 1.092-5.768 2.996-5.768 2.212 0 3.696 2.828 3.696 7.252 0 3.752-1.12 5.768-3.024 5.768zm13.835 1.064c1.736 0 3.36-.84 4.9-2.548h.168l.336 2.548 4.676-1.148v-.14l-1.428-1.316V84.3h-.28l-4.928 1.344v.14l1.54 1.4v8.68c-1.064.896-2.044 1.344-3.024 1.344-1.428 0-2.268-.896-2.268-2.38V84.272h-.28l-4.928 1.344v.14l1.54 1.4v8.484c0 2.212 1.596 3.78 3.976 3.78zM23.944 70h3.892V53.2h5.628v-3.64H18.26v3.64h5.684V70zm12.15 0h3.836v-8.344c0-2.352 1.4-3.696 3.22-3.696 2.044 0 3.08 1.344 3.08 3.5V70h3.976v-9.128c0-3.948-2.296-6.3-5.88-6.3-1.848 0-3.388.812-4.396 2.156v-8.792h-3.836V70zm21.767.308c2.38 0 4.452-1.064 5.544-2.632V70h3.724v-9.296c0-3.808-2.548-6.132-7-6.132-3.388 0-5.6 1.428-7.14 3.444l3.556 1.764c.7-1.26 1.848-1.988 3.556-1.988 2.184 0 3.276 1.12 3.276 2.744v.196h-3.976c-4.2 0-6.804 1.932-6.804 5.068 0 2.66 1.96 4.508 5.264 4.508zm1.12-3.192c-1.596 0-2.352-.56-2.352-1.652 0-1.176.924-1.904 3.22-1.904h3.556v.812c-.756 1.624-2.576 2.744-4.424 2.744zm9.77-8.82h2.8v6.356c0 4.116 1.847 5.628 5.011 5.628 1.4 0 2.632-.42 3.612-1.148l-1.764-3.024c-.448.392-.868.56-1.4.56-.98 0-1.652-.56-1.652-2.156v-6.216h3.976V54.88h-3.976v-5.516l-3.808 2.24v3.276h-2.8v3.416zM26.24 41.28c4.564 0 7.504-2.912 7.504-6.412 0-4.424-3.612-5.432-6.748-6.104-2.548-.588-4.592-.896-4.592-2.548 0-1.344.952-2.436 3.164-2.436 2.352 0 3.724.98 4.788 2.548l3.22-2.52c-2.072-2.296-4.34-3.556-7.952-3.556-4.256 0-7.252 2.688-7.252 6.048 0 4.144 3.416 5.124 6.468 5.768 2.828.644 4.788 1.036 4.788 2.94 0 1.484-1.148 2.548-3.36 2.548-2.436 0-4.256-1.092-5.6-3.22l-3.444 2.744c1.932 2.464 4.62 4.2 9.016 4.2zm14.86.028c2.38 0 4.451-1.064 5.544-2.632V41h3.724v-9.296c0-3.808-2.549-6.132-7-6.132-3.389 0-5.6 1.428-7.14 3.444l3.555 1.764c.7-1.26 1.849-1.988 3.556-1.988 2.184 0 3.276 1.12 3.276 2.744v.196H42.64c-4.2 0-6.803 1.932-6.803 5.068 0 2.66 1.96 4.508 5.264 4.508zm1.12-3.192c-1.596 0-2.352-.56-2.352-1.652 0-1.176.923-1.904 3.22-1.904h3.556v.812c-.756 1.624-2.576 2.744-4.425 2.744zM57.011 41h3.836l5.936-15.12H62.78l-3.752 10.192-3.724-10.192h-4.088L57.012 41zm11.621 0h3.948V25.88h-3.948V41zm-.504-19.376c0 1.428 1.008 2.464 2.464 2.464 1.484 0 2.492-1.036 2.492-2.464 0-1.456-1.008-2.52-2.492-2.52-1.428 0-2.464 1.064-2.464 2.52zM75.66 41h3.892v-8.344c0-2.352 1.4-3.696 3.22-3.696 2.044 0 3.08 1.344 3.08 3.5V41H89.8v-9.128c0-3.948-2.268-6.3-5.852-6.3-1.876 0-3.444.84-4.424 2.212V25.88H75.66V41zm23.922.224c1.96 0 3.696-.896 4.76-2.38v1.148c0 2.38-1.736 4.032-4.172 4.032-1.988 0-3.108-.728-4.116-2.044l-3.192 2.492c1.708 1.988 3.976 2.996 7.42 2.996 4.648 0 7.924-3.192 7.924-7.588v-14h-3.864v1.988c-1.008-1.4-2.688-2.296-4.704-2.296-3.864 0-7.336 3.052-7.336 7.84s3.556 7.812 7.28 7.812zm.756-3.584c-2.324 0-4.2-1.876-4.2-4.256 0-2.408 1.876-4.256 4.2-4.256 2.38 0 4.2 1.876 4.2 4.256 0 2.38-1.82 4.256-4.2 4.256zm16.917 3.668c4.396.028 6.496-2.632 6.496-4.984 0-3.248-2.968-4.116-5.488-4.62-2.212-.476-3.444-.728-3.444-1.68 0-.84.728-1.456 2.24-1.456 1.4 0 2.352.588 2.968 1.596l3.528-1.428c-1.4-2.016-3.304-3.22-6.496-3.22-3.724-.028-6.188 2.184-6.188 4.732 0 3.192 2.828 3.976 5.376 4.508 1.932.392 3.556.644 3.556 1.736 0 .896-.84 1.652-2.408 1.652-1.596 0-2.8-.7-3.472-2.044l-3.724 1.456c1.204 2.408 3.472 3.752 7.056 3.752z" fill="#fff"/></svg>