<svg width="63" height="24" viewBox="0 0 63 24" fill="none" xmlns="http://www.w3.org/2000/svg"><path d="M5.944 23h3.892V6.2h5.628V2.56H.26V6.2h5.684V23zm12.15 0h3.836v-8.344c0-2.352 1.4-3.696 3.22-3.696 2.044 0 3.08 1.344 3.08 3.5V23h3.976v-9.128c0-3.948-2.296-6.3-5.88-6.3-1.848 0-3.388.812-4.396 2.156V.936h-3.836V23zm21.767.308c2.38 0 4.452-1.064 5.544-2.632V23h3.724v-9.296c0-3.808-2.548-6.132-7-6.132-3.388 0-5.6 1.428-7.14 3.444l3.556 1.764c.7-1.26 1.848-1.988 3.556-1.988 2.184 0 3.276 1.12 3.276 2.744v.196h-3.976c-4.2 0-6.804 1.932-6.804 5.068 0 2.66 1.96 4.508 5.264 4.508zm1.12-3.192c-1.596 0-2.352-.56-2.352-1.652 0-1.176.924-1.904 3.22-1.904h3.556v.812c-.756 1.624-2.576 2.744-4.424 2.744zm9.77-8.82h2.8v6.356c0 4.116 1.847 5.628 5.011 5.628 1.4 0 2.632-.42 3.612-1.148l-1.764-3.024c-.448.392-.868.56-1.4.56-.98 0-1.652-.56-1.652-2.156v-6.216h3.976V7.88h-3.976V2.364l-3.808 2.24V7.88h-2.8v3.416z" fill="#fff"/></svg>