<svg width="106" height="30" viewBox="0 0 106 30" fill="none" xmlns="http://www.w3.org/2000/svg"><path d="M2.52 11h.96l1.992-5.136L7.464 11h.888l2.244-6.48h-1.02l-1.692 5.1-1.932-5.1H5.04L3.06 9.656 1.428 4.52H.396L2.52 11zm9.348 0h.996V4.52h-.996V11zm-.276-8.472c0 .444.324.78.768.78.456 0 .78-.336.78-.78a.757.757 0 00-.78-.78.761.761 0 00-.768.78zm2.465 2.868h1.26v3.648c0 1.428.648 2.052 1.836 2.052.54 0 .96-.168 1.332-.456l-.516-.78a1.045 1.045 0 01-.744.312c-.552 0-.936-.324-.936-1.152V5.396h1.896V4.52H16.29V2.468l-.972.624V4.52h-1.26v.876zM19.591 11h.984V7.4c0-1.248.888-2.124 2.028-2.124 1.272 0 1.956.816 1.956 2.076V11h1.008V7.304c0-1.812-1.068-2.916-2.76-2.916-.984 0-1.788.468-2.244 1.176v-4.02h-.972V11zm16.172-2.436c0-1.596-1.235-2.124-2.387-2.508V3.032c.588.12 1.044.444 1.38.936l.816-.612c-.54-.648-1.213-1.092-2.184-1.2V.92h-.96v1.236c-1.308.168-2.256 1.056-2.256 2.256 0 1.512 1.151 1.992 2.268 2.352v3.384a2.63 2.63 0 01-1.74-1.212l-.864.672a3.774 3.774 0 002.592 1.476v1.356h.96v-1.356c1.488-.192 2.376-1.296 2.376-2.52zm-1.02.012c0 .792-.552 1.404-1.367 1.572V7.064c.756.288 1.367.672 1.367 1.512zM31.18 4.4c0-.708.505-1.224 1.26-1.368v2.712c-.72-.276-1.26-.612-1.26-1.344zm8.868 6.6V2.24h-.984c-.012 1.116-.636 1.872-2.052 1.872h-.072V5.12h.132c1.008 0 1.704-.444 1.98-1.116V11h.996zm5.143-.84c-1.32 0-2.328-.72-2.328-3.384v-.408c0-2.568 1.044-3.3 2.352-3.3 1.296 0 2.34.66 2.34 3.3v.408c0 2.64-1.044 3.384-2.364 3.384zm.012.96c1.908 0 3.348-1.128 3.348-4.344v-.408c0-3-1.464-4.248-3.348-4.248-1.824 0-3.336 1.212-3.336 4.248v.408c0 3.18 1.392 4.344 3.336 4.344zm8.226-.96c-1.32 0-2.328-.72-2.328-3.384v-.408c0-2.568 1.044-3.3 2.352-3.3 1.296 0 2.34.66 2.34 3.3v.408c0 2.64-1.044 3.384-2.364 3.384zm.012.96c1.908 0 3.348-1.128 3.348-4.344v-.408c0-3-1.464-4.248-3.348-4.248-1.824 0-3.336 1.212-3.336 4.248v.408c0 3.18 1.392 4.344 3.336 4.344zm5.299-.036c.288 0 .48-.144.504-.468a.702.702 0 01.023.156c0 .528-.347 1.032-1.008 1.416l.336.444c.768-.468 1.297-1.164 1.297-1.956 0-.576-.337-1.056-.96-1.056-.48 0-.816.324-.816.792 0 .384.252.672.623.672zm5.799-.924c-1.32 0-2.328-.72-2.328-3.384v-.408c0-2.568 1.044-3.3 2.352-3.3 1.296 0 2.34.66 2.34 3.3v.408c0 2.64-1.044 3.384-2.364 3.384zm.012.96c1.908 0 3.348-1.128 3.348-4.344v-.408c0-3-1.464-4.248-3.348-4.248-1.824 0-3.336 1.212-3.336 4.248v.408c0 3.18 1.392 4.344 3.336 4.344zm8.226-.96c-1.32 0-2.328-.72-2.328-3.384v-.408c0-2.568 1.044-3.3 2.352-3.3 1.296 0 2.34.66 2.34 3.3v.408c0 2.64-1.044 3.384-2.364 3.384zm.012.96c1.908 0 3.348-1.128 3.348-4.344v-.408c0-3-1.464-4.248-3.348-4.248-1.824 0-3.336 1.212-3.336 4.248v.408c0 3.18 1.392 4.344 3.336 4.344zm8.226-.96c-1.32 0-2.328-.72-2.328-3.384v-.408c0-2.568 1.044-3.3 2.352-3.3 1.296 0 2.34.66 2.34 3.3v.408c0 2.64-1.044 3.384-2.364 3.384zm.012.96c1.908 0 3.348-1.128 3.348-4.344v-.408c0-3-1.464-4.248-3.348-4.248-1.824 0-3.336 1.212-3.336 4.248v.408c0 3.18 1.392 4.344 3.336 4.344zM.864 27h.984v-3.648c0-1.308.78-2.088 1.896-2.088 1.152 0 1.788.72 1.788 1.836V27h.984v-3.732c0-1.272.804-2.004 1.884-2.004 1.188 0 1.848.792 1.848 1.932V27h.996v-3.816c0-1.692-.948-2.796-2.748-2.796-1.08 0-1.92.54-2.328 1.344-.348-.816-1.104-1.344-2.256-1.344-.948 0-1.668.42-2.076 1.08v-.948H.864V27zm12.094 0h.996v-6.48h-.996V27zm-.276-8.472c0 .444.324.78.768.78.456 0 .78-.336.78-.78a.757.757 0 00-.78-.78.761.761 0 00-.768.78zM15.7 27h.984v-3.6c0-1.248.888-2.124 2.04-2.124 1.26 0 1.956.816 1.956 2.076V27h.996v-3.696c0-1.812-1.068-2.916-2.76-2.916-1.008 0-1.812.492-2.256 1.212v-1.08h-.96V27zm7.688 0h.996v-6.48h-.996V27zm-.276-8.472c0 .444.324.78.768.78.456 0 .78-.336.78-.78a.757.757 0 00-.78-.78.761.761 0 00-.768.78zM26.13 27h.984v-3.648c0-1.308.78-2.088 1.896-2.088 1.152 0 1.788.72 1.788 1.836V27h.984v-3.732c0-1.272.804-2.004 1.884-2.004 1.188 0 1.848.792 1.848 1.932V27h.996v-3.816c0-1.692-.948-2.796-2.748-2.796-1.08 0-1.92.54-2.328 1.344-.348-.816-1.104-1.344-2.256-1.344-.948 0-1.668.42-2.076 1.08v-.948h-.972V27zm14.594.132c.984 0 1.752-.48 2.184-1.2V27h.96v-6.48h-.984v3.588c0 1.248-.852 2.124-1.992 2.124-1.248 0-1.896-.816-1.896-2.076V20.52H38v3.684c0 1.824.96 2.928 2.724 2.928zM45.606 27h.984v-3.648c0-1.308.78-2.088 1.896-2.088 1.152 0 1.788.72 1.788 1.836V27h.984v-3.732c0-1.272.804-2.004 1.884-2.004 1.188 0 1.848.792 1.848 1.932V27h.996v-3.816c0-1.692-.948-2.796-2.748-2.796-1.08 0-1.92.54-2.328 1.344-.348-.816-1.104-1.344-2.256-1.344-.948 0-1.668.42-2.076 1.08v-.948h-.972V27zm18.083.132c.936 0 1.908-.48 2.424-1.284V27h.972v-9.468h-.972v4.116c-.516-.792-1.488-1.26-2.424-1.26-1.812 0-3.3 1.392-3.3 3.372s1.464 3.372 3.3 3.372zm.084-.924c-1.356 0-2.388-1.044-2.388-2.46 0-1.38 1.032-2.46 2.388-2.46 1.38 0 2.412 1.116 2.412 2.46 0 1.368-1.032 2.46-2.412 2.46zm8.216.924c1.416 0 2.352-.612 3.012-1.644l-.84-.492c-.444.792-1.14 1.248-2.172 1.248-1.368 0-2.316-.876-2.46-2.112h5.724v-.444c0-1.92-1.404-3.3-3.3-3.3-1.944 0-3.384 1.488-3.384 3.396 0 1.896 1.344 3.348 3.42 3.348zm-.036-5.868c1.26 0 2.136.78 2.292 2.004h-4.692c.216-1.152 1.164-2.004 2.4-2.004zm8.15 5.868c1.837 0 3.3-1.392 3.3-3.372s-1.487-3.372-3.287-3.372c-.96 0-1.944.492-2.448 1.32V20.52h-.96v8.976h.972v-3.612c.504.804 1.464 1.248 2.424 1.248zm-.083-.924c-1.38 0-2.424-1.092-2.424-2.46 0-1.344 1.044-2.46 2.424-2.46 1.356 0 2.388 1.08 2.388 2.46 0 1.416-1.032 2.46-2.388 2.46zm7.975.924c1.908 0 3.372-1.5 3.372-3.372 0-1.896-1.476-3.372-3.372-3.372-1.884 0-3.36 1.476-3.36 3.372 0 1.908 1.452 3.372 3.36 3.372zm0-.936c-1.344 0-2.364-1.044-2.364-2.436 0-1.38 1.02-2.448 2.364-2.448 1.344 0 2.376 1.068 2.376 2.448s-1.02 2.436-2.376 2.436zm7.143.936c1.692.012 2.556-.996 2.556-2.016 0-1.332-1.224-1.644-2.34-1.86-1.008-.204-1.788-.336-1.788-1.008 0-.6.408-1.032 1.404-1.032.828 0 1.392.348 1.776.864l.816-.552c-.576-.708-1.392-1.152-2.592-1.152-1.536-.012-2.412.876-2.412 1.884 0 1.296 1.188 1.596 2.304 1.812.948.192 1.836.336 1.836 1.056 0 .648-.528 1.128-1.536 1.128-.984 0-1.644-.42-2.088-1.056l-.852.576c.576.828 1.5 1.356 2.916 1.356zm3.93-.132h.995v-6.48h-.996V27zm-.277-8.472c0 .444.324.78.768.78.456 0 .78-.336.78-.78a.757.757 0 00-.78-.78.761.761 0 00-.768.78zm2.465 2.868h1.26v3.648c0 1.428.648 2.052 1.836 2.052.54 0 .96-.168 1.332-.456l-.516-.78a1.045 1.045 0 01-.744.312c-.552 0-.936-.324-.936-1.152v-3.624h1.896v-.876h-1.896v-2.052l-.972.624v1.428h-1.26v.876z" fill="#193526"/></svg>